<svg width="2099pt" height="1638pt" viewBox="0.00 0.00 2099.00 1638.00" xmlns="http://www.w3.org/2000/svg" xmlns:xlink="http://www.w3.org/1999/xlink"><g id="graph0" class="graph" transform="scale(1 1) rotate(0) translate(4 1634)"><title>%3</title><polygon fill="white" stroke="transparent" points="-4,4 -4,-1634 2095,-1634 2095,4 -4,4"/><!-- node6546 --><g id="node1" class="node"><title>node6546</title><polygon fill="#f5f0e4" stroke="transparent" points="933,-1414 933,-1626 1312,-1626 1312,-1414 933,-1414"/><polyline fill="none" stroke="black" points="954.5,-1576 1018.5,-1576 "/><text text-anchor="start" x="963.5" y="-1588.2" font-family="sans-serif" font-weight="bold" font-size="11.00">Person</text><polyline fill="none" stroke="black" points="1038.5,-1576 1253.5,-1576 "/><text text-anchor="start" x="1047.5" y="-1588.2" font-family="sans-serif" font-weight="bold" font-size="11.00">object</text><polyline fill="none" stroke="black" points="1273.5,-1576 1291.5,-1576 "/><text text-anchor="start" x="962.5" y="-1539.2" font-family="sans-serif" font-size="11.00">$id</text><text text-anchor="start" x="1046.04" y="-1539.2" font-family="sans-serif" font-size="11.00">https://example.com/person.schema.json</text><text text-anchor="start" x="962.5" y="-1492.2" font-family="sans-serif" font-size="11.00">$schema</text><text text-anchor="start" x="1046.5" y="-1492.2" font-family="sans-serif" font-size="11.00">http://json&#45;schema.org/draft&#45;07/schema#</text><text text-anchor="start" x="962.04" y="-1445.2" font-family="sans-serif" font-size="11.00">properties</text><text text-anchor="start" x="1046.5" y="-1445.2" font-family="sans-serif" font-size="11.00">object</text><polygon fill="none" stroke="black" points="933,-1414 933,-1626 1312,-1626 1312,-1414 933,-1414"/></g><!-- node6547 --><g id="node2" class="node"><title>node6547</title><polygon fill="#f5f0e4" stroke="transparent" points="989,-1007 989,-1370 1256,-1370 1256,-1007 989,-1007"/><polyline fill="none" stroke="black" points="1010.5,-1319.5 1076.5,-1319.5 "/><text text-anchor="start" x="1019.04" y="-1331.7" font-family="sans-serif" font-weight="bold" font-size="11.00">properties</text><polyline fill="none" stroke="black" points="1096.5,-1319.5 1172.5,-1319.5 "/><text text-anchor="start" x="1105.5" y="-1331.7" font-family="sans-serif" font-weight="bold" font-size="11.00">object</text><polyline fill="none" stroke="black" points="1192.5,-1319.5 1235.5,-1319.5 "/><text text-anchor="start" x="1018.5" y="-1282.7" font-family="sans-serif" font-size="11.00">firstName</text><text text-anchor="start" x="1104.5" y="-1282.7" font-family="sans-serif" font-size="11.00">string</text><text text-anchor="start" x="1018.5" y="-1235.7" font-family="sans-serif" font-size="11.00">lastName</text><text text-anchor="start" x="1104.5" y="-1235.7" font-family="sans-serif" font-size="11.00">string</text><text text-anchor="start" x="1018.5" y="-1188.7" font-family="sans-serif" font-size="11.00">age</text><text text-anchor="start" x="1104.5" y="-1188.7" font-family="sans-serif" font-size="11.00">integer</text><polygon fill="#f5e2b8" stroke="transparent" points="1010.5,-1126.5 1010.5,-1158.5 1076.5,-1158.5 1076.5,-1126.5 1010.5,-1126.5"/><text text-anchor="start" x="1018.5" y="-1141.7" font-family="sans-serif" font-size="11.00">salary</text><polygon fill="#f5e2b8" stroke="transparent" points="1096.5,-1126.5 1096.5,-1158.5 1172.5,-1158.5 1172.5,-1126.5 1096.5,-1126.5"/><text text-anchor="start" x="1104.5" y="-1141.7" font-family="sans-serif" font-size="11.00">number1</text><polygon fill="#f5e2b8" stroke="transparent" points="1192.5,-1126.5 1192.5,-1158.5 1235.5,-1158.5 1235.5,-1126.5 1192.5,-1126.5"/><text text-anchor="start" x="1200.47" y="-1141.9" font-family="sans-serif" font-weight="bold" font-size="12.00" fill="#ff0000">①</text><text text-anchor="start" x="1212.47" y="-1141.9" font-family="sans-serif" font-size="11.00"> </text><text text-anchor="start" x="1215.53" y="-1141.9" font-family="sans-serif" font-weight="bold" font-size="12.00" fill="#ff7200">②</text><polygon fill="#f5e2b8" stroke="transparent" points="1010.5,-1074.5 1010.5,-1106.5 1076.5,-1106.5 1076.5,-1074.5 1010.5,-1074.5"/><text text-anchor="start" x="1018.5" y="-1089.7" font-family="sans-serif" font-size="11.00">role2</text><polygon fill="#f5e2b8" stroke="transparent" points="1096.5,-1074.5 1096.5,-1106.5 1172.5,-1106.5 1172.5,-1074.5 1096.5,-1074.5"/><text text-anchor="start" x="1104.24" y="-1089.7" font-family="sans-serif" font-size="11.00">array[object]</text><polygon fill="#f5e2b8" stroke="transparent" points="1192.5,-1074.5 1192.5,-1106.5 1235.5,-1106.5 1235.5,-1074.5 1192.5,-1074.5"/><text text-anchor="start" x="1200.5" y="-1089.9" font-family="sans-serif" font-weight="bold" font-size="12.00" fill="#ff7200">③</text><text text-anchor="start" x="1018.5" y="-1037.7" font-family="sans-serif" font-size="11.00">gender</text><text text-anchor="start" x="1104.5" y="-1037.7" font-family="sans-serif" font-size="11.00">array[string]</text><polygon fill="none" stroke="black" points="989,-1007 989,-1370 1256,-1370 1256,-1007 989,-1007"/></g><!-- node6546&#45;&gt;node6547 --><g id="edge1" class="edge"><title>node6546&#45;&gt;node6547</title><path fill="none" stroke="black" d="M1122.5,-1399.65C1122.5,-1391.31 1122.5,-1382.8 1122.5,-1374.21"/><polygon fill="black" stroke="black" points="1119,-1399.74 1122.5,-1409.74 1126,-1399.74 1119,-1399.74"/></g><!-- node6548 --><g id="node3" class="node"><title>node6548</title><polygon fill="#f5f0e4" stroke="transparent" points="8,-772 8,-937 311,-937 311,-772 8,-772"/><polyline fill="none" stroke="black" points="29.5,-886.5 99.5,-886.5 "/><text text-anchor="start" x="38.5" y="-898.7" font-family="sans-serif" font-weight="bold" font-size="11.00">firstName</text><polyline fill="none" stroke="black" points="119.5,-886.5 252.5,-886.5 "/><text text-anchor="start" x="128.5" y="-898.7" font-family="sans-serif" font-weight="bold" font-size="11.00">string</text><polyline fill="none" stroke="black" points="272.5,-886.5 290.5,-886.5 "/><text text-anchor="start" x="37.29" y="-849.7" font-family="sans-serif" font-size="11.00">maxLength</text><text text-anchor="start" x="127.5" y="-849.7" font-family="sans-serif" font-size="11.00">10</text><text text-anchor="start" x="37.5" y="-802.7" font-family="sans-serif" font-size="11.00">description</text><text text-anchor="start" x="127.18" y="-802.7" font-family="sans-serif" font-size="11.00">The person&#39;s first name.</text><polygon fill="none" stroke="black" points="8,-772 8,-937 311,-937 311,-772 8,-772"/></g><!-- node6547&#45;&gt;node6548 --><g id="edge2" class="edge"><title>node6547&#45;&gt;node6548</title><path fill="none" stroke="black" d="M970.77,-1160.08C807.27,-1127.2 541.82,-1064.07 328.5,-967 312.18,-959.58 295.66,-950.68 279.66,-941.2"/><polygon fill="black" stroke="black" points="970.41,-1163.58 980.91,-1162.1 971.79,-1156.71 970.41,-1163.58"/></g><!-- node6549 --><g id="node4" class="node"><title>node6549</title><polygon fill="#f5f0e4" stroke="transparent" points="345.5,-795.5 345.5,-913.5 647.5,-913.5 647.5,-795.5 345.5,-795.5"/><polyline fill="none" stroke="black" points="366.5,-863.5 435.5,-863.5 "/><text text-anchor="start" x="375.5" y="-875.7" font-family="sans-serif" font-weight="bold" font-size="11.00">lastName</text><polyline fill="none" stroke="black" points="455.5,-863.5 588.5,-863.5 "/><text text-anchor="start" x="464.5" y="-875.7" font-family="sans-serif" font-weight="bold" font-size="11.00">string</text><polyline fill="none" stroke="black" points="608.5,-863.5 626.5,-863.5 "/><text text-anchor="start" x="374.4" y="-826.7" font-family="sans-serif" font-size="11.00">description</text><text text-anchor="start" x="463.48" y="-826.7" font-family="sans-serif" font-size="11.00">The person&#39;s last name.</text><polygon fill="none" stroke="black" points="345.5,-795.5 345.5,-913.5 647.5,-913.5 647.5,-795.5 345.5,-795.5"/></g><!-- node6547&#45;&gt;node6549 --><g id="edge3" class="edge"><title>node6547&#45;&gt;node6549</title><path fill="none" stroke="black" d="M971.66,-1121.21C881.04,-1079.84 764.33,-1023.8 664.5,-967 638.18,-952.03 610.47,-934.44 585.31,-917.72"/><polygon fill="black" stroke="black" points="970.35,-1124.46 980.9,-1125.42 973.25,-1118.09 970.35,-1124.46"/></g><!-- node6550 --><g id="node5" class="node"><title>node6550</title><polygon fill="#f5f0e4" stroke="transparent" points="681.5,-748.5 681.5,-960.5 1145.5,-960.5 1145.5,-748.5 681.5,-748.5"/><polyline fill="none" stroke="black" points="702.5,-910.5 771.5,-910.5 "/><text text-anchor="start" x="711.5" y="-922.7" font-family="sans-serif" font-weight="bold" font-size="11.00">age</text><polyline fill="none" stroke="black" points="791.5,-910.5 1086.5,-910.5 "/><text text-anchor="start" x="800.5" y="-922.7" font-family="sans-serif" font-weight="bold" font-size="11.00">integer</text><polyline fill="none" stroke="black" points="1106.5,-910.5 1124.5,-910.5 "/><text text-anchor="start" x="710.4" y="-873.7" font-family="sans-serif" font-size="11.00">description</text><text text-anchor="start" x="799.28" y="-873.7" font-family="sans-serif" font-size="11.00">Age in years which must be equal to or greater than zero.</text><text text-anchor="start" x="710.5" y="-826.7" font-family="sans-serif" font-size="11.00">minimum</text><text text-anchor="start" x="799.5" y="-826.7" font-family="sans-serif" font-size="11.00">0</text><text text-anchor="start" x="710.5" y="-779.7" font-family="sans-serif" font-size="11.00">maximum</text><text text-anchor="start" x="799.5" y="-779.7" font-family="sans-serif" font-size="11.00">200</text><polygon fill="none" stroke="black" points="681.5,-748.5 681.5,-960.5 1145.5,-960.5 1145.5,-748.5 681.5,-748.5"/></g><!-- node6547&#45;&gt;node6550 --><g id="edge4" class="edge"><title>node6547&#45;&gt;node6550</title><path fill="none" stroke="black" d="M1000.62,-993.89C994.43,-984.06 988.32,-974.35 982.38,-964.92"/><polygon fill="black" stroke="black" points="997.79,-995.97 1006.08,-1002.57 1003.72,-992.24 997.79,-995.97"/></g><!-- node6551 --><g id="node6" class="node"><title>node6551</title><polygon fill="#f5f0e4" stroke="transparent" points="1179.5,-767 1179.5,-942 1483.5,-942 1483.5,-767 1179.5,-767"/><polygon fill="#f5e2b8" stroke="transparent" points="1200.5,-886.5 1200.5,-920.5 1269.5,-920.5 1269.5,-886.5 1200.5,-886.5"/><polyline fill="none" stroke="black" points="1200.5,-886.5 1269.5,-886.5 "/><text text-anchor="start" x="1209.5" y="-901.2" font-family="sans-serif" font-weight="bold" font-size="11.00">salary</text><polygon fill="#f5e2b8" stroke="transparent" points="1289.5,-886.5 1289.5,-920.5 1397.5,-920.5 1397.5,-886.5 1289.5,-886.5"/><polyline fill="none" stroke="black" points="1289.5,-886.5 1397.5,-886.5 "/><text text-anchor="start" x="1298.5" y="-901.2" font-family="sans-serif" font-weight="bold" font-size="11.00">number1</text><polygon fill="#f5e2b8" stroke="transparent" points="1417.5,-886.5 1417.5,-920.5 1462.5,-920.5 1462.5,-886.5 1417.5,-886.5"/><polyline fill="none" stroke="black" points="1417.5,-886.5 1462.5,-886.5 "/><text text-anchor="start" x="1426.47" y="-902.9" font-family="sans-serif" font-weight="bold" font-size="12.00" fill="#ff0000">①</text><text text-anchor="start" x="1438.47" y="-902.9" font-family="sans-serif" font-size="11.00"> </text><text text-anchor="start" x="1441.53" y="-902.9" font-family="sans-serif" font-weight="bold" font-size="12.00" fill="#ff7200">②</text><polygon fill="#f5e2b8" stroke="transparent" points="1200.5,-834.5 1200.5,-866.5 1269.5,-866.5 1269.5,-834.5 1200.5,-834.5"/><text text-anchor="start" x="1208.4" y="-849.7" font-family="sans-serif" font-size="11.00">description</text><polygon fill="#f5e2b8" stroke="transparent" points="1289.5,-834.5 1289.5,-866.5 1397.5,-866.5 1397.5,-834.5 1289.5,-834.5"/><text text-anchor="start" x="1297.34" y="-849.7" font-family="sans-serif" font-size="11.00">Salary of a person.</text><polygon fill="#f5e2b8" stroke="transparent" points="1417.5,-834.5 1417.5,-866.5 1462.5,-866.5 1462.5,-834.5 1417.5,-834.5"/><text text-anchor="start" x="1425.5" y="-849.9" font-family="sans-serif" font-weight="bold" font-size="12.00" fill="#ff0000">④</text><text text-anchor="start" x="1208.5" y="-797.7" font-family="sans-serif" font-size="11.00">multipleOf</text><text text-anchor="start" x="1297.5" y="-797.7" font-family="sans-serif" font-size="11.00">2.0</text><polygon fill="none" stroke="black" points="1179.5,-767 1179.5,-942 1483.5,-942 1483.5,-767 1179.5,-767"/></g><!-- node6547&#45;&gt;node6551 --><g id="edge5" class="edge"><title>node6547&#45;&gt;node6551</title><path fill="none" stroke="black" d="M1244.37,-993.91C1254.75,-977.41 1264.91,-961.29 1274.4,-946.21"/><polygon fill="black" stroke="black" points="1241.28,-992.24 1238.92,-1002.57 1247.21,-995.97 1241.28,-992.24"/></g><!-- node6552 --><g id="node7" class="node"><title>node6552</title><polygon fill="#f5f0e4" stroke="transparent" points="1518,-746 1518,-963 1771,-963 1771,-746 1518,-746"/><polygon fill="#f5e2b8" stroke="transparent" points="1539.5,-907.5 1539.5,-941.5 1602.5,-941.5 1602.5,-907.5 1539.5,-907.5"/><polyline fill="none" stroke="black" points="1539.5,-907.5 1602.5,-907.5 "/><text text-anchor="start" x="1548.5" y="-922.2" font-family="sans-serif" font-weight="bold" font-size="11.00">role2</text><polygon fill="#f5e2b8" stroke="transparent" points="1622.5,-907.5 1622.5,-941.5 1700.5,-941.5 1700.5,-907.5 1622.5,-907.5"/><polyline fill="none" stroke="black" points="1622.5,-907.5 1700.5,-907.5 "/><text text-anchor="start" x="1631.24" y="-922.2" font-family="sans-serif" font-weight="bold" font-size="11.00">array[object]</text><polygon fill="#f5e2b8" stroke="transparent" points="1720.5,-907.5 1720.5,-941.5 1750.5,-941.5 1750.5,-907.5 1720.5,-907.5"/><polyline fill="none" stroke="black" points="1720.5,-907.5 1750.5,-907.5 "/><text text-anchor="start" x="1729.5" y="-923.9" font-family="sans-serif" font-weight="bold" font-size="12.00" fill="#ff7200">③</text><text text-anchor="start" x="1547.5" y="-870.7" font-family="sans-serif" font-size="11.00">minItems</text><text text-anchor="start" x="1630.5" y="-870.7" font-family="sans-serif" font-size="11.00">2</text><text text-anchor="start" x="1547.16" y="-823.7" font-family="sans-serif" font-size="11.00">maxItems</text><text text-anchor="start" x="1630.5" y="-823.7" font-family="sans-serif" font-size="11.00">10</text><text text-anchor="start" x="1547.5" y="-776.7" font-family="sans-serif" font-size="11.00">items</text><text text-anchor="start" x="1630.5" y="-776.7" font-family="sans-serif" font-size="11.00">object</text><polygon fill="none" stroke="black" points="1518,-746 1518,-963 1771,-963 1771,-746 1518,-746"/></g><!-- node6547&#45;&gt;node6552 --><g id="edge6" class="edge"><title>node6547&#45;&gt;node6552</title><path fill="none" stroke="black" d="M1273.26,-1105.56C1343.62,-1065.8 1427.72,-1016.1 1500.5,-967 1503.65,-964.88 1506.81,-962.71 1509.99,-960.51"/><polygon fill="black" stroke="black" points="1271.3,-1102.64 1264.31,-1110.6 1274.74,-1108.74 1271.3,-1102.64"/></g><!-- node6557 --><g id="node12" class="node"><title>node6557</title><polygon fill="#f5f0e4" stroke="transparent" points="1814.5,-795.5 1814.5,-913.5 2042.5,-913.5 2042.5,-795.5 1814.5,-795.5"/><polyline fill="none" stroke="black" points="1835.5,-863.5 1887.5,-863.5 "/><text text-anchor="start" x="1844.37" y="-875.7" font-family="sans-serif" font-weight="bold" font-size="11.00">gender</text><polyline fill="none" stroke="black" points="1907.5,-863.5 1983.5,-863.5 "/><text text-anchor="start" x="1916.46" y="-875.7" font-family="sans-serif" font-weight="bold" font-size="11.00">array[string]</text><polyline fill="none" stroke="black" points="2003.5,-863.5 2021.5,-863.5 "/><text text-anchor="start" x="1843.5" y="-826.7" font-family="sans-serif" font-size="11.00">items</text><text text-anchor="start" x="1915.5" y="-826.7" font-family="sans-serif" font-size="11.00">string</text><polygon fill="none" stroke="black" points="1814.5,-795.5 1814.5,-913.5 2042.5,-913.5 2042.5,-795.5 1814.5,-795.5"/></g><!-- node6547&#45;&gt;node6557 --><g id="edge7" class="edge"><title>node6547&#45;&gt;node6557</title><path fill="none" stroke="black" d="M1274.09,-1153.6C1413.27,-1118.77 1622.45,-1056.89 1788.5,-967 1813.5,-953.47 1838.52,-935.36 1860.34,-917.68"/><polygon fill="black" stroke="black" points="1273.06,-1150.25 1264.2,-1156.06 1274.74,-1157.05 1273.06,-1150.25"/></g><!-- node6553 --><g id="node8" class="node"><title>node6553</title><polygon fill="#f5f0e4" stroke="transparent" points="1529.5,-537 1529.5,-702 1749.5,-702 1749.5,-537 1529.5,-537"/><polyline fill="none" stroke="black" points="1550.5,-651.5 1619.5,-651.5 "/><text text-anchor="start" x="1559.5" y="-663.7" font-family="sans-serif" font-weight="bold" font-size="11.00">items</text><polyline fill="none" stroke="black" points="1639.5,-651.5 1690.5,-651.5 "/><text text-anchor="start" x="1648.5" y="-663.7" font-family="sans-serif" font-weight="bold" font-size="11.00">object</text><polyline fill="none" stroke="black" points="1710.5,-651.5 1728.5,-651.5 "/><text text-anchor="start" x="1558.4" y="-614.7" font-family="sans-serif" font-size="11.00">description</text><text text-anchor="start" x="1647.27" y="-614.7" font-family="sans-serif" font-size="11.00">class B</text><text text-anchor="start" x="1558.5" y="-567.7" font-family="sans-serif" font-size="11.00">properties</text><text text-anchor="start" x="1647.5" y="-567.7" font-family="sans-serif" font-size="11.00">object</text><polygon fill="none" stroke="black" points="1529.5,-537 1529.5,-702 1749.5,-702 1749.5,-537 1529.5,-537"/></g><!-- node6552&#45;&gt;node6553 --><g id="edge8" class="edge"><title>node6552&#45;&gt;node6553</title><path fill="none" stroke="black" d="M1641.89,-731.72C1641.7,-723.16 1641.52,-714.64 1641.34,-706.34"/><polygon fill="black" stroke="black" points="1638.39,-731.85 1642.1,-741.78 1645.39,-731.7 1638.39,-731.85"/></g><!-- node6554 --><g id="node9" class="node"><title>node6554</title><polygon fill="#f5f0e4" stroke="transparent" points="1528.5,-375 1528.5,-493 1750.5,-493 1750.5,-375 1528.5,-375"/><polyline fill="none" stroke="black" points="1549.5,-443 1615.5,-443 "/><text text-anchor="start" x="1558.04" y="-455.2" font-family="sans-serif" font-weight="bold" font-size="11.00">properties</text><polyline fill="none" stroke="black" points="1635.5,-443 1691.5,-443 "/><text text-anchor="start" x="1644.5" y="-455.2" font-family="sans-serif" font-weight="bold" font-size="11.00">object</text><polyline fill="none" stroke="black" points="1711.5,-443 1729.5,-443 "/><text text-anchor="start" x="1557.5" y="-406.2" font-family="sans-serif" font-size="11.00">b1</text><text text-anchor="start" x="1643.09" y="-406.2" font-family="sans-serif" font-size="11.00">[&quot;string&quot;]</text><polygon fill="none" stroke="black" points="1528.5,-375 1528.5,-493 1750.5,-493 1750.5,-375 1528.5,-375"/></g><!-- node6553&#45;&gt;node6554 --><g id="edge9" class="edge"><title>node6553&#45;&gt;node6554</title><path fill="none" stroke="black" d="M1639.5,-522.74C1639.5,-514.07 1639.5,-505.44 1639.5,-497.18"/><polygon fill="black" stroke="black" points="1636,-522.93 1639.5,-532.93 1643,-522.93 1636,-522.93"/></g><!-- node6555 --><g id="node10" class="node"><title>node6555</title><polygon fill="#f5f0e4" stroke="transparent" points="1533.5,-213 1533.5,-331 1745.5,-331 1745.5,-213 1533.5,-213"/><polyline fill="none" stroke="black" points="1554.5,-281 1592.5,-281 "/><text text-anchor="start" x="1563.5" y="-293.2" font-family="sans-serif" font-weight="bold" font-size="11.00">b1</text><polyline fill="none" stroke="black" points="1612.5,-281 1686.5,-281 "/><text text-anchor="start" x="1621.5" y="-293.2" font-family="sans-serif" font-weight="bold" font-size="11.00">[&quot;string&quot;]</text><polyline fill="none" stroke="black" points="1706.5,-281 1724.5,-281 "/><text text-anchor="start" x="1562.19" y="-244.2" font-family="sans-serif" font-size="11.00">allOf</text><text text-anchor="start" x="1620.46" y="-244.2" font-family="sans-serif" font-size="11.00">array[string]</text><polygon fill="none" stroke="black" points="1533.5,-213 1533.5,-331 1745.5,-331 1745.5,-213 1533.5,-213"/></g><!-- node6554&#45;&gt;node6555 --><g id="edge10" class="edge"><title>node6554&#45;&gt;node6555</title><path fill="none" stroke="black" d="M1639.5,-360.45C1639.5,-352 1639.5,-343.44 1639.5,-335.15"/><polygon fill="black" stroke="black" points="1636,-360.68 1639.5,-370.68 1643,-360.68 1636,-360.68"/></g><!-- node6556 --><g id="node11" class="node"><title>node6556</title><polygon fill="#f5f0e4" stroke="transparent" points="1526,-4 1526,-169 1753,-169 1753,-4 1526,-4"/><polyline fill="none" stroke="black" points="1547.5,-118.5 1598.5,-118.5 "/><text text-anchor="start" x="1556.5" y="-130.7" font-family="sans-serif" font-weight="bold" font-size="11.00">allOf</text><polyline fill="none" stroke="black" points="1618.5,-118.5 1694.5,-118.5 "/><text text-anchor="start" x="1627.46" y="-130.7" font-family="sans-serif" font-weight="bold" font-size="11.00">array[string]</text><polyline fill="none" stroke="black" points="1714.5,-118.5 1732.5,-118.5 "/><text text-anchor="start" x="1555.5" y="-81.7" font-family="sans-serif" font-size="11.00">Jude</text><text text-anchor="start" x="1626.5" y="-81.7" font-family="sans-serif" font-size="11.00">string</text><text text-anchor="start" x="1555.26" y="-34.7" font-family="sans-serif" font-size="11.00">Gunjan</text><text text-anchor="start" x="1626.5" y="-34.7" font-family="sans-serif" font-size="11.00">string</text><polygon fill="none" stroke="black" points="1526,-4 1526,-169 1753,-169 1753,-4 1526,-4"/></g><!-- node6555&#45;&gt;node6556 --><g id="edge11" class="edge"><title>node6555&#45;&gt;node6556</title><path fill="none" stroke="black" d="M1639.5,-198.8C1639.5,-190.44 1639.5,-181.85 1639.5,-173.32"/><polygon fill="black" stroke="black" points="1636,-198.88 1639.5,-208.88 1643,-198.88 1636,-198.88"/></g><!-- node6558 --><g id="node13" class="node"><title>node6558</title><polygon fill="#f5f0e4" stroke="transparent" points="1784,-560.5 1784,-678.5 2083,-678.5 2083,-560.5 1784,-560.5"/><polyline fill="none" stroke="black" points="1805.5,-628.5 1849.5,-628.5 "/><text text-anchor="start" x="1814.36" y="-640.7" font-family="sans-serif" font-weight="bold" font-size="11.00">items</text><polyline fill="none" stroke="black" points="1869.5,-628.5 2024.5,-628.5 "/><text text-anchor="start" x="1878.5" y="-640.7" font-family="sans-serif" font-weight="bold" font-size="11.00">string</text><polyline fill="none" stroke="black" points="2044.5,-628.5 2062.5,-628.5 "/><text text-anchor="start" x="1813.5" y="-591.7" font-family="sans-serif" font-size="11.00">enum</text><text text-anchor="start" x="1877.28" y="-591.7" font-family="sans-serif" font-size="11.00">[&quot;male&quot; &quot;female&quot; &quot;others&quot; &quot;x&quot;]</text><polygon fill="none" stroke="black" points="1784,-560.5 1784,-678.5 2083,-678.5 2083,-560.5 1784,-560.5"/></g><!-- node6557&#45;&gt;node6558 --><g id="edge12" class="edge"><title>node6557&#45;&gt;node6558</title><path fill="none" stroke="black" d="M1930.05,-781.32C1930.73,-749.8 1931.51,-713.19 1932.16,-682.86"/><polygon fill="black" stroke="black" points="1926.55,-781.29 1929.83,-791.37 1933.55,-781.44 1926.55,-781.29"/></g></g></svg>