<svg width="1498pt" height="942pt" viewBox="0.00 0.00 1497.50 942.00" xmlns="http://www.w3.org/2000/svg" xmlns:xlink="http://www.w3.org/1999/xlink"><g id="graph0" class="graph" transform="scale(1 1) rotate(0) translate(4 938)"><title>%3</title><polygon fill="white" stroke="transparent" points="-4,4 -4,-938 1493.5,-938 1493.5,4 -4,4"/><!-- node8098 --><g id="node1" class="node"><title>node8098</title><polygon fill="#f5f0e4" stroke="transparent" points="694,-829 694,-930 971,-930 971,-829 694,-829"/><polyline fill="none" stroke="black" points="695.5,-907.5 960.5,-907.5 "/><text text-anchor="start" x="791.31" y="-914.7" font-family="sans-serif" font-size="11.00">object: &#160;Person</text><polyline fill="none" stroke="black" points="960.5,-907.5 970.5,-907.5 "/><text text-anchor="start" x="699.5" y="-894.7" font-family="sans-serif" font-size="11.00"> &#160;$id: &#160;https://example.com/person.schema.json</text><text text-anchor="start" x="699.3" y="-875.7" font-family="sans-serif" font-size="11.00"> &#160;$schema: &#160;http://json&#45;schema.org/draft&#45;07/schema#</text><polyline fill="none" stroke="black" points="695.5,-848.5 960.5,-848.5 "/><text text-anchor="start" x="700.5" y="-855.7" font-family="sans-serif" font-size="11.00"> &#160;properties: &#160;object</text><polyline fill="none" stroke="black" points="960.5,-848.5 970.5,-848.5 "/><text text-anchor="start" x="699.5" y="-835.7" font-family="sans-serif" font-size="11.00"> </text><polygon fill="none" stroke="black" points="694,-829 694,-930 971,-930 971,-829 694,-829"/></g><!-- node8099 --><g id="node2" class="node"><title>node8099</title><polygon fill="#f5f0e4" stroke="transparent" points="758,-619 758,-785 907,-785 907,-619 758,-619"/><polyline fill="none" stroke="black" points="759.5,-763 876.5,-763 "/><text text-anchor="start" x="774.28" y="-770.2" font-family="sans-serif" font-size="11.00">object: &#160;properties</text><polyline fill="none" stroke="black" points="876.5,-763 906.5,-763 "/><text text-anchor="start" x="763.5" y="-750.2" font-family="sans-serif" font-size="11.00"> &#160;firstName: &#160;string</text><text text-anchor="start" x="763.5" y="-731.2" font-family="sans-serif" font-size="11.00"> &#160;lastName: &#160;string</text><text text-anchor="start" x="763.5" y="-712.2" font-family="sans-serif" font-size="11.00"> &#160;age: &#160;integer</text><polygon fill="#f5e2b8" stroke="transparent" points="759.5,-683 759.5,-706 876.5,-706 876.5,-683 759.5,-683"/><text text-anchor="start" x="763.5" y="-691.2" font-family="sans-serif" font-size="11.00"> &#160;salary: &#160;number1</text><polygon fill="#f5e2b8" stroke="transparent" points="876.5,-683 876.5,-706 906.5,-706 906.5,-683 876.5,-683"/><text text-anchor="start" x="880.5" y="-693.2" font-family="sans-serif" font-size="11.00">①②</text><polygon fill="#f5e2b8" stroke="transparent" points="759.5,-660 759.5,-683 876.5,-683 876.5,-660 759.5,-660"/><text text-anchor="start" x="763.5" y="-668.2" font-family="sans-serif" font-size="11.00"> &#160;role2: &#160;array[object]</text><polygon fill="#f5e2b8" stroke="transparent" points="876.5,-660 876.5,-683 906.5,-683 906.5,-660 876.5,-660"/><text text-anchor="start" x="880.5" y="-670.2" font-family="sans-serif" font-size="11.00">③</text><polyline fill="none" stroke="black" points="759.5,-639 876.5,-639 "/><text text-anchor="start" x="764.2" y="-646.2" font-family="sans-serif" font-size="11.00"> &#160;gender: &#160;array[string]</text><polyline fill="none" stroke="black" points="876.5,-639 906.5,-639 "/><text text-anchor="start" x="763.5" y="-626.2" font-family="sans-serif" font-size="11.00"> </text><polygon fill="none" stroke="black" points="758,-619 758,-785 907,-785 907,-619 758,-619"/></g><!-- node8098&#45;&gt;node8099 --><g id="edge1" class="edge"><title>node8098&#45;&gt;node8099</title><path fill="none" stroke="black" d="M832.5,-814.62C832.5,-806.37 832.5,-797.81 832.5,-789.27"/><polygon fill="black" stroke="black" points="829,-814.89 832.5,-824.89 836,-814.89 829,-814.89"/></g><!-- node8100 --><g id="node3" class="node"><title>node8100</title><polygon fill="#f5f0e4" stroke="transparent" points="8,-481.5 8,-563.5 215,-563.5 215,-481.5 8,-481.5"/><polyline fill="none" stroke="black" points="9.5,-541.5 204.5,-541.5 "/><text text-anchor="start" x="65.44" y="-548.7" font-family="sans-serif" font-size="11.00">string: &#160;firstName</text><polyline fill="none" stroke="black" points="204.5,-541.5 214.5,-541.5 "/><text text-anchor="start" x="13.5" y="-528.7" font-family="sans-serif" font-size="11.00"> &#160;maxLength: &#160;10</text><polyline fill="none" stroke="black" points="9.5,-501.5 204.5,-501.5 "/><text text-anchor="start" x="14.03" y="-508.7" font-family="sans-serif" font-size="11.00"> &#160;description: &#160;The person&#39;s first name.</text><polyline fill="none" stroke="black" points="204.5,-501.5 214.5,-501.5 "/><text text-anchor="start" x="13.5" y="-488.7" font-family="sans-serif" font-size="11.00"> </text><polygon fill="none" stroke="black" points="8,-481.5 8,-563.5 215,-563.5 215,-481.5 8,-481.5"/></g><!-- node8099&#45;&gt;node8100 --><g id="edge2" class="edge"><title>node8099&#45;&gt;node8100</title><path fill="none" stroke="black" d="M739.55,-688.99C619.96,-672 406.73,-636.44 231.5,-579 221.47,-575.71 211.16,-571.81 201.01,-567.63"/><polygon fill="black" stroke="black" points="739.38,-692.5 749.77,-690.43 740.35,-685.57 739.38,-692.5"/></g><!-- node8101 --><g id="node4" class="node"><title>node8101</title><polygon fill="#f5f0e4" stroke="transparent" points="249,-491 249,-554 456,-554 456,-491 249,-491"/><polyline fill="none" stroke="black" points="250.5,-531.5 445.5,-531.5 "/><text text-anchor="start" x="306.74" y="-538.7" font-family="sans-serif" font-size="11.00">string: &#160;lastName</text><polyline fill="none" stroke="black" points="445.5,-531.5 455.5,-531.5 "/><polyline fill="none" stroke="black" points="250.5,-510.5 445.5,-510.5 "/><text text-anchor="start" x="255.34" y="-517.7" font-family="sans-serif" font-size="11.00"> &#160;description: &#160;The person&#39;s last name.</text><polyline fill="none" stroke="black" points="445.5,-510.5 455.5,-510.5 "/><text text-anchor="start" x="254.5" y="-497.7" font-family="sans-serif" font-size="11.00"> </text><polygon fill="none" stroke="black" points="249,-491 249,-554 456,-554 456,-491 249,-491"/></g><!-- node8099&#45;&gt;node8101 --><g id="edge3" class="edge"><title>node8099&#45;&gt;node8101</title><path fill="none" stroke="black" d="M740.06,-672.66C666.75,-649.48 562.09,-614.78 472.5,-579 456.62,-572.66 439.82,-565.31 423.98,-558.07"/><polygon fill="black" stroke="black" points="739.15,-676.05 749.74,-675.72 741.25,-669.37 739.15,-676.05"/></g><!-- node8102 --><g id="node5" class="node"><title>node8102</title><polygon fill="#f5f0e4" stroke="transparent" points="490,-472 490,-573 857,-573 857,-472 490,-472"/><polyline fill="none" stroke="black" points="491.5,-550.5 846.5,-550.5 "/><text text-anchor="start" x="638.42" y="-557.7" font-family="sans-serif" font-size="11.00">integer: &#160;age</text><polyline fill="none" stroke="black" points="846.5,-550.5 856.5,-550.5 "/><text text-anchor="start" x="495.35" y="-537.7" font-family="sans-serif" font-size="11.00"> &#160;description: &#160;Age in years which must be equal to or greater than zero.</text><text text-anchor="start" x="495.5" y="-518.7" font-family="sans-serif" font-size="11.00"> &#160;minimum: &#160;0</text><polyline fill="none" stroke="black" points="491.5,-491.5 846.5,-491.5 "/><text text-anchor="start" x="496.5" y="-498.7" font-family="sans-serif" font-size="11.00"> &#160;maximum: &#160;200</text><polyline fill="none" stroke="black" points="846.5,-491.5 856.5,-491.5 "/><text text-anchor="start" x="495.5" y="-478.7" font-family="sans-serif" font-size="11.00"> </text><polygon fill="none" stroke="black" points="490,-472 490,-573 857,-573 857,-472 490,-472"/></g><!-- node8099&#45;&gt;node8102 --><g id="edge4" class="edge"><title>node8099&#45;&gt;node8102</title><path fill="none" stroke="black" d="M748.56,-607.29C739.27,-596.93 730.07,-586.65 721.45,-577.03"/><polygon fill="black" stroke="black" points="746.05,-609.74 755.33,-614.85 751.26,-605.07 746.05,-609.74"/></g><!-- node8103 --><g id="node6" class="node"><title>node8103</title><polygon fill="#f5f0e4" stroke="transparent" points="891.5,-479.5 891.5,-565.5 1093.5,-565.5 1093.5,-479.5 891.5,-479.5"/><polygon fill="#f5e2b8" stroke="transparent" points="892.5,-539.5 892.5,-564.5 1060.5,-564.5 1060.5,-539.5 892.5,-539.5"/><polyline fill="none" stroke="black" points="892.5,-539.5 1060.5,-539.5 "/><text text-anchor="start" x="935.54" y="-548.7" font-family="sans-serif" font-size="11.00">number1: &#160;salary</text><polygon fill="#f5e2b8" stroke="transparent" points="1060.5,-539.5 1060.5,-564.5 1092.5,-564.5 1092.5,-539.5 1060.5,-539.5"/><polyline fill="none" stroke="black" points="1060.5,-539.5 1092.5,-539.5 "/><text text-anchor="start" x="1065.5" y="-550.7" font-family="sans-serif" font-size="11.00">①②</text><text text-anchor="start" x="896.1" y="-526.7" font-family="sans-serif" font-size="11.00"> &#160;description: &#160;Salary of a person.</text><polyline fill="none" stroke="black" points="892.5,-499.5 1060.5,-499.5 "/><text text-anchor="start" x="897.5" y="-506.7" font-family="sans-serif" font-size="11.00"> &#160;multipleOf: &#160;2.0</text><polyline fill="none" stroke="black" points="1060.5,-499.5 1092.5,-499.5 "/><text text-anchor="start" x="896.5" y="-486.7" font-family="sans-serif" font-size="11.00"> </text><polygon fill="none" stroke="black" points="891.5,-479.5 891.5,-565.5 1093.5,-565.5 1093.5,-479.5 891.5,-479.5"/></g><!-- node8099&#45;&gt;node8103 --><g id="edge5" class="edge"><title>node8099&#45;&gt;node8103</title><path fill="none" stroke="black" d="M917.05,-607.2C928.76,-594.22 940.33,-581.38 950.76,-569.8"/><polygon fill="black" stroke="black" points="914.25,-605.08 910.16,-614.85 919.45,-609.77 914.25,-605.08"/></g><!-- node8104 --><g id="node7" class="node"><title>node8104</title><polygon fill="#f5f0e4" stroke="transparent" points="1128,-470 1128,-575 1255,-575 1255,-470 1128,-470"/><polygon fill="#f5e2b8" stroke="transparent" points="1129.5,-548.5 1129.5,-573.5 1233.5,-573.5 1233.5,-548.5 1129.5,-548.5"/><polyline fill="none" stroke="black" points="1129.5,-548.5 1233.5,-548.5 "/><text text-anchor="start" x="1134.42" y="-557.7" font-family="sans-serif" font-size="11.00">array[object]: &#160;role2</text><polygon fill="#f5e2b8" stroke="transparent" points="1233.5,-548.5 1233.5,-573.5 1254.5,-573.5 1254.5,-548.5 1233.5,-548.5"/><polyline fill="none" stroke="black" points="1233.5,-548.5 1254.5,-548.5 "/><text text-anchor="start" x="1238.5" y="-559.7" font-family="sans-serif" font-size="11.00">③</text><text text-anchor="start" x="1133.5" y="-535.7" font-family="sans-serif" font-size="11.00"> &#160;minItems: &#160;2</text><text text-anchor="start" x="1133.5" y="-516.7" font-family="sans-serif" font-size="11.00"> &#160;maxItems: &#160;10</text><polyline fill="none" stroke="black" points="1129.5,-489.5 1233.5,-489.5 "/><text text-anchor="start" x="1134.5" y="-496.7" font-family="sans-serif" font-size="11.00"> &#160;items: &#160;object</text><polyline fill="none" stroke="black" points="1233.5,-489.5 1254.5,-489.5 "/><text text-anchor="start" x="1133.5" y="-476.7" font-family="sans-serif" font-size="11.00"> </text><polygon fill="none" stroke="black" points="1128,-470 1128,-575 1255,-575 1255,-470 1128,-470"/></g><!-- node8099&#45;&gt;node8104 --><g id="edge6" class="edge"><title>node8099&#45;&gt;node8104</title><path fill="none" stroke="black" d="M924.44,-665.73C979.62,-643.32 1050.5,-612.33 1110.5,-579 1113.63,-577.26 1116.79,-575.43 1119.96,-573.55"/><polygon fill="black" stroke="black" points="922.99,-662.54 915.02,-669.53 925.61,-669.03 922.99,-662.54"/></g><!-- node8109 --><g id="node12" class="node"><title>node8109</title><polygon fill="#f5f0e4" stroke="transparent" points="1308,-491 1308,-554 1431,-554 1431,-491 1308,-491"/><polyline fill="none" stroke="black" points="1309.5,-531.5 1420.5,-531.5 "/><text text-anchor="start" x="1314.25" y="-538.7" font-family="sans-serif" font-size="11.00">array[string]: &#160;gender</text><polyline fill="none" stroke="black" points="1420.5,-531.5 1430.5,-531.5 "/><polyline fill="none" stroke="black" points="1309.5,-510.5 1420.5,-510.5 "/><text text-anchor="start" x="1314.5" y="-517.7" font-family="sans-serif" font-size="11.00"> &#160;items: &#160;string</text><polyline fill="none" stroke="black" points="1420.5,-510.5 1430.5,-510.5 "/><text text-anchor="start" x="1313.5" y="-497.7" font-family="sans-serif" font-size="11.00"> </text><polygon fill="none" stroke="black" points="1308,-491 1308,-554 1431,-554 1431,-491 1308,-491"/></g><!-- node8099&#45;&gt;node8109 --><g id="edge7" class="edge"><title>node8099&#45;&gt;node8109</title><path fill="none" stroke="black" d="M925.21,-682.36C1015.83,-662.52 1156.67,-627.3 1272.5,-579 1286.56,-573.14 1301.11,-565.65 1314.54,-558.09"/><polygon fill="black" stroke="black" points="924.26,-678.99 915.23,-684.53 925.75,-685.83 924.26,-678.99"/></g><!-- node8105 --><g id="node8" class="node"><title>node8105</title><polygon fill="#f5f0e4" stroke="transparent" points="1120,-344 1120,-426 1243,-426 1243,-344 1120,-344"/><polyline fill="none" stroke="black" points="1121.5,-404 1232.5,-404 "/><text text-anchor="start" x="1144.6" y="-411.2" font-family="sans-serif" font-size="11.00">object: &#160;items</text><polyline fill="none" stroke="black" points="1232.5,-404 1242.5,-404 "/><text text-anchor="start" x="1125.03" y="-391.2" font-family="sans-serif" font-size="11.00"> &#160;description: &#160;class B</text><polyline fill="none" stroke="black" points="1121.5,-364 1232.5,-364 "/><text text-anchor="start" x="1126.5" y="-371.2" font-family="sans-serif" font-size="11.00"> &#160;properties: &#160;object</text><polyline fill="none" stroke="black" points="1232.5,-364 1242.5,-364 "/><text text-anchor="start" x="1125.5" y="-351.2" font-family="sans-serif" font-size="11.00"> </text><polygon fill="none" stroke="black" points="1120,-344 1120,-426 1243,-426 1243,-344 1120,-344"/></g><!-- node8104&#45;&gt;node8105 --><g id="edge8" class="edge"><title>node8104&#45;&gt;node8105</title><path fill="none" stroke="black" d="M1186.65,-455.79C1186.01,-447.05 1185.36,-438.27 1184.75,-430.02"/><polygon fill="black" stroke="black" points="1183.18,-456.28 1187.4,-466 1190.16,-455.77 1183.18,-456.28"/></g><!-- node8106 --><g id="node9" class="node"><title>node8106</title><polygon fill="#f5f0e4" stroke="transparent" points="1127,-237 1127,-300 1236,-300 1236,-237 1127,-237"/><polyline fill="none" stroke="black" points="1128.5,-277.5 1225.5,-277.5 "/><text text-anchor="start" x="1133.28" y="-284.7" font-family="sans-serif" font-size="11.00">object: &#160;properties</text><polyline fill="none" stroke="black" points="1225.5,-277.5 1235.5,-277.5 "/><polyline fill="none" stroke="black" points="1128.5,-256.5 1225.5,-256.5 "/><text text-anchor="start" x="1133.5" y="-263.7" font-family="sans-serif" font-size="11.00"> &#160;b1: &#160;[&quot;string&quot;]</text><polyline fill="none" stroke="black" points="1225.5,-256.5 1235.5,-256.5 "/><text text-anchor="start" x="1132.5" y="-243.7" font-family="sans-serif" font-size="11.00"> </text><polygon fill="none" stroke="black" points="1127,-237 1127,-300 1236,-300 1236,-237 1127,-237"/></g><!-- node8105&#45;&gt;node8106 --><g id="edge9" class="edge"><title>node8105&#45;&gt;node8106</title><path fill="none" stroke="black" d="M1181.5,-329.61C1181.5,-320.92 1181.5,-312.13 1181.5,-304.06"/><polygon fill="black" stroke="black" points="1178,-329.73 1181.5,-339.73 1185,-329.73 1178,-329.73"/></g><!-- node8107 --><g id="node10" class="node"><title>node8107</title><polygon fill="#f5f0e4" stroke="transparent" points="1123,-130 1123,-193 1240,-193 1240,-130 1123,-130"/><polyline fill="none" stroke="black" points="1124.5,-170.5 1229.5,-170.5 "/><text text-anchor="start" x="1145.89" y="-177.7" font-family="sans-serif" font-size="11.00">[&quot;string&quot;]: &#160;b1</text><polyline fill="none" stroke="black" points="1229.5,-170.5 1239.5,-170.5 "/><polyline fill="none" stroke="black" points="1124.5,-149.5 1229.5,-149.5 "/><text text-anchor="start" x="1129.01" y="-156.7" font-family="sans-serif" font-size="11.00"> &#160;allOf: &#160;array[string]</text><polyline fill="none" stroke="black" points="1229.5,-149.5 1239.5,-149.5 "/><text text-anchor="start" x="1128.5" y="-136.7" font-family="sans-serif" font-size="11.00"> </text><polygon fill="none" stroke="black" points="1123,-130 1123,-193 1240,-193 1240,-130 1123,-130"/></g><!-- node8106&#45;&gt;node8107 --><g id="edge10" class="edge"><title>node8106&#45;&gt;node8107</title><path fill="none" stroke="black" d="M1181.5,-222.62C1181.5,-214.09 1181.5,-205.29 1181.5,-197.14"/><polygon fill="black" stroke="black" points="1178,-222.83 1181.5,-232.83 1185,-222.83 1178,-222.83"/></g><!-- node8108 --><g id="node11" class="node"><title>node8108</title><polygon fill="#f5f0e4" stroke="transparent" points="1126,-4 1126,-86 1237,-86 1237,-4 1126,-4"/><polyline fill="none" stroke="black" points="1127.5,-64 1226.5,-64 "/><text text-anchor="start" x="1132.07" y="-71.2" font-family="sans-serif" font-size="11.00">array[string]: &#160;allOf</text><polyline fill="none" stroke="black" points="1226.5,-64 1236.5,-64 "/><text text-anchor="start" x="1131.5" y="-51.2" font-family="sans-serif" font-size="11.00"> &#160;Jude: &#160;string</text><polyline fill="none" stroke="black" points="1127.5,-24 1226.5,-24 "/><text text-anchor="start" x="1132.5" y="-31.2" font-family="sans-serif" font-size="11.00"> &#160;Gunjan: &#160;string</text><polyline fill="none" stroke="black" points="1226.5,-24 1236.5,-24 "/><text text-anchor="start" x="1131.5" y="-11.2" font-family="sans-serif" font-size="11.00"> </text><polygon fill="none" stroke="black" points="1126,-4 1126,-86 1237,-86 1237,-4 1126,-4"/></g><!-- node8107&#45;&gt;node8108 --><g id="edge11" class="edge"><title>node8107&#45;&gt;node8108</title><path fill="none" stroke="black" d="M1181.5,-115.56C1181.5,-107.26 1181.5,-98.59 1181.5,-90.3"/><polygon fill="black" stroke="black" points="1178,-115.84 1181.5,-125.84 1185,-115.84 1178,-115.84"/></g><!-- node8110 --><g id="node13" class="node"><title>node8110</title><polygon fill="#f5f0e4" stroke="transparent" points="1277.5,-353.5 1277.5,-416.5 1481.5,-416.5 1481.5,-353.5 1277.5,-353.5"/><polyline fill="none" stroke="black" points="1278.5,-394 1470.5,-394 "/><text text-anchor="start" x="1343.33" y="-401.2" font-family="sans-serif" font-size="11.00">string: &#160;items</text><polyline fill="none" stroke="black" points="1470.5,-394 1480.5,-394 "/><polyline fill="none" stroke="black" points="1278.5,-373 1470.5,-373 "/><text text-anchor="start" x="1283.38" y="-380.2" font-family="sans-serif" font-size="11.00"> &#160;enum: &#160;[&quot;male&quot; &quot;female&quot; &quot;others&quot; &quot;x&quot;]</text><polyline fill="none" stroke="black" points="1470.5,-373 1480.5,-373 "/><text text-anchor="start" x="1282.5" y="-360.2" font-family="sans-serif" font-size="11.00"> </text><polygon fill="none" stroke="black" points="1277.5,-353.5 1277.5,-416.5 1481.5,-416.5 1481.5,-353.5 1277.5,-353.5"/></g><!-- node8109&#45;&gt;node8110 --><g id="edge12" class="edge"><title>node8109&#45;&gt;node8110</title><path fill="none" stroke="black" d="M1372.79,-476.88C1374.13,-458.7 1375.66,-438 1376.92,-420.95"/><polygon fill="black" stroke="black" points="1369.29,-476.73 1372.05,-486.96 1376.28,-477.24 1369.29,-476.73"/></g></g></svg>