<svg width="1915pt" height="582pt" viewBox="0.00 0.00 1915.13 582.00" xmlns="http://www.w3.org/2000/svg" xmlns:xlink="http://www.w3.org/1999/xlink"><g id="graph0" class="graph" transform="scale(1 1) rotate(0) translate(4 578)"><title>%3</title><polygon fill="white" stroke="transparent" points="-4,4 -4,-578 1911.13,-578 1911.13,4 -4,4"/><!-- node12170 --><g id="node1" class="node"><title>node12170</title><path fill="#f5f0e4" stroke="black" d="M899.12,-574C899.12,-574 681.79,-574 681.79,-574 675.79,-574 669.79,-568 669.79,-562 669.79,-562 669.79,-538 669.79,-538 669.79,-532 675.79,-526 681.79,-526 681.79,-526 899.12,-526 899.12,-526 905.12,-526 911.12,-532 911.12,-538 911.12,-538 911.12,-562 911.12,-562 911.12,-568 905.12,-574 899.12,-574"/><text text-anchor="middle" x="790.46" y="-562" font-family="sans-serif" font-size="10.00">:$id https://example.com/person.schema.json</text><text text-anchor="middle" x="790.46" y="-552" font-family="sans-serif" font-size="10.00">:$schema http://json&#45;schema.org/draft&#45;07/schema#</text><text text-anchor="middle" x="790.46" y="-542" font-family="sans-serif" font-size="10.00">:title Person</text><text text-anchor="middle" x="790.46" y="-532" font-family="sans-serif" font-size="10.00">:type object</text></g><!-- node12171 --><g id="node2" class="node"><title>node12171</title><path fill="#dbdad6" stroke="black" d="M810.2,-490C810.2,-490 770.71,-490 770.71,-490 764.71,-490 758.71,-484 758.71,-478 758.71,-478 758.71,-466 758.71,-466 758.71,-460 764.71,-454 770.71,-454 770.71,-454 810.2,-454 810.2,-454 816.2,-454 822.2,-460 822.2,-466 822.2,-466 822.2,-478 822.2,-478 822.2,-484 816.2,-490 810.2,-490"/><text text-anchor="middle" x="790.46" y="-469" font-family="sans-serif" font-size="10.00">:properties</text></g><!-- node12170&#45;&gt;node12171 --><g id="edge1" class="edge"><title>node12170&#45;&gt;node12171</title><path fill="none" stroke="black" d="M790.46,-525.78C790.46,-517.68 790.46,-508.52 790.46,-500.12"/><polygon fill="black" stroke="black" points="793.96,-500.04 790.46,-490.04 786.96,-500.04 793.96,-500.04"/></g><!-- node12172 --><g id="node3" class="node"><title>node12172</title><path fill="#dbdad6" stroke="black" d="M191.02,-418C191.02,-418 153.89,-418 153.89,-418 147.89,-418 141.89,-412 141.89,-406 141.89,-406 141.89,-394 141.89,-394 141.89,-388 147.89,-382 153.89,-382 153.89,-382 191.02,-382 191.02,-382 197.02,-382 203.02,-388 203.02,-394 203.02,-394 203.02,-406 203.02,-406 203.02,-412 197.02,-418 191.02,-418"/><text text-anchor="middle" x="172.46" y="-397" font-family="sans-serif" font-size="10.00">:firstName</text></g><!-- node12171&#45;&gt;node12172 --><g id="edge2" class="edge"><title>node12171&#45;&gt;node12172</title><path fill="none" stroke="black" d="M758.53,-467.38C654.99,-455.66 328.53,-418.68 213.25,-405.62"/><polygon fill="black" stroke="black" points="213.42,-402.12 203.09,-404.47 212.63,-409.07 213.42,-402.12"/></g><!-- node12176 --><g id="node7" class="node"><title>node12176</title><path fill="#dbdad6" stroke="black" d="M412.97,-418C412.97,-418 375.94,-418 375.94,-418 369.94,-418 363.94,-412 363.94,-406 363.94,-406 363.94,-394 363.94,-394 363.94,-388 369.94,-382 375.94,-382 375.94,-382 412.97,-382 412.97,-382 418.97,-382 424.97,-388 424.97,-394 424.97,-394 424.97,-406 424.97,-406 424.97,-412 418.97,-418 412.97,-418"/><text text-anchor="middle" x="394.46" y="-397" font-family="sans-serif" font-size="10.00">:lastName</text></g><!-- node12171&#45;&gt;node12176 --><g id="edge3" class="edge"><title>node12171&#45;&gt;node12176</title><path fill="none" stroke="black" d="M758.72,-465.39C687.32,-452.77 514.12,-422.15 435.04,-408.17"/><polygon fill="black" stroke="black" points="435.43,-404.69 424.98,-406.4 434.22,-411.58 435.43,-404.69"/></g><!-- node12179 --><g id="node10" class="node"><title>node12179</title><path fill="#dbdad6" stroke="black" d="M704.46,-418C704.46,-418 674.46,-418 674.46,-418 668.46,-418 662.46,-412 662.46,-406 662.46,-406 662.46,-394 662.46,-394 662.46,-388 668.46,-382 674.46,-382 674.46,-382 704.46,-382 704.46,-382 710.46,-382 716.46,-388 716.46,-394 716.46,-394 716.46,-406 716.46,-406 716.46,-412 710.46,-418 704.46,-418"/><text text-anchor="middle" x="689.46" y="-397" font-family="sans-serif" font-size="10.00">:age</text></g><!-- node12171&#45;&gt;node12179 --><g id="edge4" class="edge"><title>node12171&#45;&gt;node12179</title><path fill="none" stroke="black" d="M765.75,-453.88C752.79,-444.89 736.73,-433.76 722.69,-424.03"/><polygon fill="black" stroke="black" points="724.47,-421.01 714.26,-418.19 720.48,-426.76 724.47,-421.01"/></g><!-- node12184 --><g id="node15" class="node"><title>node12184</title><path fill="#dbdad6" stroke="black" d="M960.46,-418C960.46,-418 930.46,-418 930.46,-418 924.46,-418 918.46,-412 918.46,-406 918.46,-406 918.46,-394 918.46,-394 918.46,-388 924.46,-382 930.46,-382 930.46,-382 960.46,-382 960.46,-382 966.46,-382 972.46,-388 972.46,-394 972.46,-394 972.46,-406 972.46,-406 972.46,-412 966.46,-418 960.46,-418"/><text text-anchor="middle" x="945.46" y="-397" font-family="sans-serif" font-size="10.00">:salary</text></g><!-- node12171&#45;&gt;node12184 --><g id="edge5" class="edge"><title>node12171&#45;&gt;node12184</title><path fill="none" stroke="black" d="M822.2,-456.67C847.44,-445.27 882.77,-429.31 909.14,-417.4"/><polygon fill="black" stroke="black" points="910.74,-420.52 918.41,-413.21 907.86,-414.14 910.74,-420.52"/><text text-anchor="start" x="890.52" y="-419.81" font-family="sans-serif" font-weight="bold" font-size="12.00" fill="#ff0000">①</text><text text-anchor="start" x="902.52" y="-419.81" font-family="sans-serif" font-size="14.00"> </text><text text-anchor="start" x="906.41" y="-419.81" font-family="sans-serif" font-weight="bold" font-size="12.00" fill="#ff7200">②</text></g><!-- node12188 --><g id="node19" class="node"><title>node12188</title><path fill="#dbdad6" stroke="black" d="M1322.46,-418C1322.46,-418 1292.46,-418 1292.46,-418 1286.46,-418 1280.46,-412 1280.46,-406 1280.46,-406 1280.46,-394 1280.46,-394 1280.46,-388 1286.46,-382 1292.46,-382 1292.46,-382 1322.46,-382 1322.46,-382 1328.46,-382 1334.46,-388 1334.46,-394 1334.46,-394 1334.46,-406 1334.46,-406 1334.46,-412 1328.46,-418 1322.46,-418"/><text text-anchor="middle" x="1307.46" y="-397" font-family="sans-serif" font-size="10.00">:role2</text></g><!-- node12171&#45;&gt;node12188 --><g id="edge6" class="edge"><title>node12171&#45;&gt;node12188</title><path fill="none" stroke="black" d="M822.41,-466.67C913.32,-454.36 1173.12,-419.19 1270.23,-406.04"/><polygon fill="black" stroke="black" points="1270.74,-409.5 1280.18,-404.69 1269.8,-402.57 1270.74,-409.5"/><text text-anchor="start" x="1268.18" y="-412.89" font-family="sans-serif" font-weight="bold" font-size="12.00" fill="#ff7200">③</text></g><!-- node12203 --><g id="node34" class="node"><title>node12203</title><path fill="#dbdad6" stroke="black" d="M1618.46,-418C1618.46,-418 1588.46,-418 1588.46,-418 1582.46,-418 1576.46,-412 1576.46,-406 1576.46,-406 1576.46,-394 1576.46,-394 1576.46,-388 1582.46,-382 1588.46,-382 1588.46,-382 1618.46,-382 1618.46,-382 1624.46,-382 1630.46,-388 1630.46,-394 1630.46,-394 1630.46,-406 1630.46,-406 1630.46,-412 1624.46,-418 1618.46,-418"/><text text-anchor="middle" x="1603.46" y="-397" font-family="sans-serif" font-size="10.00">:gender</text></g><!-- node12171&#45;&gt;node12203 --><g id="edge7" class="edge"><title>node12171&#45;&gt;node12203</title><path fill="none" stroke="black" d="M822.33,-468.26C950.51,-457.22 1428.14,-416.1 1565.99,-404.23"/><polygon fill="black" stroke="black" points="1566.39,-407.7 1576.06,-403.36 1565.79,-400.73 1566.39,-407.7"/></g><!-- node12173 --><g id="node4" class="node"><title>node12173</title><path fill="#f5f0e4" stroke="black" d="M52.87,-335C52.87,-335 12.04,-335 12.04,-335 6.04,-335 0.04,-329 0.04,-323 0.04,-323 0.04,-311 0.04,-311 0.04,-305 6.04,-299 12.04,-299 12.04,-299 52.87,-299 52.87,-299 58.87,-299 64.87,-305 64.87,-311 64.87,-311 64.87,-323 64.87,-323 64.87,-329 58.87,-335 52.87,-335"/><text text-anchor="middle" x="32.46" y="-314" font-family="sans-serif" font-size="10.00">:type string</text></g><!-- node12172&#45;&gt;node12173 --><g id="edge8" class="edge"><title>node12172&#45;&gt;node12173</title><path fill="none" stroke="black" d="M141.59,-383.24C122.09,-373.06 96.5,-359.27 74.46,-346 71.68,-344.33 68.83,-342.55 65.98,-340.74"/><polygon fill="black" stroke="black" points="67.83,-337.77 57.53,-335.26 64.02,-343.64 67.83,-337.77"/></g><!-- node12174 --><g id="node5" class="node"><title>node12174</title><path fill="#f5f0e4" stroke="black" d="M153.61,-335C153.61,-335 95.3,-335 95.3,-335 89.3,-335 83.3,-329 83.3,-323 83.3,-323 83.3,-311 83.3,-311 83.3,-305 89.3,-299 95.3,-299 95.3,-299 153.61,-299 153.61,-299 159.61,-299 165.61,-305 165.61,-311 165.61,-311 165.61,-323 165.61,-323 165.61,-329 159.61,-335 153.61,-335"/><text text-anchor="middle" x="124.46" y="-314" font-family="sans-serif" font-size="10.00">:maxLength 10</text></g><!-- node12172&#45;&gt;node12174 --><g id="edge9" class="edge"><title>node12172&#45;&gt;node12174</title><path fill="none" stroke="black" d="M162.28,-381.82C155.78,-370.87 147.25,-356.46 139.93,-344.11"/><polygon fill="black" stroke="black" points="142.73,-341.97 134.62,-335.15 136.71,-345.54 142.73,-341.97"/></g><!-- node12175 --><g id="node6" class="node"><title>node12175</title><path fill="#f5f0e4" stroke="black" d="M245.45,-336C245.45,-336 195.46,-336 195.46,-336 189.46,-336 183.46,-330 183.46,-324 183.46,-324 183.46,-310 183.46,-310 183.46,-304 189.46,-298 195.46,-298 195.46,-298 245.45,-298 245.45,-298 251.45,-298 257.45,-304 257.45,-310 257.45,-310 257.45,-324 257.45,-324 257.45,-330 251.45,-336 245.45,-336"/><text text-anchor="middle" x="220.46" y="-324" font-family="sans-serif" font-size="10.00">:description</text><text text-anchor="middle" x="220.46" y="-314" font-family="sans-serif" font-size="10.00">The person&#39;s</text><text text-anchor="middle" x="220.46" y="-304" font-family="sans-serif" font-size="10.00">first name.</text></g><!-- node12172&#45;&gt;node12175 --><g id="edge10" class="edge"><title>node12172&#45;&gt;node12175</title><path fill="none" stroke="black" d="M182.64,-381.82C188.95,-371.16 197.2,-357.24 204.39,-345.11"/><polygon fill="black" stroke="black" points="207.54,-346.67 209.62,-336.28 201.51,-343.1 207.54,-346.67"/></g><!-- node12177 --><g id="node8" class="node"><title>node12177</title><path fill="#f5f0e4" stroke="black" d="M327.87,-335C327.87,-335 287.04,-335 287.04,-335 281.04,-335 275.04,-329 275.04,-323 275.04,-323 275.04,-311 275.04,-311 275.04,-305 281.04,-299 287.04,-299 287.04,-299 327.87,-299 327.87,-299 333.87,-299 339.87,-305 339.87,-311 339.87,-311 339.87,-323 339.87,-323 339.87,-329 333.87,-335 327.87,-335"/><text text-anchor="middle" x="307.46" y="-314" font-family="sans-serif" font-size="10.00">:type string</text></g><!-- node12176&#45;&gt;node12177 --><g id="edge11" class="edge"><title>node12176&#45;&gt;node12177</title><path fill="none" stroke="black" d="M376.01,-381.82C363.66,-370.33 347.24,-355.04 333.56,-342.31"/><polygon fill="black" stroke="black" points="335.58,-339.41 325.88,-335.15 330.81,-344.53 335.58,-339.41"/></g><!-- node12178 --><g id="node9" class="node"><title>node12178</title><path fill="#f5f0e4" stroke="black" d="M419.45,-336C419.45,-336 369.46,-336 369.46,-336 363.46,-336 357.46,-330 357.46,-324 357.46,-324 357.46,-310 357.46,-310 357.46,-304 363.46,-298 369.46,-298 369.46,-298 419.45,-298 419.45,-298 425.45,-298 431.45,-304 431.45,-310 431.45,-310 431.45,-324 431.45,-324 431.45,-330 425.45,-336 419.45,-336"/><text text-anchor="middle" x="394.46" y="-324" font-family="sans-serif" font-size="10.00">:description</text><text text-anchor="middle" x="394.46" y="-314" font-family="sans-serif" font-size="10.00">The person&#39;s</text><text text-anchor="middle" x="394.46" y="-304" font-family="sans-serif" font-size="10.00">last name.</text></g><!-- node12176&#45;&gt;node12178 --><g id="edge12" class="edge"><title>node12176&#45;&gt;node12178</title><path fill="none" stroke="black" d="M394.46,-381.82C394.46,-371.58 394.46,-358.33 394.46,-346.55"/><polygon fill="black" stroke="black" points="397.96,-346.28 394.46,-336.28 390.96,-346.28 397.96,-346.28"/></g><!-- node12180 --><g id="node11" class="node"><title>node12180</title><path fill="#f5f0e4" stroke="black" d="M537.39,-346C537.39,-346 461.52,-346 461.52,-346 455.52,-346 449.52,-340 449.52,-334 449.52,-334 449.52,-300 449.52,-300 449.52,-294 455.52,-288 461.52,-288 461.52,-288 537.39,-288 537.39,-288 543.39,-288 549.39,-294 549.39,-300 549.39,-300 549.39,-334 549.39,-334 549.39,-340 543.39,-346 537.39,-346"/><text text-anchor="middle" x="499.46" y="-334" font-family="sans-serif" font-size="10.00">:description</text><text text-anchor="middle" x="499.46" y="-324" font-family="sans-serif" font-size="10.00">Age in years which</text><text text-anchor="middle" x="499.46" y="-314" font-family="sans-serif" font-size="10.00">must be equal</text><text text-anchor="middle" x="499.46" y="-304" font-family="sans-serif" font-size="10.00">to or greater</text><text text-anchor="middle" x="499.46" y="-294" font-family="sans-serif" font-size="10.00">than zero.</text></g><!-- node12179&#45;&gt;node12180 --><g id="edge13" class="edge"><title>node12179&#45;&gt;node12180</title><path fill="none" stroke="black" d="M662.43,-388.77C637.48,-379.19 599.24,-364.16 558.85,-346.54"/><polygon fill="black" stroke="black" points="560.22,-343.31 549.66,-342.49 557.4,-349.72 560.22,-343.31"/></g><!-- node12181 --><g id="node12" class="node"><title>node12181</title><path fill="#f5f0e4" stroke="black" d="M625.99,-335C625.99,-335 578.92,-335 578.92,-335 572.92,-335 566.92,-329 566.92,-323 566.92,-323 566.92,-311 566.92,-311 566.92,-305 572.92,-299 578.92,-299 578.92,-299 625.99,-299 625.99,-299 631.99,-299 637.99,-305 637.99,-311 637.99,-311 637.99,-323 637.99,-323 637.99,-329 631.99,-335 625.99,-335"/><text text-anchor="middle" x="602.46" y="-314" font-family="sans-serif" font-size="10.00">:type integer</text></g><!-- node12179&#45;&gt;node12181 --><g id="edge14" class="edge"><title>node12179&#45;&gt;node12181</title><path fill="none" stroke="black" d="M671.01,-381.82C658.66,-370.33 642.24,-355.04 628.56,-342.31"/><polygon fill="black" stroke="black" points="630.58,-339.41 620.88,-335.15 625.81,-344.53 630.58,-339.41"/></g><!-- node12182 --><g id="node13" class="node"><title>node12182</title><path fill="#f5f0e4" stroke="black" d="M711.13,-335C711.13,-335 667.78,-335 667.78,-335 661.78,-335 655.78,-329 655.78,-323 655.78,-323 655.78,-311 655.78,-311 655.78,-305 661.78,-299 667.78,-299 667.78,-299 711.13,-299 711.13,-299 717.13,-299 723.13,-305 723.13,-311 723.13,-311 723.13,-323 723.13,-323 723.13,-329 717.13,-335 711.13,-335"/><text text-anchor="middle" x="689.46" y="-314" font-family="sans-serif" font-size="10.00">:minimum 0</text></g><!-- node12179&#45;&gt;node12182 --><g id="edge15" class="edge"><title>node12179&#45;&gt;node12182</title><path fill="none" stroke="black" d="M689.46,-381.82C689.46,-371.19 689.46,-357.31 689.46,-345.2"/><polygon fill="black" stroke="black" points="692.96,-345.15 689.46,-335.15 685.96,-345.15 692.96,-345.15"/></g><!-- node12183 --><g id="node14" class="node"><title>node12183</title><path fill="#f5f0e4" stroke="black" d="M811.03,-335C811.03,-335 753.88,-335 753.88,-335 747.88,-335 741.88,-329 741.88,-323 741.88,-323 741.88,-311 741.88,-311 741.88,-305 747.88,-299 753.88,-299 753.88,-299 811.03,-299 811.03,-299 817.03,-299 823.03,-305 823.03,-311 823.03,-311 823.03,-323 823.03,-323 823.03,-329 817.03,-335 811.03,-335"/><text text-anchor="middle" x="782.46" y="-314" font-family="sans-serif" font-size="10.00">:maximum 200</text></g><!-- node12179&#45;&gt;node12183 --><g id="edge16" class="edge"><title>node12179&#45;&gt;node12183</title><path fill="none" stroke="black" d="M709.18,-381.82C722.49,-370.22 740.26,-354.75 754.96,-341.95"/><polygon fill="black" stroke="black" points="757.52,-344.36 762.76,-335.15 752.92,-339.08 757.52,-344.36"/></g><!-- node12185 --><g id="node16" class="node"><title>node12185</title><path fill="#f5f0e4" stroke="black" d="M929.39,-335C929.39,-335 853.52,-335 853.52,-335 847.52,-335 841.52,-329 841.52,-323 841.52,-323 841.52,-311 841.52,-311 841.52,-305 847.52,-299 853.52,-299 853.52,-299 929.39,-299 929.39,-299 935.39,-299 941.39,-305 941.39,-311 941.39,-311 941.39,-323 941.39,-323 941.39,-329 935.39,-335 929.39,-335"/><text text-anchor="middle" x="891.46" y="-319" font-family="sans-serif" font-size="10.00">:description</text><text text-anchor="middle" x="891.46" y="-309" font-family="sans-serif" font-size="10.00">Salary of a person.</text></g><!-- node12184&#45;&gt;node12185 --><g id="edge17" class="edge"><title>node12184&#45;&gt;node12185</title><path fill="none" stroke="black" d="M934,-381.82C926.63,-370.76 916.91,-356.18 908.62,-343.75"/><polygon fill="black" stroke="black" points="911.35,-341.53 902.89,-335.15 905.53,-345.42 911.35,-341.53"/></g><!-- node12186 --><g id="node17" class="node"><title>node12186</title><path fill="#f5f0e4" stroke="black" d="M1027.38,-335C1027.38,-335 971.53,-335 971.53,-335 965.53,-335 959.53,-329 959.53,-323 959.53,-323 959.53,-311 959.53,-311 959.53,-305 965.53,-299 971.53,-299 971.53,-299 1027.38,-299 1027.38,-299 1033.38,-299 1039.38,-305 1039.38,-311 1039.38,-311 1039.38,-323 1039.38,-323 1039.38,-329 1033.38,-335 1027.38,-335"/><text text-anchor="middle" x="999.46" y="-314" font-family="sans-serif" font-size="10.00">:type number1</text></g><!-- node12184&#45;&gt;node12186 --><g id="edge18" class="edge"><title>node12184&#45;&gt;node12186</title><path fill="none" stroke="black" d="M956.91,-381.82C964.28,-370.76 974,-356.18 982.29,-343.75"/><polygon fill="black" stroke="black" points="985.39,-345.42 988.02,-335.15 979.56,-341.53 985.39,-345.42"/><text text-anchor="start" x="976.02" y="-343.35" font-family="sans-serif" font-weight="bold" font-size="12.00" fill="#ff0000">④</text></g><!-- node12187 --><g id="node18" class="node"><title>node12187</title><path fill="#f5f0e4" stroke="black" d="M1125.93,-335C1125.93,-335 1068.98,-335 1068.98,-335 1062.98,-335 1056.98,-329 1056.98,-323 1056.98,-323 1056.98,-311 1056.98,-311 1056.98,-305 1062.98,-299 1068.98,-299 1068.98,-299 1125.93,-299 1125.93,-299 1131.93,-299 1137.93,-305 1137.93,-311 1137.93,-311 1137.93,-323 1137.93,-323 1137.93,-329 1131.93,-335 1125.93,-335"/><text text-anchor="middle" x="1097.46" y="-314" font-family="sans-serif" font-size="10.00">:multipleOf 2.0</text></g><!-- node12184&#45;&gt;node12187 --><g id="edge19" class="edge"><title>node12184&#45;&gt;node12187</title><path fill="none" stroke="black" d="M972.73,-385.37C993.59,-374.86 1023,-359.81 1048.46,-346 1051.94,-344.11 1055.55,-342.12 1059.15,-340.1"/><polygon fill="black" stroke="black" points="1061.04,-343.05 1068.03,-335.09 1057.6,-336.96 1061.04,-343.05"/></g><!-- node12189 --><g id="node20" class="node"><title>node12189</title><path fill="#f5f0e4" stroke="black" d="M1207.2,-335C1207.2,-335 1167.71,-335 1167.71,-335 1161.71,-335 1155.71,-329 1155.71,-323 1155.71,-323 1155.71,-311 1155.71,-311 1155.71,-305 1161.71,-299 1167.71,-299 1167.71,-299 1207.2,-299 1207.2,-299 1213.2,-299 1219.2,-305 1219.2,-311 1219.2,-311 1219.2,-323 1219.2,-323 1219.2,-329 1213.2,-335 1207.2,-335"/><text text-anchor="middle" x="1187.46" y="-314" font-family="sans-serif" font-size="10.00">:type array</text></g><!-- node12188&#45;&gt;node12189 --><g id="edge20" class="edge"><title>node12188&#45;&gt;node12189</title><path fill="none" stroke="black" d="M1281.4,-381.98C1265.71,-371.67 1245.36,-358.19 1227.46,-346 1225.09,-344.39 1222.65,-342.72 1220.21,-341.03"/><polygon fill="black" stroke="black" points="1222.14,-338.11 1211.93,-335.28 1218.14,-343.86 1222.14,-338.11"/></g><!-- node12190 --><g id="node21" class="node"><title>node12190</title><path fill="#f5f0e4" stroke="black" d="M1284.31,-335C1284.31,-335 1248.6,-335 1248.6,-335 1242.6,-335 1236.6,-329 1236.6,-323 1236.6,-323 1236.6,-311 1236.6,-311 1236.6,-305 1242.6,-299 1248.6,-299 1248.6,-299 1284.31,-299 1284.31,-299 1290.31,-299 1296.31,-305 1296.31,-311 1296.31,-311 1296.31,-323 1296.31,-323 1296.31,-329 1290.31,-335 1284.31,-335"/><text text-anchor="middle" x="1266.46" y="-314" font-family="sans-serif" font-size="10.00">:title role2</text></g><!-- node12188&#45;&gt;node12190 --><g id="edge21" class="edge"><title>node12188&#45;&gt;node12190</title><path fill="none" stroke="black" d="M1298.76,-381.82C1293.22,-370.87 1285.92,-356.46 1279.67,-344.11"/><polygon fill="black" stroke="black" points="1282.78,-342.49 1275.14,-335.15 1276.53,-345.66 1282.78,-342.49"/></g><!-- node12191 --><g id="node22" class="node"><title>node12191</title><path fill="#f5f0e4" stroke="black" d="M1370.14,-335C1370.14,-335 1326.78,-335 1326.78,-335 1320.78,-335 1314.78,-329 1314.78,-323 1314.78,-323 1314.78,-311 1314.78,-311 1314.78,-305 1320.78,-299 1326.78,-299 1326.78,-299 1370.14,-299 1370.14,-299 1376.14,-299 1382.14,-305 1382.14,-311 1382.14,-311 1382.14,-323 1382.14,-323 1382.14,-329 1376.14,-335 1370.14,-335"/><text text-anchor="middle" x="1348.46" y="-314" font-family="sans-serif" font-size="10.00">:minItems 2</text></g><!-- node12188&#45;&gt;node12191 --><g id="edge22" class="edge"><title>node12188&#45;&gt;node12191</title><path fill="none" stroke="black" d="M1316.15,-381.82C1321.7,-370.87 1328.99,-356.46 1335.24,-344.11"/><polygon fill="black" stroke="black" points="1338.38,-345.66 1339.77,-335.15 1332.13,-342.49 1338.38,-345.66"/></g><!-- node12192 --><g id="node23" class="node"><title>node12192</title><path fill="#f5f0e4" stroke="black" d="M1464.48,-335C1464.48,-335 1412.44,-335 1412.44,-335 1406.44,-335 1400.44,-329 1400.44,-323 1400.44,-323 1400.44,-311 1400.44,-311 1400.44,-305 1406.44,-299 1412.44,-299 1412.44,-299 1464.48,-299 1464.48,-299 1470.48,-299 1476.48,-305 1476.48,-311 1476.48,-311 1476.48,-323 1476.48,-323 1476.48,-329 1470.48,-335 1464.48,-335"/><text text-anchor="middle" x="1438.46" y="-314" font-family="sans-serif" font-size="10.00">:maxItems 10</text></g><!-- node12188&#45;&gt;node12192 --><g id="edge23" class="edge"><title>node12188&#45;&gt;node12192</title><path fill="none" stroke="black" d="M1334.6,-382.22C1354.23,-370.08 1380.95,-353.56 1402.38,-340.31"/><polygon fill="black" stroke="black" points="1404.23,-343.28 1410.9,-335.04 1400.55,-337.32 1404.23,-343.28"/></g><!-- node12193 --><g id="node24" class="node"><title>node12193</title><path fill="#dbdad6" stroke="black" d="M1536.46,-335C1536.46,-335 1506.46,-335 1506.46,-335 1500.46,-335 1494.46,-329 1494.46,-323 1494.46,-323 1494.46,-311 1494.46,-311 1494.46,-305 1500.46,-299 1506.46,-299 1506.46,-299 1536.46,-299 1536.46,-299 1542.46,-299 1548.46,-305 1548.46,-311 1548.46,-311 1548.46,-323 1548.46,-323 1548.46,-329 1542.46,-335 1536.46,-335"/><text text-anchor="middle" x="1521.46" y="-314" font-family="sans-serif" font-size="10.00">:items</text></g><!-- node12188&#45;&gt;node12193 --><g id="edge24" class="edge"><title>node12188&#45;&gt;node12193</title><path fill="none" stroke="black" d="M1334.57,-394.19C1370.53,-387.1 1435.28,-371.82 1485.46,-346 1488.34,-344.51 1491.23,-342.79 1494.04,-340.93"/><polygon fill="black" stroke="black" points="1496.08,-343.77 1502.17,-335.1 1492,-338.08 1496.08,-343.77"/></g><!-- node12194 --><g id="node25" class="node"><title>node12194</title><path fill="#f5f0e4" stroke="black" d="M1455.1,-252C1455.1,-252 1411.81,-252 1411.81,-252 1405.81,-252 1399.81,-246 1399.81,-240 1399.81,-240 1399.81,-228 1399.81,-228 1399.81,-222 1405.81,-216 1411.81,-216 1411.81,-216 1455.1,-216 1455.1,-216 1461.1,-216 1467.1,-222 1467.1,-228 1467.1,-228 1467.1,-240 1467.1,-240 1467.1,-246 1461.1,-252 1455.1,-252"/><text text-anchor="middle" x="1433.46" y="-231" font-family="sans-serif" font-size="10.00">:type object</text></g><!-- node12193&#45;&gt;node12194 --><g id="edge25" class="edge"><title>node12193&#45;&gt;node12194</title><path fill="none" stroke="black" d="M1502.79,-298.82C1490.19,-287.22 1473.39,-271.75 1459.48,-258.95"/><polygon fill="black" stroke="black" points="1461.82,-256.35 1452.09,-252.15 1457.08,-261.5 1461.82,-256.35"/></g><!-- node12195 --><g id="node26" class="node"><title>node12195</title><path fill="#f5f0e4" stroke="black" d="M1540.09,-252C1540.09,-252 1496.82,-252 1496.82,-252 1490.82,-252 1484.82,-246 1484.82,-240 1484.82,-240 1484.82,-228 1484.82,-228 1484.82,-222 1490.82,-216 1496.82,-216 1496.82,-216 1540.09,-216 1540.09,-216 1546.09,-216 1552.09,-222 1552.09,-228 1552.09,-228 1552.09,-240 1552.09,-240 1552.09,-246 1546.09,-252 1540.09,-252"/><text text-anchor="middle" x="1518.46" y="-236" font-family="sans-serif" font-size="10.00">:description</text><text text-anchor="middle" x="1518.46" y="-226" font-family="sans-serif" font-size="10.00">class B</text></g><!-- node12193&#45;&gt;node12195 --><g id="edge26" class="edge"><title>node12193&#45;&gt;node12195</title><path fill="none" stroke="black" d="M1520.82,-298.82C1520.43,-288.19 1519.91,-274.31 1519.46,-262.2"/><polygon fill="black" stroke="black" points="1522.96,-262.02 1519.09,-252.15 1515.96,-262.28 1522.96,-262.02"/></g><!-- node12196 --><g id="node27" class="node"><title>node12196</title><path fill="#dbdad6" stroke="black" d="M1621.2,-252C1621.2,-252 1581.71,-252 1581.71,-252 1575.71,-252 1569.71,-246 1569.71,-240 1569.71,-240 1569.71,-228 1569.71,-228 1569.71,-222 1575.71,-216 1581.71,-216 1581.71,-216 1621.2,-216 1621.2,-216 1627.2,-216 1633.2,-222 1633.2,-228 1633.2,-228 1633.2,-240 1633.2,-240 1633.2,-246 1627.2,-252 1621.2,-252"/><text text-anchor="middle" x="1601.46" y="-231" font-family="sans-serif" font-size="10.00">:properties</text></g><!-- node12193&#45;&gt;node12196 --><g id="edge27" class="edge"><title>node12193&#45;&gt;node12196</title><path fill="none" stroke="black" d="M1538.42,-298.82C1549.77,-287.33 1564.87,-272.04 1577.45,-259.31"/><polygon fill="black" stroke="black" points="1579.98,-261.73 1584.51,-252.15 1575,-256.81 1579.98,-261.73"/></g><!-- node12197 --><g id="node28" class="node"><title>node12197</title><path fill="#dbdad6" stroke="black" d="M1616.46,-180C1616.46,-180 1586.46,-180 1586.46,-180 1580.46,-180 1574.46,-174 1574.46,-168 1574.46,-168 1574.46,-156 1574.46,-156 1574.46,-150 1580.46,-144 1586.46,-144 1586.46,-144 1616.46,-144 1616.46,-144 1622.46,-144 1628.46,-150 1628.46,-156 1628.46,-156 1628.46,-168 1628.46,-168 1628.46,-174 1622.46,-180 1616.46,-180"/><text text-anchor="middle" x="1601.46" y="-159" font-family="sans-serif" font-size="10.00">:b1</text></g><!-- node12196&#45;&gt;node12197 --><g id="edge28" class="edge"><title>node12196&#45;&gt;node12197</title><path fill="none" stroke="black" d="M1601.46,-215.7C1601.46,-207.98 1601.46,-198.71 1601.46,-190.11"/><polygon fill="black" stroke="black" points="1604.96,-190.1 1601.46,-180.1 1597.96,-190.1 1604.96,-190.1"/></g><!-- node12198 --><g id="node29" class="node"><title>node12198</title><path fill="#f5f0e4" stroke="black" d="M1544.02,-108C1544.02,-108 1490.89,-108 1490.89,-108 1484.89,-108 1478.89,-102 1478.89,-96 1478.89,-96 1478.89,-84 1478.89,-84 1478.89,-78 1484.89,-72 1490.89,-72 1490.89,-72 1544.02,-72 1544.02,-72 1550.02,-72 1556.02,-78 1556.02,-84 1556.02,-84 1556.02,-96 1556.02,-96 1556.02,-102 1550.02,-108 1544.02,-108"/><text text-anchor="middle" x="1517.46" y="-87" font-family="sans-serif" font-size="10.00">:type [&quot;string&quot;]</text></g><!-- node12197&#45;&gt;node12198 --><g id="edge29" class="edge"><title>node12197&#45;&gt;node12198</title><path fill="none" stroke="black" d="M1580.69,-143.7C1570.21,-134.97 1557.34,-124.24 1545.96,-114.75"/><polygon fill="black" stroke="black" points="1547.9,-111.82 1537.98,-108.1 1543.42,-117.19 1547.9,-111.82"/></g><!-- node12199 --><g id="node30" class="node"><title>node12199</title><path fill="#dbdad6" stroke="black" d="M1616.46,-108C1616.46,-108 1586.46,-108 1586.46,-108 1580.46,-108 1574.46,-102 1574.46,-96 1574.46,-96 1574.46,-84 1574.46,-84 1574.46,-78 1580.46,-72 1586.46,-72 1586.46,-72 1616.46,-72 1616.46,-72 1622.46,-72 1628.46,-78 1628.46,-84 1628.46,-84 1628.46,-96 1628.46,-96 1628.46,-102 1622.46,-108 1616.46,-108"/><text text-anchor="middle" x="1601.46" y="-87" font-family="sans-serif" font-size="10.00">:allOf</text></g><!-- node12197&#45;&gt;node12199 --><g id="edge30" class="edge"><title>node12197&#45;&gt;node12199</title><path fill="none" stroke="black" d="M1601.46,-143.7C1601.46,-135.98 1601.46,-126.71 1601.46,-118.11"/><polygon fill="black" stroke="black" points="1604.96,-118.1 1601.46,-108.1 1597.96,-118.1 1604.96,-118.1"/></g><!-- node12202 --><g id="node33" class="node"><title>node12202</title><path fill="#f5f0e4" stroke="black" d="M1688.46,-108C1688.46,-108 1658.46,-108 1658.46,-108 1652.46,-108 1646.46,-102 1646.46,-96 1646.46,-96 1646.46,-84 1646.46,-84 1646.46,-78 1652.46,-72 1658.46,-72 1658.46,-72 1688.46,-72 1688.46,-72 1694.46,-72 1700.46,-78 1700.46,-84 1700.46,-84 1700.46,-96 1700.46,-96 1700.46,-102 1694.46,-108 1688.46,-108"/><text text-anchor="middle" x="1673.46" y="-87" font-family="sans-serif" font-size="10.00">:title b1</text></g><!-- node12197&#45;&gt;node12202 --><g id="edge31" class="edge"><title>node12197&#45;&gt;node12202</title><path fill="none" stroke="black" d="M1619.25,-143.7C1628.06,-135.14 1638.84,-124.66 1648.46,-115.3"/><polygon fill="black" stroke="black" points="1651.13,-117.58 1655.86,-108.1 1646.25,-112.57 1651.13,-117.58"/></g><!-- node12200 --><g id="node31" class="node"><title>node12200</title><path fill="#f5f0e4" stroke="black" d="M1580.46,-36C1580.46,-36 1550.46,-36 1550.46,-36 1544.46,-36 1538.46,-30 1538.46,-24 1538.46,-24 1538.46,-12 1538.46,-12 1538.46,-6 1544.46,0 1550.46,0 1550.46,0 1580.46,0 1580.46,0 1586.46,0 1592.46,-6 1592.46,-12 1592.46,-12 1592.46,-24 1592.46,-24 1592.46,-30 1586.46,-36 1580.46,-36"/><text text-anchor="middle" x="1565.46" y="-15" font-family="sans-serif" font-size="10.00">Jude</text></g><!-- node12199&#45;&gt;node12200 --><g id="edge32" class="edge"><title>node12199&#45;&gt;node12200</title><path fill="none" stroke="black" d="M1592.56,-71.7C1588.46,-63.73 1583.51,-54.1 1578.96,-45.26"/><polygon fill="black" stroke="black" points="1581.94,-43.4 1574.25,-36.1 1575.71,-46.6 1581.94,-43.4"/></g><!-- node12201 --><g id="node32" class="node"><title>node12201</title><path fill="#f5f0e4" stroke="black" d="M1652.46,-36C1652.46,-36 1622.46,-36 1622.46,-36 1616.46,-36 1610.46,-30 1610.46,-24 1610.46,-24 1610.46,-12 1610.46,-12 1610.46,-6 1616.46,0 1622.46,0 1622.46,0 1652.46,0 1652.46,0 1658.46,0 1664.46,-6 1664.46,-12 1664.46,-12 1664.46,-24 1664.46,-24 1664.46,-30 1658.46,-36 1652.46,-36"/><text text-anchor="middle" x="1637.46" y="-15" font-family="sans-serif" font-size="10.00">Gunjan</text></g><!-- node12199&#45;&gt;node12201 --><g id="edge33" class="edge"><title>node12199&#45;&gt;node12201</title><path fill="none" stroke="black" d="M1610.35,-71.7C1614.45,-63.73 1619.4,-54.1 1623.95,-45.26"/><polygon fill="black" stroke="black" points="1627.2,-46.6 1628.66,-36.1 1620.97,-43.4 1627.2,-46.6"/></g><!-- node12204 --><g id="node35" class="node"><title>node12204</title><path fill="#f5f0e4" stroke="black" d="M1623.2,-335C1623.2,-335 1583.71,-335 1583.71,-335 1577.71,-335 1571.71,-329 1571.71,-323 1571.71,-323 1571.71,-311 1571.71,-311 1571.71,-305 1577.71,-299 1583.71,-299 1583.71,-299 1623.2,-299 1623.2,-299 1629.2,-299 1635.2,-305 1635.2,-311 1635.2,-311 1635.2,-323 1635.2,-323 1635.2,-329 1629.2,-335 1623.2,-335"/><text text-anchor="middle" x="1603.46" y="-314" font-family="sans-serif" font-size="10.00">:type array</text></g><!-- node12203&#45;&gt;node12204 --><g id="edge34" class="edge"><title>node12203&#45;&gt;node12204</title><path fill="none" stroke="black" d="M1603.46,-381.82C1603.46,-371.19 1603.46,-357.31 1603.46,-345.2"/><polygon fill="black" stroke="black" points="1606.96,-345.15 1603.46,-335.15 1599.96,-345.15 1606.96,-345.15"/></g><!-- node12205 --><g id="node36" class="node"><title>node12205</title><path fill="#dbdad6" stroke="black" d="M1698.46,-335C1698.46,-335 1668.46,-335 1668.46,-335 1662.46,-335 1656.46,-329 1656.46,-323 1656.46,-323 1656.46,-311 1656.46,-311 1656.46,-305 1662.46,-299 1668.46,-299 1668.46,-299 1698.46,-299 1698.46,-299 1704.46,-299 1710.46,-305 1710.46,-311 1710.46,-311 1710.46,-323 1710.46,-323 1710.46,-329 1704.46,-335 1698.46,-335"/><text text-anchor="middle" x="1683.46" y="-314" font-family="sans-serif" font-size="10.00">:items</text></g><!-- node12203&#45;&gt;node12205 --><g id="edge35" class="edge"><title>node12203&#45;&gt;node12205</title><path fill="none" stroke="black" d="M1620.42,-381.82C1631.77,-370.33 1646.87,-355.04 1659.45,-342.31"/><polygon fill="black" stroke="black" points="1661.98,-344.73 1666.51,-335.15 1657,-339.81 1661.98,-344.73"/></g><!-- node12206 --><g id="node37" class="node"><title>node12206</title><path fill="#f5f0e4" stroke="black" d="M1703.87,-252C1703.87,-252 1663.04,-252 1663.04,-252 1657.04,-252 1651.04,-246 1651.04,-240 1651.04,-240 1651.04,-228 1651.04,-228 1651.04,-222 1657.04,-216 1663.04,-216 1663.04,-216 1703.87,-216 1703.87,-216 1709.87,-216 1715.87,-222 1715.87,-228 1715.87,-228 1715.87,-240 1715.87,-240 1715.87,-246 1709.87,-252 1703.87,-252"/><text text-anchor="middle" x="1683.46" y="-231" font-family="sans-serif" font-size="10.00">:type string</text></g><!-- node12205&#45;&gt;node12206 --><g id="edge36" class="edge"><title>node12205&#45;&gt;node12206</title><path fill="none" stroke="black" d="M1683.46,-298.82C1683.46,-288.19 1683.46,-274.31 1683.46,-262.2"/><polygon fill="black" stroke="black" points="1686.96,-262.15 1683.46,-252.15 1679.96,-262.15 1686.96,-262.15"/></g><!-- node12207 --><g id="node38" class="node"><title>node12207</title><path fill="#f5f0e4" stroke="black" d="M1895.3,-252C1895.3,-252 1745.61,-252 1745.61,-252 1739.61,-252 1733.61,-246 1733.61,-240 1733.61,-240 1733.61,-228 1733.61,-228 1733.61,-222 1739.61,-216 1745.61,-216 1745.61,-216 1895.3,-216 1895.3,-216 1901.3,-216 1907.3,-222 1907.3,-228 1907.3,-228 1907.3,-240 1907.3,-240 1907.3,-246 1901.3,-252 1895.3,-252"/><text text-anchor="middle" x="1820.46" y="-231" font-family="sans-serif" font-size="10.00">:enum [&quot;male&quot; &quot;female&quot; &quot;others&quot; &quot;x&quot;]</text></g><!-- node12205&#45;&gt;node12207 --><g id="edge37" class="edge"><title>node12205&#45;&gt;node12207</title><path fill="none" stroke="black" d="M1710.52,-300C1731.17,-287.79 1759.88,-270.82 1782.77,-257.28"/><polygon fill="black" stroke="black" points="1784.73,-260.19 1791.55,-252.09 1781.16,-254.16 1784.73,-260.19"/></g></g></svg>