<svg width="1498pt" height="816pt" viewBox="0.00 0.00 1497.50 816.00" xmlns="http://www.w3.org/2000/svg" xmlns:xlink="http://www.w3.org/1999/xlink"><g id="graph0" class="graph" transform="scale(1 1) rotate(0) translate(4 812)"><title>%3</title><polygon fill="white" stroke="transparent" points="-4,4 -4,-812 1493.5,-812 1493.5,4 -4,4"/><!-- node7982 --><g id="node1" class="node"><title>node7982</title><polygon fill="#f5f0e4" stroke="transparent" points="694,-703 694,-804 971,-804 971,-703 694,-703"/><polyline fill="none" stroke="black" points="695.5,-781.5 960.5,-781.5 "/><text text-anchor="start" x="791.31" y="-788.7" font-family="sans-serif" font-size="11.00">object: &#160;Person</text><polyline fill="none" stroke="black" points="960.5,-781.5 970.5,-781.5 "/><text text-anchor="start" x="699.5" y="-768.7" font-family="sans-serif" font-size="11.00"> &#160;$id: &#160;https://example.com/person.schema.json</text><text text-anchor="start" x="699.3" y="-749.7" font-family="sans-serif" font-size="11.00"> &#160;$schema: &#160;http://json&#45;schema.org/draft&#45;07/schema#</text><polyline fill="none" stroke="black" points="695.5,-722.5 960.5,-722.5 "/><text text-anchor="start" x="700.5" y="-729.7" font-family="sans-serif" font-size="11.00"> &#160;properties: &#160;object</text><polyline fill="none" stroke="black" points="960.5,-722.5 970.5,-722.5 "/><text text-anchor="start" x="699.5" y="-709.7" font-family="sans-serif" font-size="11.00"> </text><polygon fill="none" stroke="black" points="694,-703 694,-804 971,-804 971,-703 694,-703"/></g><!-- node7983 --><g id="node2" class="node"><title>node7983</title><polygon fill="#f5f0e4" stroke="transparent" points="758,-493 758,-659 907,-659 907,-493 758,-493"/><polyline fill="none" stroke="black" points="759.5,-637 876.5,-637 "/><text text-anchor="start" x="774.28" y="-644.2" font-family="sans-serif" font-size="11.00">object: &#160;properties</text><polyline fill="none" stroke="black" points="876.5,-637 906.5,-637 "/><text text-anchor="start" x="763.5" y="-624.2" font-family="sans-serif" font-size="11.00"> &#160;firstName: &#160;string</text><text text-anchor="start" x="763.5" y="-605.2" font-family="sans-serif" font-size="11.00"> &#160;lastName: &#160;string</text><text text-anchor="start" x="763.5" y="-586.2" font-family="sans-serif" font-size="11.00"> &#160;age: &#160;integer</text><polygon fill="#e0a19b" stroke="transparent" points="759.5,-557 759.5,-580 876.5,-580 876.5,-557 759.5,-557"/><text text-anchor="start" x="763.5" y="-565.2" font-family="sans-serif" font-size="11.00"> &#160;salary: &#160;number1</text><polygon fill="#e0a19b" stroke="transparent" points="876.5,-557 876.5,-580 906.5,-580 906.5,-557 876.5,-557"/><text text-anchor="start" x="880.5" y="-567.2" font-family="sans-serif" font-size="11.00">①②</text><polygon fill="#e0a19b" stroke="transparent" points="759.5,-534 759.5,-557 876.5,-557 876.5,-534 759.5,-534"/><text text-anchor="start" x="763.5" y="-542.2" font-family="sans-serif" font-size="11.00"> &#160;role2: &#160;array[object]</text><polygon fill="#e0a19b" stroke="transparent" points="876.5,-534 876.5,-557 906.5,-557 906.5,-534 876.5,-534"/><text text-anchor="start" x="880.5" y="-544.2" font-family="sans-serif" font-size="11.00">③</text><polyline fill="none" stroke="black" points="759.5,-513 876.5,-513 "/><text text-anchor="start" x="764.2" y="-520.2" font-family="sans-serif" font-size="11.00"> &#160;gender: &#160;array[string]</text><polyline fill="none" stroke="black" points="876.5,-513 906.5,-513 "/><text text-anchor="start" x="763.5" y="-500.2" font-family="sans-serif" font-size="11.00"> </text><polygon fill="none" stroke="black" points="758,-493 758,-659 907,-659 907,-493 758,-493"/></g><!-- node7982&#45;&gt;node7983 --><g id="edge1" class="edge"><title>node7982&#45;&gt;node7983</title><path fill="none" stroke="black" d="M832.5,-688.62C832.5,-680.37 832.5,-671.81 832.5,-663.27"/><polygon fill="black" stroke="black" points="829,-688.89 832.5,-698.89 836,-688.89 829,-688.89"/></g><!-- node7984 --><g id="node3" class="node"><title>node7984</title><polygon fill="#f5f0e4" stroke="transparent" points="8,-355.5 8,-437.5 215,-437.5 215,-355.5 8,-355.5"/><polyline fill="none" stroke="black" points="9.5,-415.5 204.5,-415.5 "/><text text-anchor="start" x="65.44" y="-422.7" font-family="sans-serif" font-size="11.00">string: &#160;firstName</text><polyline fill="none" stroke="black" points="204.5,-415.5 214.5,-415.5 "/><text text-anchor="start" x="13.5" y="-402.7" font-family="sans-serif" font-size="11.00"> &#160;maxLength: &#160;10</text><polyline fill="none" stroke="black" points="9.5,-375.5 204.5,-375.5 "/><text text-anchor="start" x="14.03" y="-382.7" font-family="sans-serif" font-size="11.00"> &#160;description: &#160;The person&#39;s first name.</text><polyline fill="none" stroke="black" points="204.5,-375.5 214.5,-375.5 "/><text text-anchor="start" x="13.5" y="-362.7" font-family="sans-serif" font-size="11.00"> </text><polygon fill="none" stroke="black" points="8,-355.5 8,-437.5 215,-437.5 215,-355.5 8,-355.5"/></g><!-- node7983&#45;&gt;node7984 --><g id="edge2" class="edge"><title>node7983&#45;&gt;node7984</title><path fill="none" stroke="black" d="M739.55,-562.99C619.96,-546 406.73,-510.44 231.5,-453 221.47,-449.71 211.16,-445.81 201.01,-441.63"/><polygon fill="black" stroke="black" points="739.38,-566.5 749.77,-564.43 740.35,-559.57 739.38,-566.5"/></g><!-- node7985 --><g id="node4" class="node"><title>node7985</title><polygon fill="#f5f0e4" stroke="transparent" points="249,-365 249,-428 456,-428 456,-365 249,-365"/><polyline fill="none" stroke="black" points="250.5,-405.5 445.5,-405.5 "/><text text-anchor="start" x="306.74" y="-412.7" font-family="sans-serif" font-size="11.00">string: &#160;lastName</text><polyline fill="none" stroke="black" points="445.5,-405.5 455.5,-405.5 "/><polyline fill="none" stroke="black" points="250.5,-384.5 445.5,-384.5 "/><text text-anchor="start" x="255.34" y="-391.7" font-family="sans-serif" font-size="11.00"> &#160;description: &#160;The person&#39;s last name.</text><polyline fill="none" stroke="black" points="445.5,-384.5 455.5,-384.5 "/><text text-anchor="start" x="254.5" y="-371.7" font-family="sans-serif" font-size="11.00"> </text><polygon fill="none" stroke="black" points="249,-365 249,-428 456,-428 456,-365 249,-365"/></g><!-- node7983&#45;&gt;node7985 --><g id="edge3" class="edge"><title>node7983&#45;&gt;node7985</title><path fill="none" stroke="black" d="M740.06,-546.66C666.75,-523.48 562.09,-488.78 472.5,-453 456.62,-446.66 439.82,-439.31 423.98,-432.07"/><polygon fill="black" stroke="black" points="739.15,-550.05 749.74,-549.72 741.25,-543.37 739.15,-550.05"/></g><!-- node7986 --><g id="node5" class="node"><title>node7986</title><polygon fill="#f5f0e4" stroke="transparent" points="490,-346 490,-447 857,-447 857,-346 490,-346"/><polyline fill="none" stroke="black" points="491.5,-424.5 846.5,-424.5 "/><text text-anchor="start" x="638.42" y="-431.7" font-family="sans-serif" font-size="11.00">integer: &#160;age</text><polyline fill="none" stroke="black" points="846.5,-424.5 856.5,-424.5 "/><text text-anchor="start" x="495.35" y="-411.7" font-family="sans-serif" font-size="11.00"> &#160;description: &#160;Age in years which must be equal to or greater than zero.</text><text text-anchor="start" x="495.5" y="-392.7" font-family="sans-serif" font-size="11.00"> &#160;minimum: &#160;0</text><polyline fill="none" stroke="black" points="491.5,-365.5 846.5,-365.5 "/><text text-anchor="start" x="496.5" y="-372.7" font-family="sans-serif" font-size="11.00"> &#160;maximum: &#160;200</text><polyline fill="none" stroke="black" points="846.5,-365.5 856.5,-365.5 "/><text text-anchor="start" x="495.5" y="-352.7" font-family="sans-serif" font-size="11.00"> </text><polygon fill="none" stroke="black" points="490,-346 490,-447 857,-447 857,-346 490,-346"/></g><!-- node7983&#45;&gt;node7986 --><g id="edge4" class="edge"><title>node7983&#45;&gt;node7986</title><path fill="none" stroke="black" d="M748.56,-481.29C739.27,-470.93 730.07,-460.65 721.45,-451.03"/><polygon fill="black" stroke="black" points="746.05,-483.74 755.33,-488.85 751.26,-479.07 746.05,-483.74"/></g><!-- node7987 --><g id="node6" class="node"><title>node7987</title><polygon fill="#f5f0e4" stroke="transparent" points="891.5,-353.5 891.5,-439.5 1093.5,-439.5 1093.5,-353.5 891.5,-353.5"/><polygon fill="#e0a19b" stroke="transparent" points="892.5,-413.5 892.5,-438.5 1060.5,-438.5 1060.5,-413.5 892.5,-413.5"/><polyline fill="none" stroke="black" points="892.5,-413.5 1060.5,-413.5 "/><text text-anchor="start" x="935.54" y="-422.7" font-family="sans-serif" font-size="11.00">number1: &#160;salary</text><polygon fill="#e0a19b" stroke="transparent" points="1060.5,-413.5 1060.5,-438.5 1092.5,-438.5 1092.5,-413.5 1060.5,-413.5"/><polyline fill="none" stroke="black" points="1060.5,-413.5 1092.5,-413.5 "/><text text-anchor="start" x="1065.5" y="-424.7" font-family="sans-serif" font-size="11.00">①②</text><text text-anchor="start" x="896.1" y="-400.7" font-family="sans-serif" font-size="11.00"> &#160;description: &#160;Salary of a person.</text><polyline fill="none" stroke="black" points="892.5,-373.5 1060.5,-373.5 "/><text text-anchor="start" x="897.5" y="-380.7" font-family="sans-serif" font-size="11.00"> &#160;multipleOf: &#160;2.0</text><polyline fill="none" stroke="black" points="1060.5,-373.5 1092.5,-373.5 "/><text text-anchor="start" x="896.5" y="-360.7" font-family="sans-serif" font-size="11.00"> </text><polygon fill="none" stroke="black" points="891.5,-353.5 891.5,-439.5 1093.5,-439.5 1093.5,-353.5 891.5,-353.5"/></g><!-- node7983&#45;&gt;node7987 --><g id="edge5" class="edge"><title>node7983&#45;&gt;node7987</title><path fill="none" stroke="black" d="M917.05,-481.2C928.76,-468.22 940.33,-455.38 950.76,-443.8"/><polygon fill="black" stroke="black" points="914.25,-479.08 910.16,-488.85 919.45,-483.77 914.25,-479.08"/></g><!-- node7988 --><g id="node7" class="node"><title>node7988</title><polygon fill="#f5f0e4" stroke="transparent" points="1128,-344 1128,-449 1255,-449 1255,-344 1128,-344"/><polygon fill="#e0a19b" stroke="transparent" points="1129.5,-422.5 1129.5,-447.5 1233.5,-447.5 1233.5,-422.5 1129.5,-422.5"/><polyline fill="none" stroke="black" points="1129.5,-422.5 1233.5,-422.5 "/><text text-anchor="start" x="1134.42" y="-431.7" font-family="sans-serif" font-size="11.00">array[object]: &#160;role2</text><polygon fill="#e0a19b" stroke="transparent" points="1233.5,-422.5 1233.5,-447.5 1254.5,-447.5 1254.5,-422.5 1233.5,-422.5"/><polyline fill="none" stroke="black" points="1233.5,-422.5 1254.5,-422.5 "/><text text-anchor="start" x="1238.5" y="-433.7" font-family="sans-serif" font-size="11.00">③</text><text text-anchor="start" x="1133.5" y="-409.7" font-family="sans-serif" font-size="11.00"> &#160;minItems: &#160;2</text><text text-anchor="start" x="1133.5" y="-390.7" font-family="sans-serif" font-size="11.00"> &#160;maxItems: &#160;10</text><polyline fill="none" stroke="black" points="1129.5,-363.5 1233.5,-363.5 "/><text text-anchor="start" x="1134.5" y="-370.7" font-family="sans-serif" font-size="11.00"> &#160;items: &#160;object</text><polyline fill="none" stroke="black" points="1233.5,-363.5 1254.5,-363.5 "/><text text-anchor="start" x="1133.5" y="-350.7" font-family="sans-serif" font-size="11.00"> </text><polygon fill="none" stroke="black" points="1128,-344 1128,-449 1255,-449 1255,-344 1128,-344"/></g><!-- node7983&#45;&gt;node7988 --><g id="edge6" class="edge"><title>node7983&#45;&gt;node7988</title><path fill="none" stroke="black" d="M924.44,-539.73C979.62,-517.32 1050.5,-486.33 1110.5,-453 1113.63,-451.26 1116.79,-449.43 1119.96,-447.55"/><polygon fill="black" stroke="black" points="922.99,-536.54 915.02,-543.53 925.61,-543.03 922.99,-536.54"/></g><!-- node7992 --><g id="node11" class="node"><title>node7992</title><polygon fill="#f5f0e4" stroke="transparent" points="1308,-365 1308,-428 1431,-428 1431,-365 1308,-365"/><polyline fill="none" stroke="black" points="1309.5,-405.5 1420.5,-405.5 "/><text text-anchor="start" x="1314.25" y="-412.7" font-family="sans-serif" font-size="11.00">array[string]: &#160;gender</text><polyline fill="none" stroke="black" points="1420.5,-405.5 1430.5,-405.5 "/><polyline fill="none" stroke="black" points="1309.5,-384.5 1420.5,-384.5 "/><text text-anchor="start" x="1314.5" y="-391.7" font-family="sans-serif" font-size="11.00"> &#160;items: &#160;string</text><polyline fill="none" stroke="black" points="1420.5,-384.5 1430.5,-384.5 "/><text text-anchor="start" x="1313.5" y="-371.7" font-family="sans-serif" font-size="11.00"> </text><polygon fill="none" stroke="black" points="1308,-365 1308,-428 1431,-428 1431,-365 1308,-365"/></g><!-- node7983&#45;&gt;node7992 --><g id="edge7" class="edge"><title>node7983&#45;&gt;node7992</title><path fill="none" stroke="black" d="M925.21,-556.36C1015.83,-536.52 1156.67,-501.3 1272.5,-453 1286.56,-447.14 1301.11,-439.65 1314.54,-432.09"/><polygon fill="black" stroke="black" points="924.26,-552.99 915.23,-558.53 925.75,-559.83 924.26,-552.99"/></g><!-- node7989 --><g id="node8" class="node"><title>node7989</title><polygon fill="#f5f0e4" stroke="transparent" points="1120,-218 1120,-300 1243,-300 1243,-218 1120,-218"/><polyline fill="none" stroke="black" points="1121.5,-278 1232.5,-278 "/><text text-anchor="start" x="1144.6" y="-285.2" font-family="sans-serif" font-size="11.00">object: &#160;items</text><polyline fill="none" stroke="black" points="1232.5,-278 1242.5,-278 "/><text text-anchor="start" x="1125.03" y="-265.2" font-family="sans-serif" font-size="11.00"> &#160;description: &#160;class B</text><polyline fill="none" stroke="black" points="1121.5,-238 1232.5,-238 "/><text text-anchor="start" x="1126.5" y="-245.2" font-family="sans-serif" font-size="11.00"> &#160;properties: &#160;object</text><polyline fill="none" stroke="black" points="1232.5,-238 1242.5,-238 "/><text text-anchor="start" x="1125.5" y="-225.2" font-family="sans-serif" font-size="11.00"> </text><polygon fill="none" stroke="black" points="1120,-218 1120,-300 1243,-300 1243,-218 1120,-218"/></g><!-- node7988&#45;&gt;node7989 --><g id="edge8" class="edge"><title>node7988&#45;&gt;node7989</title><path fill="none" stroke="black" d="M1186.65,-329.79C1186.01,-321.05 1185.36,-312.27 1184.75,-304.02"/><polygon fill="black" stroke="black" points="1183.18,-330.28 1187.4,-340 1190.16,-329.77 1183.18,-330.28"/></g><!-- node7990 --><g id="node9" class="node"><title>node7990</title><polygon fill="#f5f0e4" stroke="transparent" points="1127,-111 1127,-174 1236,-174 1236,-111 1127,-111"/><polyline fill="none" stroke="black" points="1128.5,-151.5 1225.5,-151.5 "/><text text-anchor="start" x="1133.28" y="-158.7" font-family="sans-serif" font-size="11.00">object: &#160;properties</text><polyline fill="none" stroke="black" points="1225.5,-151.5 1235.5,-151.5 "/><polyline fill="none" stroke="black" points="1128.5,-130.5 1225.5,-130.5 "/><text text-anchor="start" x="1133.5" y="-137.7" font-family="sans-serif" font-size="11.00"> &#160;b1: &#160;[&quot;string&quot;]</text><polyline fill="none" stroke="black" points="1225.5,-130.5 1235.5,-130.5 "/><text text-anchor="start" x="1132.5" y="-117.7" font-family="sans-serif" font-size="11.00"> </text><polygon fill="none" stroke="black" points="1127,-111 1127,-174 1236,-174 1236,-111 1127,-111"/></g><!-- node7989&#45;&gt;node7990 --><g id="edge9" class="edge"><title>node7989&#45;&gt;node7990</title><path fill="none" stroke="black" d="M1181.5,-203.61C1181.5,-194.92 1181.5,-186.13 1181.5,-178.06"/><polygon fill="black" stroke="black" points="1178,-203.73 1181.5,-213.73 1185,-203.73 1178,-203.73"/></g><!-- node7991 --><g id="node10" class="node"><title>node7991</title><polygon fill="#f5f0e4" stroke="transparent" points="1109.5,-4 1109.5,-67 1253.5,-67 1253.5,-4 1109.5,-4"/><polyline fill="none" stroke="black" points="1110.5,-44.5 1242.5,-44.5 "/><text text-anchor="start" x="1145.39" y="-51.7" font-family="sans-serif" font-size="11.00">[&quot;string&quot;]: &#160;b1</text><polyline fill="none" stroke="black" points="1242.5,-44.5 1252.5,-44.5 "/><polyline fill="none" stroke="black" points="1110.5,-23.5 1242.5,-23.5 "/><text text-anchor="start" x="1115.5" y="-30.7" font-family="sans-serif" font-size="11.00"> &#160;allOf: &#160;[&quot;Jude&quot; &quot;Gunjan&quot;]</text><polyline fill="none" stroke="black" points="1242.5,-23.5 1252.5,-23.5 "/><text text-anchor="start" x="1114.5" y="-10.7" font-family="sans-serif" font-size="11.00"> </text><polygon fill="none" stroke="black" points="1109.5,-4 1109.5,-67 1253.5,-67 1253.5,-4 1109.5,-4"/></g><!-- node7990&#45;&gt;node7991 --><g id="edge10" class="edge"><title>node7990&#45;&gt;node7991</title><path fill="none" stroke="black" d="M1181.5,-96.62C1181.5,-88.09 1181.5,-79.29 1181.5,-71.14"/><polygon fill="black" stroke="black" points="1178,-96.83 1181.5,-106.83 1185,-96.83 1178,-96.83"/></g><!-- node7993 --><g id="node12" class="node"><title>node7993</title><polygon fill="#f5f0e4" stroke="transparent" points="1277.5,-227.5 1277.5,-290.5 1481.5,-290.5 1481.5,-227.5 1277.5,-227.5"/><polyline fill="none" stroke="black" points="1278.5,-268 1470.5,-268 "/><text text-anchor="start" x="1343.33" y="-275.2" font-family="sans-serif" font-size="11.00">string: &#160;items</text><polyline fill="none" stroke="black" points="1470.5,-268 1480.5,-268 "/><polyline fill="none" stroke="black" points="1278.5,-247 1470.5,-247 "/><text text-anchor="start" x="1283.38" y="-254.2" font-family="sans-serif" font-size="11.00"> &#160;enum: &#160;[&quot;male&quot; &quot;female&quot; &quot;others&quot; &quot;x&quot;]</text><polyline fill="none" stroke="black" points="1470.5,-247 1480.5,-247 "/><text text-anchor="start" x="1282.5" y="-234.2" font-family="sans-serif" font-size="11.00"> </text><polygon fill="none" stroke="black" points="1277.5,-227.5 1277.5,-290.5 1481.5,-290.5 1481.5,-227.5 1277.5,-227.5"/></g><!-- node7992&#45;&gt;node7993 --><g id="edge11" class="edge"><title>node7992&#45;&gt;node7993</title><path fill="none" stroke="black" d="M1372.79,-350.88C1374.13,-332.7 1375.66,-312 1376.92,-294.95"/><polygon fill="black" stroke="black" points="1369.29,-350.73 1372.05,-360.96 1376.28,-351.24 1369.29,-350.73"/></g></g></svg>