<svg width="1525pt" height="818pt" viewBox="0.00 0.00 1525.00 818.00" xmlns="http://www.w3.org/2000/svg" xmlns:xlink="http://www.w3.org/1999/xlink"><g id="graph0" class="graph" transform="scale(1 1) rotate(0) translate(4 814)"><title>%3</title><polygon fill="white" stroke="transparent" points="-4,4 -4,-814 1521,-814 1521,4 -4,4"/><!-- node12877 --><g id="node1" class="node"><title>node12877</title><polygon fill="#f5f0e4" stroke="transparent" points="674.5,-724 674.5,-806 968.5,-806 968.5,-724 674.5,-724"/><polyline fill="none" stroke="black" points="675.5,-784 740.5,-784 "/><text text-anchor="start" x="680.5" y="-792.2" font-family="sans-serif" font-weight="bold" font-size="11.00">Person  </text><polyline fill="none" stroke="black" points="740.5,-784 954.5,-784 "/><text text-anchor="start" x="745.5" y="-792.2" font-family="sans-serif" font-weight="bold" font-size="11.00">object  </text><polyline fill="none" stroke="black" points="954.5,-784 967.5,-784 "/><text text-anchor="start" x="959.47" y="-791.2" font-family="sans-serif" font-size="11.00"> </text><text text-anchor="start" x="679.5" y="-771.2" font-family="sans-serif" font-size="11.00">$id  </text><text text-anchor="start" x="744.48" y="-771.2" font-family="sans-serif" font-size="11.00">https://example.com/person.schema.json  </text><text text-anchor="start" x="958.5" y="-771.2" font-family="sans-serif" font-size="11.00"> </text><text text-anchor="start" x="679.5" y="-752.2" font-family="sans-serif" font-size="11.00">$schema  </text><text text-anchor="start" x="744.5" y="-752.2" font-family="sans-serif" font-size="11.00">http://json&#45;schema.org/draft&#45;07/schema#  </text><text text-anchor="start" x="958.5" y="-752.2" font-family="sans-serif" font-size="11.00"> </text><polyline fill="none" stroke="black" points="675.5,-725 740.5,-725 "/><text text-anchor="start" x="680.49" y="-732.2" font-family="sans-serif" font-size="11.00">properties  </text><polyline fill="none" stroke="black" points="740.5,-725 954.5,-725 "/><text text-anchor="start" x="745.5" y="-732.2" font-family="sans-serif" font-size="11.00">object  </text><polyline fill="none" stroke="black" points="954.5,-725 967.5,-725 "/><text text-anchor="start" x="959.47" y="-732.2" font-family="sans-serif" font-size="11.00"> </text><polygon fill="none" stroke="black" points="674.5,-724 674.5,-806 968.5,-806 968.5,-724 674.5,-724"/></g><!-- node12878 --><g id="node2" class="node"><title>node12878</title><polygon fill="#f5f0e4" stroke="transparent" points="726,-531 726,-680 917,-680 917,-531 726,-531"/><polyline fill="none" stroke="black" points="727.5,-657.5 792.5,-657.5 "/><text text-anchor="start" x="732.49" y="-665.7" font-family="sans-serif" font-weight="bold" font-size="11.00">properties  </text><polyline fill="none" stroke="black" points="792.5,-657.5 866.5,-657.5 "/><text text-anchor="start" x="797.5" y="-665.7" font-family="sans-serif" font-weight="bold" font-size="11.00">object  </text><polyline fill="none" stroke="black" points="866.5,-657.5 916.5,-657.5 "/><text text-anchor="start" x="871.5" y="-664.7" font-family="sans-serif" font-size="11.00"> </text><text text-anchor="start" x="731.5" y="-644.7" font-family="sans-serif" font-size="11.00">firstName  </text><text text-anchor="start" x="796.5" y="-644.7" font-family="sans-serif" font-size="11.00">string  </text><text text-anchor="start" x="870.5" y="-644.7" font-family="sans-serif" font-size="11.00"> </text><text text-anchor="start" x="731.5" y="-625.7" font-family="sans-serif" font-size="11.00">lastName  </text><text text-anchor="start" x="796.5" y="-625.7" font-family="sans-serif" font-size="11.00">string  </text><text text-anchor="start" x="870.5" y="-625.7" font-family="sans-serif" font-size="11.00"> </text><text text-anchor="start" x="731.5" y="-606.7" font-family="sans-serif" font-size="11.00">age  </text><text text-anchor="start" x="796.5" y="-606.7" font-family="sans-serif" font-size="11.00">integer  </text><text text-anchor="start" x="870.5" y="-606.7" font-family="sans-serif" font-size="11.00"> </text><polygon fill="#f5e2b8" stroke="transparent" points="727.5,-576.5 727.5,-600.5 792.5,-600.5 792.5,-576.5 727.5,-576.5"/><text text-anchor="start" x="731.5" y="-587.7" font-family="sans-serif" font-size="11.00">salary  </text><polygon fill="#f5e2b8" stroke="transparent" points="792.5,-576.5 792.5,-600.5 866.5,-600.5 866.5,-576.5 792.5,-576.5"/><text text-anchor="start" x="796.5" y="-587.7" font-family="sans-serif" font-size="11.00">number1  </text><polygon fill="#f5e2b8" stroke="transparent" points="866.5,-576.5 866.5,-600.5 916.5,-600.5 916.5,-576.5 866.5,-576.5"/><text text-anchor="start" x="870.44" y="-587.9" font-family="sans-serif" font-weight="bold" font-size="12.00" fill="#ff0000">①</text><text text-anchor="start" x="882.44" y="-587.9" font-family="sans-serif" font-size="11.00"> </text><text text-anchor="start" x="885.5" y="-587.9" font-family="sans-serif" font-weight="bold" font-size="12.00" fill="#ff7200">②</text><text text-anchor="start" x="897.5" y="-587.9" font-family="sans-serif" font-size="11.00"> </text><text text-anchor="start" x="900.56" y="-587.9" font-family="sans-serif" font-weight="bold" font-size="12.00" fill="#ff0000">④</text><polygon fill="#f5e2b8" stroke="transparent" points="727.5,-552.5 727.5,-576.5 792.5,-576.5 792.5,-552.5 727.5,-552.5"/><text text-anchor="start" x="731.5" y="-563.7" font-family="sans-serif" font-size="11.00">role2  </text><polygon fill="#f5e2b8" stroke="transparent" points="792.5,-552.5 792.5,-576.5 866.5,-576.5 866.5,-552.5 792.5,-552.5"/><text text-anchor="start" x="796.18" y="-563.7" font-family="sans-serif" font-size="11.00">array[object]  </text><polygon fill="#f5e2b8" stroke="transparent" points="866.5,-552.5 866.5,-576.5 916.5,-576.5 916.5,-552.5 866.5,-552.5"/><text text-anchor="start" x="870.5" y="-563.9" font-family="sans-serif" font-weight="bold" font-size="12.00" fill="#ff7200">③</text><polyline fill="none" stroke="black" points="727.5,-531.5 792.5,-531.5 "/><text text-anchor="start" x="732.5" y="-538.7" font-family="sans-serif" font-size="11.00">gender  </text><polyline fill="none" stroke="black" points="792.5,-531.5 866.5,-531.5 "/><text text-anchor="start" x="797.41" y="-538.7" font-family="sans-serif" font-size="11.00">array[string]  </text><polyline fill="none" stroke="black" points="866.5,-531.5 916.5,-531.5 "/><text text-anchor="start" x="871.5" y="-538.7" font-family="sans-serif" font-size="11.00"> </text><polygon fill="none" stroke="black" points="726,-531 726,-680 917,-680 917,-531 726,-531"/></g><!-- node12877&#45;&gt;node12878 --><g id="edge1" class="edge"><title>node12877&#45;&gt;node12878</title><path fill="none" stroke="black" d="M821.5,-709.55C821.5,-701.34 821.5,-692.75 821.5,-684.17"/><polygon fill="black" stroke="black" points="818,-709.71 821.5,-719.71 825,-709.71 818,-709.71"/></g><!-- node12879 --><g id="node3" class="node"><title>node12879</title><polygon fill="#f5f0e4" stroke="transparent" points="8,-409 8,-472 225,-472 225,-409 8,-409"/><polyline fill="none" stroke="black" points="9.5,-449.5 78.5,-449.5 "/><text text-anchor="start" x="14.5" y="-457.7" font-family="sans-serif" font-weight="bold" font-size="11.00">firstName  </text><polyline fill="none" stroke="black" points="78.5,-449.5 211.5,-449.5 "/><text text-anchor="start" x="83.5" y="-457.7" font-family="sans-serif" font-weight="bold" font-size="11.00">string  </text><polyline fill="none" stroke="black" points="211.5,-449.5 224.5,-449.5 "/><text text-anchor="start" x="216.47" y="-456.7" font-family="sans-serif" font-size="11.00"> </text><text text-anchor="start" x="13.5" y="-436.7" font-family="sans-serif" font-size="11.00">maxLength  </text><text text-anchor="start" x="82.5" y="-436.7" font-family="sans-serif" font-size="11.00">10  </text><text text-anchor="start" x="215.5" y="-436.7" font-family="sans-serif" font-size="11.00"> </text><polyline fill="none" stroke="black" points="9.5,-409.5 78.5,-409.5 "/><text text-anchor="start" x="14.35" y="-416.7" font-family="sans-serif" font-size="11.00">description  </text><polyline fill="none" stroke="black" points="78.5,-409.5 211.5,-409.5 "/><text text-anchor="start" x="83.12" y="-416.7" font-family="sans-serif" font-size="11.00">The person&#39;s first name.  </text><polyline fill="none" stroke="black" points="211.5,-409.5 224.5,-409.5 "/><text text-anchor="start" x="216.47" y="-416.7" font-family="sans-serif" font-size="11.00"> </text><polygon fill="none" stroke="black" points="8,-409 8,-472 225,-472 225,-409 8,-409"/></g><!-- node12878&#45;&gt;node12879 --><g id="edge2" class="edge"><title>node12878&#45;&gt;node12879</title><path fill="none" stroke="black" d="M707.8,-588.44C589.99,-570.35 401.23,-537.32 242.5,-491 227.95,-486.75 212.73,-481.5 198.11,-476.03"/><polygon fill="black" stroke="black" points="707.51,-591.93 717.92,-589.98 708.56,-585.01 707.51,-591.93"/></g><!-- node12880 --><g id="node4" class="node"><title>node12880</title><polygon fill="#f5f0e4" stroke="transparent" points="259,-418.5 259,-462.5 476,-462.5 476,-418.5 259,-418.5"/><polyline fill="none" stroke="black" points="260.5,-440.5 329.5,-440.5 "/><text text-anchor="start" x="265.5" y="-448.7" font-family="sans-serif" font-weight="bold" font-size="11.00">lastName  </text><polyline fill="none" stroke="black" points="329.5,-440.5 462.5,-440.5 "/><text text-anchor="start" x="334.5" y="-448.7" font-family="sans-serif" font-weight="bold" font-size="11.00">string  </text><polyline fill="none" stroke="black" points="462.5,-440.5 475.5,-440.5 "/><text text-anchor="start" x="467.47" y="-447.7" font-family="sans-serif" font-size="11.00"> </text><polyline fill="none" stroke="black" points="260.5,-419.5 329.5,-419.5 "/><text text-anchor="start" x="265.35" y="-426.7" font-family="sans-serif" font-size="11.00">description  </text><polyline fill="none" stroke="black" points="329.5,-419.5 462.5,-419.5 "/><text text-anchor="start" x="334.42" y="-426.7" font-family="sans-serif" font-size="11.00">The person&#39;s last name.  </text><polyline fill="none" stroke="black" points="462.5,-419.5 475.5,-419.5 "/><text text-anchor="start" x="467.47" y="-426.7" font-family="sans-serif" font-size="11.00"> </text><polygon fill="none" stroke="black" points="259,-418.5 259,-462.5 476,-462.5 476,-418.5 259,-418.5"/></g><!-- node12878&#45;&gt;node12880 --><g id="edge3" class="edge"><title>node12878&#45;&gt;node12880</title><path fill="none" stroke="black" d="M708.08,-566.54C644.72,-545.01 564.47,-517.21 493.5,-491 472.67,-483.31 450.04,-474.55 429.79,-466.56"/><polygon fill="black" stroke="black" points="707.11,-569.9 717.7,-569.8 709.36,-563.27 707.11,-569.9"/></g><!-- node12881 --><g id="node5" class="node"><title>node12881</title><polygon fill="#f5f0e4" stroke="transparent" points="510,-394 510,-487 827,-487 827,-394 510,-394"/><polyline fill="none" stroke="black" points="511.5,-464.5 578.5,-464.5 "/><text text-anchor="start" x="516.5" y="-472.7" font-family="sans-serif" font-weight="bold" font-size="11.00">age  </text><polyline fill="none" stroke="black" points="578.5,-464.5 813.5,-464.5 "/><text text-anchor="start" x="583.5" y="-472.7" font-family="sans-serif" font-weight="bold" font-size="11.00">integer  </text><polyline fill="none" stroke="black" points="813.5,-464.5 826.5,-464.5 "/><text text-anchor="start" x="818.47" y="-471.7" font-family="sans-serif" font-size="11.00"> </text><text text-anchor="start" x="515.35" y="-451.7" font-family="sans-serif" font-size="11.00">description  </text><text text-anchor="start" x="582.27" y="-451.7" font-family="sans-serif" font-size="11.00">Age in years which must be equal to or greater</text><text text-anchor="start" x="668.48" y="-440.7" font-family="sans-serif" font-size="11.00">than zero.  </text><text text-anchor="start" x="817.5" y="-451.7" font-family="sans-serif" font-size="11.00"> </text><text text-anchor="start" x="515.5" y="-421.7" font-family="sans-serif" font-size="11.00">minimum  </text><text text-anchor="start" x="582.5" y="-421.7" font-family="sans-serif" font-size="11.00">0  </text><text text-anchor="start" x="817.5" y="-421.7" font-family="sans-serif" font-size="11.00"> </text><polyline fill="none" stroke="black" points="511.5,-394.5 578.5,-394.5 "/><text text-anchor="start" x="516.5" y="-401.7" font-family="sans-serif" font-size="11.00">maximum  </text><polyline fill="none" stroke="black" points="578.5,-394.5 813.5,-394.5 "/><text text-anchor="start" x="583.5" y="-401.7" font-family="sans-serif" font-size="11.00">200  </text><polyline fill="none" stroke="black" points="813.5,-394.5 826.5,-394.5 "/><text text-anchor="start" x="818.47" y="-401.7" font-family="sans-serif" font-size="11.00"> </text><polygon fill="none" stroke="black" points="510,-394 510,-487 827,-487 827,-394 510,-394"/></g><!-- node12878&#45;&gt;node12881 --><g id="edge4" class="edge"><title>node12878&#45;&gt;node12881</title><path fill="none" stroke="black" d="M741.64,-519.42C732.56,-509.75 723.55,-500.14 715.11,-491.15"/><polygon fill="black" stroke="black" points="739.19,-521.92 748.58,-526.82 744.29,-517.13 739.19,-521.92"/></g><!-- node12882 --><g id="node6" class="node"><title>node12882</title><polygon fill="#f5f0e4" stroke="transparent" points="861,-406.5 861,-474.5 1088,-474.5 1088,-406.5 861,-406.5"/><polygon fill="#f5e2b8" stroke="transparent" points="862.5,-447.5 862.5,-473.5 929.5,-473.5 929.5,-447.5 862.5,-447.5"/><polyline fill="none" stroke="black" points="862.5,-447.5 929.5,-447.5 "/><text text-anchor="start" x="867.5" y="-460.7" font-family="sans-serif" font-weight="bold" font-size="11.00">salary  </text><polygon fill="#f5e2b8" stroke="transparent" points="929.5,-447.5 929.5,-473.5 1035.5,-473.5 1035.5,-447.5 929.5,-447.5"/><polyline fill="none" stroke="black" points="929.5,-447.5 1035.5,-447.5 "/><text text-anchor="start" x="934.5" y="-460.7" font-family="sans-serif" font-weight="bold" font-size="11.00">number1  </text><polygon fill="#f5e2b8" stroke="transparent" points="1035.5,-447.5 1035.5,-473.5 1087.5,-473.5 1087.5,-447.5 1035.5,-447.5"/><polyline fill="none" stroke="black" points="1035.5,-447.5 1087.5,-447.5 "/><text text-anchor="start" x="1040.44" y="-459.9" font-family="sans-serif" font-weight="bold" font-size="12.00" fill="#ff0000">①</text><text text-anchor="start" x="1052.44" y="-459.9" font-family="sans-serif" font-size="11.00"> </text><text text-anchor="start" x="1055.5" y="-459.9" font-family="sans-serif" font-weight="bold" font-size="12.00" fill="#ff7200">②</text><text text-anchor="start" x="1067.5" y="-459.9" font-family="sans-serif" font-size="11.00"> </text><text text-anchor="start" x="1070.56" y="-459.9" font-family="sans-serif" font-weight="bold" font-size="12.00" fill="#ff0000">④</text><text text-anchor="start" x="866.35" y="-434.7" font-family="sans-serif" font-size="11.00">description  </text><text text-anchor="start" x="933.28" y="-434.7" font-family="sans-serif" font-size="11.00">Salary of a person.  </text><text text-anchor="start" x="1039.5" y="-434.7" font-family="sans-serif" font-size="11.00"> </text><polyline fill="none" stroke="black" points="862.5,-407.5 929.5,-407.5 "/><text text-anchor="start" x="867.5" y="-414.7" font-family="sans-serif" font-size="11.00">multipleOf  </text><polyline fill="none" stroke="black" points="929.5,-407.5 1035.5,-407.5 "/><text text-anchor="start" x="934.5" y="-414.7" font-family="sans-serif" font-size="11.00">2.0  </text><polyline fill="none" stroke="black" points="1035.5,-407.5 1087.5,-407.5 "/><text text-anchor="start" x="1040.5" y="-414.7" font-family="sans-serif" font-size="11.00"> </text><polygon fill="none" stroke="black" points="861,-406.5 861,-474.5 1088,-474.5 1088,-406.5 861,-406.5"/></g><!-- node12878&#45;&gt;node12882 --><g id="edge5" class="edge"><title>node12878&#45;&gt;node12882</title><path fill="none" stroke="black" d="M901.41,-519.37C914.78,-505.12 928.02,-491.02 939.47,-478.82"/><polygon fill="black" stroke="black" points="898.71,-517.13 894.42,-526.82 903.81,-521.92 898.71,-517.13"/></g><!-- node12883 --><g id="node7" class="node"><title>node12883</title><polygon fill="#f5f0e4" stroke="transparent" points="1122,-397 1122,-484 1283,-484 1283,-397 1122,-397"/><polygon fill="#f5e2b8" stroke="transparent" points="1123.5,-456.5 1123.5,-482.5 1184.5,-482.5 1184.5,-456.5 1123.5,-456.5"/><polyline fill="none" stroke="black" points="1123.5,-456.5 1184.5,-456.5 "/><text text-anchor="start" x="1128.5" y="-469.7" font-family="sans-serif" font-weight="bold" font-size="11.00">role2  </text><polygon fill="#f5e2b8" stroke="transparent" points="1184.5,-456.5 1184.5,-482.5 1260.5,-482.5 1260.5,-456.5 1184.5,-456.5"/><polyline fill="none" stroke="black" points="1184.5,-456.5 1260.5,-456.5 "/><text text-anchor="start" x="1189.18" y="-469.7" font-family="sans-serif" font-weight="bold" font-size="11.00">array[object]  </text><polygon fill="#f5e2b8" stroke="transparent" points="1260.5,-456.5 1260.5,-482.5 1282.5,-482.5 1282.5,-456.5 1260.5,-456.5"/><polyline fill="none" stroke="black" points="1260.5,-456.5 1282.5,-456.5 "/><text text-anchor="start" x="1265.5" y="-468.9" font-family="sans-serif" font-weight="bold" font-size="12.00" fill="#ff7200">③</text><text text-anchor="start" x="1127.5" y="-443.7" font-family="sans-serif" font-size="11.00">minItems  </text><text text-anchor="start" x="1188.5" y="-443.7" font-family="sans-serif" font-size="11.00">2  </text><text text-anchor="start" x="1264.5" y="-443.7" font-family="sans-serif" font-size="11.00"> </text><text text-anchor="start" x="1127.11" y="-424.7" font-family="sans-serif" font-size="11.00">maxItems  </text><text text-anchor="start" x="1188.5" y="-424.7" font-family="sans-serif" font-size="11.00">10  </text><text text-anchor="start" x="1264.5" y="-424.7" font-family="sans-serif" font-size="11.00"> </text><polyline fill="none" stroke="black" points="1123.5,-397.5 1184.5,-397.5 "/><text text-anchor="start" x="1128.5" y="-404.7" font-family="sans-serif" font-size="11.00">items  </text><polyline fill="none" stroke="black" points="1184.5,-397.5 1260.5,-397.5 "/><text text-anchor="start" x="1189.5" y="-404.7" font-family="sans-serif" font-size="11.00">object  </text><polyline fill="none" stroke="black" points="1260.5,-397.5 1282.5,-397.5 "/><text text-anchor="start" x="1265.5" y="-404.7" font-family="sans-serif" font-size="11.00"> </text><polygon fill="none" stroke="black" points="1122,-397 1122,-484 1283,-484 1283,-397 1122,-397"/></g><!-- node12878&#45;&gt;node12883 --><g id="edge6" class="edge"><title>node12878&#45;&gt;node12883</title><path fill="none" stroke="black" d="M934.65,-562.02C987.1,-541.64 1049.97,-516.2 1105.5,-491 1108.25,-489.75 1111.04,-488.46 1113.85,-487.15"/><polygon fill="black" stroke="black" points="933.38,-558.76 925.32,-565.64 935.91,-565.29 933.38,-558.76"/></g><!-- node12888 --><g id="node12" class="node"><title>node12888</title><polygon fill="#f5f0e4" stroke="transparent" points="1322,-418.5 1322,-462.5 1461,-462.5 1461,-418.5 1322,-418.5"/><polyline fill="none" stroke="black" points="1323.5,-440.5 1373.5,-440.5 "/><text text-anchor="start" x="1328.32" y="-448.7" font-family="sans-serif" font-weight="bold" font-size="11.00">gender  </text><polyline fill="none" stroke="black" points="1373.5,-440.5 1447.5,-440.5 "/><text text-anchor="start" x="1378.41" y="-448.7" font-family="sans-serif" font-weight="bold" font-size="11.00">array[string]  </text><polyline fill="none" stroke="black" points="1447.5,-440.5 1460.5,-440.5 "/><text text-anchor="start" x="1452.47" y="-447.7" font-family="sans-serif" font-size="11.00"> </text><polyline fill="none" stroke="black" points="1323.5,-419.5 1373.5,-419.5 "/><text text-anchor="start" x="1328.5" y="-426.7" font-family="sans-serif" font-size="11.00">items  </text><polyline fill="none" stroke="black" points="1373.5,-419.5 1447.5,-419.5 "/><text text-anchor="start" x="1378.5" y="-426.7" font-family="sans-serif" font-size="11.00">string  </text><polyline fill="none" stroke="black" points="1447.5,-419.5 1460.5,-419.5 "/><text text-anchor="start" x="1452.47" y="-426.7" font-family="sans-serif" font-size="11.00"> </text><polygon fill="none" stroke="black" points="1322,-418.5 1322,-462.5 1461,-462.5 1461,-418.5 1322,-418.5"/></g><!-- node12878&#45;&gt;node12888 --><g id="edge7" class="edge"><title>node12878&#45;&gt;node12888</title><path fill="none" stroke="black" d="M935.25,-586.35C1033.93,-568.54 1179.54,-537.28 1300.5,-491 1317.63,-484.44 1335.56,-475.25 1350.93,-466.57"/><polygon fill="black" stroke="black" points="934.48,-582.93 925.25,-588.13 935.71,-589.82 934.48,-582.93"/></g><!-- node12884 --><g id="node8" class="node"><title>node12884</title><polygon fill="#f5f0e4" stroke="transparent" points="1131,-287 1131,-350 1262,-350 1262,-287 1131,-287"/><polyline fill="none" stroke="black" points="1132.5,-327.5 1199.5,-327.5 "/><text text-anchor="start" x="1137.5" y="-335.7" font-family="sans-serif" font-weight="bold" font-size="11.00">items  </text><polyline fill="none" stroke="black" points="1199.5,-327.5 1248.5,-327.5 "/><text text-anchor="start" x="1204.5" y="-335.7" font-family="sans-serif" font-weight="bold" font-size="11.00">object  </text><polyline fill="none" stroke="black" points="1248.5,-327.5 1261.5,-327.5 "/><text text-anchor="start" x="1253.47" y="-334.7" font-family="sans-serif" font-size="11.00"> </text><text text-anchor="start" x="1136.35" y="-314.7" font-family="sans-serif" font-size="11.00">description  </text><text text-anchor="start" x="1203.22" y="-314.7" font-family="sans-serif" font-size="11.00">class B  </text><text text-anchor="start" x="1252.5" y="-314.7" font-family="sans-serif" font-size="11.00"> </text><polyline fill="none" stroke="black" points="1132.5,-287.5 1199.5,-287.5 "/><text text-anchor="start" x="1137.5" y="-294.7" font-family="sans-serif" font-size="11.00">properties  </text><polyline fill="none" stroke="black" points="1199.5,-287.5 1248.5,-287.5 "/><text text-anchor="start" x="1204.5" y="-294.7" font-family="sans-serif" font-size="11.00">object  </text><polyline fill="none" stroke="black" points="1248.5,-287.5 1261.5,-287.5 "/><text text-anchor="start" x="1253.47" y="-294.7" font-family="sans-serif" font-size="11.00"> </text><polygon fill="none" stroke="black" points="1131,-287 1131,-350 1262,-350 1262,-287 1131,-287"/></g><!-- node12883&#45;&gt;node12884 --><g id="edge8" class="edge"><title>node12883&#45;&gt;node12884</title><path fill="none" stroke="black" d="M1199.66,-382.66C1199.17,-372.88 1198.67,-362.99 1198.23,-354.03"/><polygon fill="black" stroke="black" points="1196.17,-382.95 1200.16,-392.76 1203.16,-382.6 1196.17,-382.95"/></g><!-- node12885 --><g id="node9" class="node"><title>node12885</title><polygon fill="#f5f0e4" stroke="transparent" points="1128.5,-199 1128.5,-243 1264.5,-243 1264.5,-199 1128.5,-199"/><polyline fill="none" stroke="black" points="1129.5,-221 1194.5,-221 "/><text text-anchor="start" x="1134.49" y="-229.2" font-family="sans-serif" font-weight="bold" font-size="11.00">properties  </text><polyline fill="none" stroke="black" points="1194.5,-221 1250.5,-221 "/><text text-anchor="start" x="1199.5" y="-229.2" font-family="sans-serif" font-weight="bold" font-size="11.00">object  </text><polyline fill="none" stroke="black" points="1250.5,-221 1263.5,-221 "/><text text-anchor="start" x="1255.47" y="-228.2" font-family="sans-serif" font-size="11.00"> </text><polyline fill="none" stroke="black" points="1129.5,-200 1194.5,-200 "/><text text-anchor="start" x="1134.5" y="-207.2" font-family="sans-serif" font-size="11.00">b1  </text><polyline fill="none" stroke="black" points="1194.5,-200 1250.5,-200 "/><text text-anchor="start" x="1199.03" y="-207.2" font-family="sans-serif" font-size="11.00">[&quot;string&quot;]  </text><polyline fill="none" stroke="black" points="1250.5,-200 1263.5,-200 "/><text text-anchor="start" x="1255.47" y="-207.2" font-family="sans-serif" font-size="11.00"> </text><polygon fill="none" stroke="black" points="1128.5,-199 1128.5,-243 1264.5,-243 1264.5,-199 1128.5,-199"/></g><!-- node12884&#45;&gt;node12885 --><g id="edge9" class="edge"><title>node12884&#45;&gt;node12885</title><path fill="none" stroke="black" d="M1196.5,-272.65C1196.5,-263.94 1196.5,-255.1 1196.5,-247.29"/><polygon fill="black" stroke="black" points="1193,-272.75 1196.5,-282.75 1200,-272.75 1193,-272.75"/></g><!-- node12886 --><g id="node10" class="node"><title>node12886</title><polygon fill="#f5f0e4" stroke="transparent" points="1133,-111 1133,-155 1260,-155 1260,-111 1133,-111"/><polyline fill="none" stroke="black" points="1134.5,-133 1172.5,-133 "/><text text-anchor="start" x="1139.5" y="-141.2" font-family="sans-serif" font-weight="bold" font-size="11.00">b1  </text><polyline fill="none" stroke="black" points="1172.5,-133 1246.5,-133 "/><text text-anchor="start" x="1177.5" y="-141.2" font-family="sans-serif" font-weight="bold" font-size="11.00">[&quot;string&quot;]  </text><polyline fill="none" stroke="black" points="1246.5,-133 1259.5,-133 "/><text text-anchor="start" x="1251.47" y="-140.2" font-family="sans-serif" font-size="11.00"> </text><polyline fill="none" stroke="black" points="1134.5,-112 1172.5,-112 "/><text text-anchor="start" x="1139.14" y="-119.2" font-family="sans-serif" font-size="11.00">allOf  </text><polyline fill="none" stroke="black" points="1172.5,-112 1246.5,-112 "/><text text-anchor="start" x="1177.41" y="-119.2" font-family="sans-serif" font-size="11.00">array[string]  </text><polyline fill="none" stroke="black" points="1246.5,-112 1259.5,-112 "/><text text-anchor="start" x="1251.47" y="-119.2" font-family="sans-serif" font-size="11.00"> </text><polygon fill="none" stroke="black" points="1133,-111 1133,-155 1260,-155 1260,-111 1133,-111"/></g><!-- node12885&#45;&gt;node12886 --><g id="edge10" class="edge"><title>node12885&#45;&gt;node12886</title><path fill="none" stroke="black" d="M1196.5,-184.56C1196.5,-176.04 1196.5,-167.1 1196.5,-159.16"/><polygon fill="black" stroke="black" points="1193,-184.66 1196.5,-194.66 1200,-184.66 1193,-184.66"/></g><!-- node12887 --><g id="node11" class="node"><title>node12887</title><polygon fill="#f5f0e4" stroke="transparent" points="1126.5,-4 1126.5,-67 1266.5,-67 1266.5,-4 1126.5,-4"/><polyline fill="none" stroke="black" points="1127.5,-44.5 1178.5,-44.5 "/><text text-anchor="start" x="1132.5" y="-52.7" font-family="sans-serif" font-weight="bold" font-size="11.00">allOf  </text><polyline fill="none" stroke="black" points="1178.5,-44.5 1252.5,-44.5 "/><text text-anchor="start" x="1183.41" y="-52.7" font-family="sans-serif" font-weight="bold" font-size="11.00">array[string]  </text><polyline fill="none" stroke="black" points="1252.5,-44.5 1265.5,-44.5 "/><text text-anchor="start" x="1257.47" y="-51.7" font-family="sans-serif" font-size="11.00"> </text><text text-anchor="start" x="1131.5" y="-31.7" font-family="sans-serif" font-size="11.00">Jude  </text><text text-anchor="start" x="1182.5" y="-31.7" font-family="sans-serif" font-size="11.00">string  </text><text text-anchor="start" x="1256.5" y="-31.7" font-family="sans-serif" font-size="11.00"> </text><polyline fill="none" stroke="black" points="1127.5,-4.5 1178.5,-4.5 "/><text text-anchor="start" x="1132.21" y="-11.7" font-family="sans-serif" font-size="11.00">Gunjan  </text><polyline fill="none" stroke="black" points="1178.5,-4.5 1252.5,-4.5 "/><text text-anchor="start" x="1183.5" y="-11.7" font-family="sans-serif" font-size="11.00">string  </text><polyline fill="none" stroke="black" points="1252.5,-4.5 1265.5,-4.5 "/><text text-anchor="start" x="1257.47" y="-11.7" font-family="sans-serif" font-size="11.00"> </text><polygon fill="none" stroke="black" points="1126.5,-4 1126.5,-67 1266.5,-67 1266.5,-4 1126.5,-4"/></g><!-- node12886&#45;&gt;node12887 --><g id="edge11" class="edge"><title>node12886&#45;&gt;node12887</title><path fill="none" stroke="black" d="M1196.5,-96.7C1196.5,-88.35 1196.5,-79.44 1196.5,-71.12"/><polygon fill="black" stroke="black" points="1193,-96.91 1196.5,-106.91 1200,-96.91 1193,-96.91"/></g><!-- node12889 --><g id="node13" class="node"><title>node12889</title><polygon fill="#f5f0e4" stroke="transparent" points="1296,-296.5 1296,-340.5 1509,-340.5 1509,-296.5 1296,-296.5"/><polyline fill="none" stroke="black" points="1297.5,-318.5 1340.5,-318.5 "/><text text-anchor="start" x="1302.5" y="-326.7" font-family="sans-serif" font-weight="bold" font-size="11.00">items  </text><polyline fill="none" stroke="black" points="1340.5,-318.5 1495.5,-318.5 "/><text text-anchor="start" x="1345.5" y="-326.7" font-family="sans-serif" font-weight="bold" font-size="11.00">string  </text><polyline fill="none" stroke="black" points="1495.5,-318.5 1508.5,-318.5 "/><text text-anchor="start" x="1500.47" y="-325.7" font-family="sans-serif" font-size="11.00"> </text><polyline fill="none" stroke="black" points="1297.5,-297.5 1340.5,-297.5 "/><text text-anchor="start" x="1302.19" y="-304.7" font-family="sans-serif" font-size="11.00">enum  </text><polyline fill="none" stroke="black" points="1340.5,-297.5 1495.5,-297.5 "/><text text-anchor="start" x="1345.22" y="-304.7" font-family="sans-serif" font-size="11.00">[&quot;male&quot; &quot;female&quot; &quot;others&quot; &quot;x&quot;]  </text><polyline fill="none" stroke="black" points="1495.5,-297.5 1508.5,-297.5 "/><text text-anchor="start" x="1500.47" y="-304.7" font-family="sans-serif" font-size="11.00"> </text><polygon fill="none" stroke="black" points="1296,-296.5 1296,-340.5 1509,-340.5 1509,-296.5 1296,-296.5"/></g><!-- node12888&#45;&gt;node12889 --><g id="edge12" class="edge"><title>node12888&#45;&gt;node12889</title><path fill="none" stroke="black" d="M1394.74,-404.2C1396.49,-385.08 1398.61,-361.9 1400.2,-344.62"/><polygon fill="black" stroke="black" points="1391.23,-404.07 1393.81,-414.34 1398.2,-404.71 1391.23,-404.07"/></g></g></svg>