<svg width="1503pt" height="945pt" viewBox="0.00 0.00 1502.50 945.00" xmlns="http://www.w3.org/2000/svg" xmlns:xlink="http://www.w3.org/1999/xlink"><g id="graph0" class="graph" transform="scale(1 1) rotate(0) translate(4 941)"><title>%3</title><polygon fill="white" stroke="transparent" points="-4,4 -4,-941 1498.5,-941 1498.5,4 -4,4"/><!-- node7518 --><g id="node1" class="node"><title>node7518</title><polygon fill="#f5f0e4" stroke="transparent" points="695,-832 695,-933 972,-933 972,-832 695,-832"/><polyline fill="none" stroke="black" points="696.5,-910.5 961.5,-910.5 "/><text text-anchor="start" x="792.31" y="-917.7" font-family="sans-serif" font-size="11.00">object: &#160;Person</text><polyline fill="none" stroke="black" points="961.5,-910.5 971.5,-910.5 "/><text text-anchor="start" x="700.5" y="-897.7" font-family="sans-serif" font-size="11.00"> &#160;$id: &#160;https://example.com/person.schema.json</text><text text-anchor="start" x="700.3" y="-878.7" font-family="sans-serif" font-size="11.00"> &#160;$schema: &#160;http://json&#45;schema.org/draft&#45;07/schema#</text><polyline fill="none" stroke="black" points="696.5,-851.5 961.5,-851.5 "/><text text-anchor="start" x="701.5" y="-858.7" font-family="sans-serif" font-size="11.00"> &#160;properties: &#160;object</text><polyline fill="none" stroke="black" points="961.5,-851.5 971.5,-851.5 "/><text text-anchor="start" x="700.5" y="-838.7" font-family="sans-serif" font-size="11.00"> </text><polygon fill="none" stroke="black" points="695,-832 695,-933 972,-933 972,-832 695,-832"/></g><!-- node7519 --><g id="node2" class="node"><title>node7519</title><polygon fill="#f5f0e4" stroke="transparent" points="756.5,-620 756.5,-788 910.5,-788 910.5,-620 756.5,-620"/><polyline fill="none" stroke="black" points="757.5,-766 874.5,-766 "/><text text-anchor="start" x="772.28" y="-773.2" font-family="sans-serif" font-size="11.00">object: &#160;properties</text><polyline fill="none" stroke="black" points="874.5,-766 909.5,-766 "/><text text-anchor="start" x="761.5" y="-753.2" font-family="sans-serif" font-size="11.00"> &#160;firstName: &#160;string</text><text text-anchor="start" x="761.5" y="-734.2" font-family="sans-serif" font-size="11.00"> &#160;lastName: &#160;string</text><text text-anchor="start" x="761.5" y="-715.2" font-family="sans-serif" font-size="11.00"> &#160;age: &#160;integer</text><polygon fill="#f5e2b8" stroke="transparent" points="757.5,-685 757.5,-709 874.5,-709 874.5,-685 757.5,-685"/><text text-anchor="start" x="761.5" y="-693.7" font-family="sans-serif" font-size="11.00"> &#160;salary: &#160;number1</text><polygon fill="#f5e2b8" stroke="transparent" points="874.5,-685 874.5,-709 909.5,-709 909.5,-685 874.5,-685"/><text text-anchor="start" x="878.47" y="-696.4" font-family="sans-serif" font-weight="bold" font-size="12.00" fill="#ff0000">①</text><text text-anchor="start" x="890.47" y="-696.4" font-family="sans-serif" font-size="11.00"> </text><text text-anchor="start" x="893.53" y="-696.4" font-family="sans-serif" font-weight="bold" font-size="12.00" fill="#ff7200">②</text><polygon fill="#f5e2b8" stroke="transparent" points="757.5,-661 757.5,-685 874.5,-685 874.5,-661 757.5,-661"/><text text-anchor="start" x="761.5" y="-669.7" font-family="sans-serif" font-size="11.00"> &#160;role2: &#160;array[object]</text><polygon fill="#f5e2b8" stroke="transparent" points="874.5,-661 874.5,-685 909.5,-685 909.5,-661 874.5,-661"/><text text-anchor="start" x="878.5" y="-672.4" font-family="sans-serif" font-weight="bold" font-size="12.00" fill="#ff7200">③</text><polyline fill="none" stroke="black" points="757.5,-640 874.5,-640 "/><text text-anchor="start" x="762.2" y="-647.2" font-family="sans-serif" font-size="11.00"> &#160;gender: &#160;array[string]</text><polyline fill="none" stroke="black" points="874.5,-640 909.5,-640 "/><text text-anchor="start" x="761.5" y="-627.2" font-family="sans-serif" font-size="11.00"> </text><polygon fill="none" stroke="black" points="756.5,-620 756.5,-788 910.5,-788 910.5,-620 756.5,-620"/></g><!-- node7518&#45;&gt;node7519 --><g id="edge1" class="edge"><title>node7518&#45;&gt;node7519</title><path fill="none" stroke="black" d="M833.5,-817.35C833.5,-809.13 833.5,-800.6 833.5,-792.09"/><polygon fill="black" stroke="black" points="830,-817.59 833.5,-827.59 837,-817.59 830,-817.59"/></g><!-- node7520 --><g id="node3" class="node"><title>node7520</title><polygon fill="#f5f0e4" stroke="transparent" points="8,-482 8,-564 215,-564 215,-482 8,-482"/><polyline fill="none" stroke="black" points="9.5,-542 204.5,-542 "/><text text-anchor="start" x="65.44" y="-549.2" font-family="sans-serif" font-size="11.00">string: &#160;firstName</text><polyline fill="none" stroke="black" points="204.5,-542 214.5,-542 "/><text text-anchor="start" x="13.5" y="-529.2" font-family="sans-serif" font-size="11.00"> &#160;maxLength: &#160;10</text><polyline fill="none" stroke="black" points="9.5,-502 204.5,-502 "/><text text-anchor="start" x="14.03" y="-509.2" font-family="sans-serif" font-size="11.00"> &#160;description: &#160;The person&#39;s first name.</text><polyline fill="none" stroke="black" points="204.5,-502 214.5,-502 "/><text text-anchor="start" x="13.5" y="-489.2" font-family="sans-serif" font-size="11.00"> </text><polygon fill="none" stroke="black" points="8,-482 8,-564 215,-564 215,-482 8,-482"/></g><!-- node7519&#45;&gt;node7520 --><g id="edge2" class="edge"><title>node7519&#45;&gt;node7520</title><path fill="none" stroke="black" d="M738.2,-690.6C617.98,-673.36 405.88,-637.61 231.5,-580 221.13,-576.57 210.48,-572.49 200,-568.11"/><polygon fill="black" stroke="black" points="737.72,-694.07 748.12,-692.01 738.71,-687.14 737.72,-694.07"/></g><!-- node7521 --><g id="node4" class="node"><title>node7521</title><polygon fill="#f5f0e4" stroke="transparent" points="249,-491.5 249,-554.5 456,-554.5 456,-491.5 249,-491.5"/><polyline fill="none" stroke="black" points="250.5,-532 445.5,-532 "/><text text-anchor="start" x="306.74" y="-539.2" font-family="sans-serif" font-size="11.00">string: &#160;lastName</text><polyline fill="none" stroke="black" points="445.5,-532 455.5,-532 "/><polyline fill="none" stroke="black" points="250.5,-511 445.5,-511 "/><text text-anchor="start" x="255.34" y="-518.2" font-family="sans-serif" font-size="11.00"> &#160;description: &#160;The person&#39;s last name.</text><polyline fill="none" stroke="black" points="445.5,-511 455.5,-511 "/><text text-anchor="start" x="254.5" y="-498.2" font-family="sans-serif" font-size="11.00"> </text><polygon fill="none" stroke="black" points="249,-491.5 249,-554.5 456,-554.5 456,-491.5 249,-491.5"/></g><!-- node7519&#45;&gt;node7521 --><g id="edge3" class="edge"><title>node7519&#45;&gt;node7521</title><path fill="none" stroke="black" d="M738.6,-673.77C665.2,-650.42 561.42,-615.77 472.5,-580 456.4,-573.52 439.35,-565.99 423.33,-558.6"/><polygon fill="black" stroke="black" points="737.71,-677.16 748.3,-676.85 739.83,-670.49 737.71,-677.16"/></g><!-- node7522 --><g id="node5" class="node"><title>node7522</title><polygon fill="#f5f0e4" stroke="transparent" points="490,-472.5 490,-573.5 857,-573.5 857,-472.5 490,-472.5"/><polyline fill="none" stroke="black" points="491.5,-551 846.5,-551 "/><text text-anchor="start" x="638.42" y="-558.2" font-family="sans-serif" font-size="11.00">integer: &#160;age</text><polyline fill="none" stroke="black" points="846.5,-551 856.5,-551 "/><text text-anchor="start" x="495.35" y="-538.2" font-family="sans-serif" font-size="11.00"> &#160;description: &#160;Age in years which must be equal to or greater than zero.</text><text text-anchor="start" x="495.5" y="-519.2" font-family="sans-serif" font-size="11.00"> &#160;minimum: &#160;0</text><polyline fill="none" stroke="black" points="491.5,-492 846.5,-492 "/><text text-anchor="start" x="496.5" y="-499.2" font-family="sans-serif" font-size="11.00"> &#160;maximum: &#160;200</text><polyline fill="none" stroke="black" points="846.5,-492 856.5,-492 "/><text text-anchor="start" x="495.5" y="-479.2" font-family="sans-serif" font-size="11.00"> </text><polygon fill="none" stroke="black" points="490,-472.5 490,-573.5 857,-573.5 857,-472.5 490,-472.5"/></g><!-- node7519&#45;&gt;node7522 --><g id="edge4" class="edge"><title>node7519&#45;&gt;node7522</title><path fill="none" stroke="black" d="M748.81,-608.25C739.49,-597.82 730.25,-587.48 721.6,-577.81"/><polygon fill="black" stroke="black" points="746.34,-610.74 755.61,-615.86 751.55,-606.07 746.34,-610.74"/></g><!-- node7523 --><g id="node6" class="node"><title>node7523</title><polygon fill="#f5f0e4" stroke="transparent" points="891,-479.5 891,-566.5 1098,-566.5 1098,-479.5 891,-479.5"/><polygon fill="#f5e2b8" stroke="transparent" points="892.5,-539 892.5,-565 1060.5,-565 1060.5,-539 892.5,-539"/><polyline fill="none" stroke="black" points="892.5,-539 1060.5,-539 "/><text text-anchor="start" x="935.54" y="-548.7" font-family="sans-serif" font-size="11.00">number1: &#160;salary</text><polygon fill="#f5e2b8" stroke="transparent" points="1060.5,-539 1060.5,-565 1097.5,-565 1097.5,-539 1060.5,-539"/><polyline fill="none" stroke="black" points="1060.5,-539 1097.5,-539 "/><text text-anchor="start" x="1065.47" y="-551.4" font-family="sans-serif" font-weight="bold" font-size="12.00" fill="#ff0000">①</text><text text-anchor="start" x="1077.47" y="-551.4" font-family="sans-serif" font-size="11.00"> </text><text text-anchor="start" x="1080.53" y="-551.4" font-family="sans-serif" font-weight="bold" font-size="12.00" fill="#ff7200">②</text><text text-anchor="start" x="896.1" y="-526.2" font-family="sans-serif" font-size="11.00"> &#160;description: &#160;Salary of a person.</text><polyline fill="none" stroke="black" points="892.5,-499 1060.5,-499 "/><text text-anchor="start" x="897.5" y="-506.2" font-family="sans-serif" font-size="11.00"> &#160;multipleOf: &#160;2.0</text><polyline fill="none" stroke="black" points="1060.5,-499 1097.5,-499 "/><text text-anchor="start" x="896.5" y="-486.2" font-family="sans-serif" font-size="11.00"> </text><polygon fill="none" stroke="black" points="891,-479.5 891,-566.5 1098,-566.5 1098,-479.5 891,-479.5"/></g><!-- node7519&#45;&gt;node7523 --><g id="edge5" class="edge"><title>node7519&#45;&gt;node7523</title><path fill="none" stroke="black" d="M918.8,-608.16C930.56,-595.09 942.17,-582.18 952.64,-570.54"/><polygon fill="black" stroke="black" points="915.96,-606.08 911.88,-615.86 921.17,-610.77 915.96,-606.08"/></g><!-- node7524 --><g id="node7" class="node"><title>node7524</title><polygon fill="#f5f0e4" stroke="transparent" points="1132.5,-470 1132.5,-576 1260.5,-576 1260.5,-470 1132.5,-470"/><polygon fill="#f5e2b8" stroke="transparent" points="1133.5,-549 1133.5,-575 1237.5,-575 1237.5,-549 1133.5,-549"/><polyline fill="none" stroke="black" points="1133.5,-549 1237.5,-549 "/><text text-anchor="start" x="1138.42" y="-558.7" font-family="sans-serif" font-size="11.00">array[object]: &#160;role2</text><polygon fill="#f5e2b8" stroke="transparent" points="1237.5,-549 1237.5,-575 1259.5,-575 1259.5,-549 1237.5,-549"/><polyline fill="none" stroke="black" points="1237.5,-549 1259.5,-549 "/><text text-anchor="start" x="1242.5" y="-561.4" font-family="sans-serif" font-weight="bold" font-size="12.00" fill="#ff7200">③</text><text text-anchor="start" x="1137.5" y="-536.2" font-family="sans-serif" font-size="11.00"> &#160;minItems: &#160;2</text><text text-anchor="start" x="1137.5" y="-517.2" font-family="sans-serif" font-size="11.00"> &#160;maxItems: &#160;10</text><polyline fill="none" stroke="black" points="1133.5,-490 1237.5,-490 "/><text text-anchor="start" x="1138.5" y="-497.2" font-family="sans-serif" font-size="11.00"> &#160;items: &#160;object</text><polyline fill="none" stroke="black" points="1237.5,-490 1259.5,-490 "/><text text-anchor="start" x="1137.5" y="-477.2" font-family="sans-serif" font-size="11.00"> </text><polygon fill="none" stroke="black" points="1132.5,-470 1132.5,-576 1260.5,-576 1260.5,-470 1132.5,-470"/></g><!-- node7519&#45;&gt;node7524 --><g id="edge6" class="edge"><title>node7519&#45;&gt;node7524</title><path fill="none" stroke="black" d="M928.25,-666.69C983.75,-644.17 1054.5,-613.24 1114.5,-580 1117.67,-578.25 1120.87,-576.4 1124.07,-574.5"/><polygon fill="black" stroke="black" points="926.73,-663.53 918.77,-670.52 929.35,-670.02 926.73,-663.53"/></g><!-- node7529 --><g id="node12" class="node"><title>node7529</title><polygon fill="#f5f0e4" stroke="transparent" points="1314,-491.5 1314,-554.5 1437,-554.5 1437,-491.5 1314,-491.5"/><polyline fill="none" stroke="black" points="1315.5,-532 1426.5,-532 "/><text text-anchor="start" x="1320.25" y="-539.2" font-family="sans-serif" font-size="11.00">array[string]: &#160;gender</text><polyline fill="none" stroke="black" points="1426.5,-532 1436.5,-532 "/><polyline fill="none" stroke="black" points="1315.5,-511 1426.5,-511 "/><text text-anchor="start" x="1320.5" y="-518.2" font-family="sans-serif" font-size="11.00"> &#160;items: &#160;string</text><polyline fill="none" stroke="black" points="1426.5,-511 1436.5,-511 "/><text text-anchor="start" x="1319.5" y="-498.2" font-family="sans-serif" font-size="11.00"> </text><polygon fill="none" stroke="black" points="1314,-491.5 1314,-554.5 1437,-554.5 1437,-491.5 1314,-491.5"/></g><!-- node7519&#45;&gt;node7529 --><g id="edge7" class="edge"><title>node7519&#45;&gt;node7529</title><path fill="none" stroke="black" d="M928.44,-683.9C1019.93,-663.84 1161.2,-628.45 1277.5,-580 1291.88,-574.01 1306.78,-566.34 1320.49,-558.61"/><polygon fill="black" stroke="black" points="927.67,-680.49 918.65,-686.04 929.16,-687.33 927.67,-680.49"/></g><!-- node7525 --><g id="node8" class="node"><title>node7525</title><polygon fill="#f5f0e4" stroke="transparent" points="1125,-344 1125,-426 1248,-426 1248,-344 1125,-344"/><polyline fill="none" stroke="black" points="1126.5,-404 1237.5,-404 "/><text text-anchor="start" x="1149.6" y="-411.2" font-family="sans-serif" font-size="11.00">object: &#160;items</text><polyline fill="none" stroke="black" points="1237.5,-404 1247.5,-404 "/><text text-anchor="start" x="1130.03" y="-391.2" font-family="sans-serif" font-size="11.00"> &#160;description: &#160;class B</text><polyline fill="none" stroke="black" points="1126.5,-364 1237.5,-364 "/><text text-anchor="start" x="1131.5" y="-371.2" font-family="sans-serif" font-size="11.00"> &#160;properties: &#160;object</text><polyline fill="none" stroke="black" points="1237.5,-364 1247.5,-364 "/><text text-anchor="start" x="1130.5" y="-351.2" font-family="sans-serif" font-size="11.00"> </text><polygon fill="none" stroke="black" points="1125,-344 1125,-426 1248,-426 1248,-344 1125,-344"/></g><!-- node7524&#45;&gt;node7525 --><g id="edge8" class="edge"><title>node7524&#45;&gt;node7525</title><path fill="none" stroke="black" d="M1191.63,-455.81C1191,-447.18 1190.36,-438.5 1189.76,-430.35"/><polygon fill="black" stroke="black" points="1188.15,-456.18 1192.37,-465.9 1195.13,-455.67 1188.15,-456.18"/></g><!-- node7526 --><g id="node9" class="node"><title>node7526</title><polygon fill="#f5f0e4" stroke="transparent" points="1132,-237 1132,-300 1241,-300 1241,-237 1132,-237"/><polyline fill="none" stroke="black" points="1133.5,-277.5 1230.5,-277.5 "/><text text-anchor="start" x="1138.28" y="-284.7" font-family="sans-serif" font-size="11.00">object: &#160;properties</text><polyline fill="none" stroke="black" points="1230.5,-277.5 1240.5,-277.5 "/><polyline fill="none" stroke="black" points="1133.5,-256.5 1230.5,-256.5 "/><text text-anchor="start" x="1138.5" y="-263.7" font-family="sans-serif" font-size="11.00"> &#160;b1: &#160;[&quot;string&quot;]</text><polyline fill="none" stroke="black" points="1230.5,-256.5 1240.5,-256.5 "/><text text-anchor="start" x="1137.5" y="-243.7" font-family="sans-serif" font-size="11.00"> </text><polygon fill="none" stroke="black" points="1132,-237 1132,-300 1241,-300 1241,-237 1132,-237"/></g><!-- node7525&#45;&gt;node7526 --><g id="edge9" class="edge"><title>node7525&#45;&gt;node7526</title><path fill="none" stroke="black" d="M1186.5,-329.61C1186.5,-320.92 1186.5,-312.13 1186.5,-304.06"/><polygon fill="black" stroke="black" points="1183,-329.73 1186.5,-339.73 1190,-329.73 1183,-329.73"/></g><!-- node7527 --><g id="node10" class="node"><title>node7527</title><polygon fill="#f5f0e4" stroke="transparent" points="1128,-130 1128,-193 1245,-193 1245,-130 1128,-130"/><polyline fill="none" stroke="black" points="1129.5,-170.5 1234.5,-170.5 "/><text text-anchor="start" x="1150.89" y="-177.7" font-family="sans-serif" font-size="11.00">[&quot;string&quot;]: &#160;b1</text><polyline fill="none" stroke="black" points="1234.5,-170.5 1244.5,-170.5 "/><polyline fill="none" stroke="black" points="1129.5,-149.5 1234.5,-149.5 "/><text text-anchor="start" x="1134.01" y="-156.7" font-family="sans-serif" font-size="11.00"> &#160;allOf: &#160;array[string]</text><polyline fill="none" stroke="black" points="1234.5,-149.5 1244.5,-149.5 "/><text text-anchor="start" x="1133.5" y="-136.7" font-family="sans-serif" font-size="11.00"> </text><polygon fill="none" stroke="black" points="1128,-130 1128,-193 1245,-193 1245,-130 1128,-130"/></g><!-- node7526&#45;&gt;node7527 --><g id="edge10" class="edge"><title>node7526&#45;&gt;node7527</title><path fill="none" stroke="black" d="M1186.5,-222.62C1186.5,-214.09 1186.5,-205.29 1186.5,-197.14"/><polygon fill="black" stroke="black" points="1183,-222.83 1186.5,-232.83 1190,-222.83 1183,-222.83"/></g><!-- node7528 --><g id="node11" class="node"><title>node7528</title><polygon fill="#f5f0e4" stroke="transparent" points="1131,-4 1131,-86 1242,-86 1242,-4 1131,-4"/><polyline fill="none" stroke="black" points="1132.5,-64 1231.5,-64 "/><text text-anchor="start" x="1137.07" y="-71.2" font-family="sans-serif" font-size="11.00">array[string]: &#160;allOf</text><polyline fill="none" stroke="black" points="1231.5,-64 1241.5,-64 "/><text text-anchor="start" x="1136.5" y="-51.2" font-family="sans-serif" font-size="11.00"> &#160;Jude: &#160;string</text><polyline fill="none" stroke="black" points="1132.5,-24 1231.5,-24 "/><text text-anchor="start" x="1137.5" y="-31.2" font-family="sans-serif" font-size="11.00"> &#160;Gunjan: &#160;string</text><polyline fill="none" stroke="black" points="1231.5,-24 1241.5,-24 "/><text text-anchor="start" x="1136.5" y="-11.2" font-family="sans-serif" font-size="11.00"> </text><polygon fill="none" stroke="black" points="1131,-4 1131,-86 1242,-86 1242,-4 1131,-4"/></g><!-- node7527&#45;&gt;node7528 --><g id="edge11" class="edge"><title>node7527&#45;&gt;node7528</title><path fill="none" stroke="black" d="M1186.5,-115.56C1186.5,-107.26 1186.5,-98.59 1186.5,-90.3"/><polygon fill="black" stroke="black" points="1183,-115.84 1186.5,-125.84 1190,-115.84 1183,-115.84"/></g><!-- node7530 --><g id="node13" class="node"><title>node7530</title><polygon fill="#f5f0e4" stroke="transparent" points="1282.5,-353.5 1282.5,-416.5 1486.5,-416.5 1486.5,-353.5 1282.5,-353.5"/><polyline fill="none" stroke="black" points="1283.5,-394 1475.5,-394 "/><text text-anchor="start" x="1348.33" y="-401.2" font-family="sans-serif" font-size="11.00">string: &#160;items</text><polyline fill="none" stroke="black" points="1475.5,-394 1485.5,-394 "/><polyline fill="none" stroke="black" points="1283.5,-373 1475.5,-373 "/><text text-anchor="start" x="1288.38" y="-380.2" font-family="sans-serif" font-size="11.00"> &#160;enum: &#160;[&quot;male&quot; &quot;female&quot; &quot;others&quot; &quot;x&quot;]</text><polyline fill="none" stroke="black" points="1475.5,-373 1485.5,-373 "/><text text-anchor="start" x="1287.5" y="-360.2" font-family="sans-serif" font-size="11.00"> </text><polygon fill="none" stroke="black" points="1282.5,-353.5 1282.5,-416.5 1486.5,-416.5 1486.5,-353.5 1282.5,-353.5"/></g><!-- node7529&#45;&gt;node7530 --><g id="edge12" class="edge"><title>node7529&#45;&gt;node7530</title><path fill="none" stroke="black" d="M1378.47,-477.13C1379.69,-458.74 1381.07,-437.78 1382.21,-420.61"/><polygon fill="black" stroke="black" points="1374.96,-477.12 1377.79,-487.33 1381.95,-477.58 1374.96,-477.12"/></g></g></svg>