<svg width="1445pt" height="818pt" viewBox="0.00 0.00 1445.00 818.00" xmlns="http://www.w3.org/2000/svg" xmlns:xlink="http://www.w3.org/1999/xlink"><g id="graph0" class="graph" transform="scale(1 1) rotate(0) translate(4 814)"><title>%3</title><polygon fill="white" stroke="transparent" points="-4,4 -4,-814 1441,-814 1441,4 -4,4"/><!-- node12575 --><g id="node1" class="node"><title>node12575</title><polygon fill="#f5f0e4" stroke="transparent" points="646.5,-724 646.5,-806 926.5,-806 926.5,-724 646.5,-724"/><polyline fill="none" stroke="black" points="647.5,-784 705.5,-784 "/><text text-anchor="start" x="652.5" y="-792.2" font-family="sans-serif" font-weight="bold" font-size="11.00">Person</text><polyline fill="none" stroke="black" points="705.5,-784 912.5,-784 "/><text text-anchor="start" x="710.5" y="-792.2" font-family="sans-serif" font-weight="bold" font-size="11.00">object</text><polyline fill="none" stroke="black" points="912.5,-784 925.5,-784 "/><text text-anchor="start" x="917.47" y="-791.2" font-family="sans-serif" font-size="11.00"> </text><text text-anchor="start" x="651.5" y="-771.2" font-family="sans-serif" font-size="11.00">$id</text><text text-anchor="start" x="709.04" y="-771.2" font-family="sans-serif" font-size="11.00">https://example.com/person.schema.json</text><text text-anchor="start" x="916.5" y="-771.2" font-family="sans-serif" font-size="11.00"> </text><text text-anchor="start" x="651.5" y="-752.2" font-family="sans-serif" font-size="11.00">$schema</text><text text-anchor="start" x="709.5" y="-752.2" font-family="sans-serif" font-size="11.00">http://json&#45;schema.org/draft&#45;07/schema#</text><text text-anchor="start" x="916.5" y="-752.2" font-family="sans-serif" font-size="11.00"> </text><polyline fill="none" stroke="black" points="647.5,-725 705.5,-725 "/><text text-anchor="start" x="652.04" y="-732.2" font-family="sans-serif" font-size="11.00">properties</text><polyline fill="none" stroke="black" points="705.5,-725 912.5,-725 "/><text text-anchor="start" x="710.5" y="-732.2" font-family="sans-serif" font-size="11.00">object</text><polyline fill="none" stroke="black" points="912.5,-725 925.5,-725 "/><text text-anchor="start" x="917.47" y="-732.2" font-family="sans-serif" font-size="11.00"> </text><polygon fill="none" stroke="black" points="646.5,-724 646.5,-806 926.5,-806 926.5,-724 646.5,-724"/></g><!-- node12576 --><g id="node2" class="node"><title>node12576</title><polygon fill="#f5f0e4" stroke="transparent" points="705,-531 705,-680 868,-680 868,-531 705,-531"/><polyline fill="none" stroke="black" points="706.5,-657.5 764.5,-657.5 "/><text text-anchor="start" x="711.04" y="-665.7" font-family="sans-serif" font-weight="bold" font-size="11.00">properties</text><polyline fill="none" stroke="black" points="764.5,-657.5 832.5,-657.5 "/><text text-anchor="start" x="769.5" y="-665.7" font-family="sans-serif" font-weight="bold" font-size="11.00">object</text><polyline fill="none" stroke="black" points="832.5,-657.5 867.5,-657.5 "/><text text-anchor="start" x="837.5" y="-664.7" font-family="sans-serif" font-size="11.00"> </text><text text-anchor="start" x="710.5" y="-644.7" font-family="sans-serif" font-size="11.00">firstName</text><text text-anchor="start" x="768.5" y="-644.7" font-family="sans-serif" font-size="11.00">string</text><text text-anchor="start" x="836.5" y="-644.7" font-family="sans-serif" font-size="11.00"> </text><text text-anchor="start" x="710.5" y="-625.7" font-family="sans-serif" font-size="11.00">lastName</text><text text-anchor="start" x="768.5" y="-625.7" font-family="sans-serif" font-size="11.00">string</text><text text-anchor="start" x="836.5" y="-625.7" font-family="sans-serif" font-size="11.00"> </text><text text-anchor="start" x="710.5" y="-606.7" font-family="sans-serif" font-size="11.00">age</text><text text-anchor="start" x="768.5" y="-606.7" font-family="sans-serif" font-size="11.00">integer</text><text text-anchor="start" x="836.5" y="-606.7" font-family="sans-serif" font-size="11.00"> </text><polygon fill="#f5e2b8" stroke="transparent" points="706.5,-576.5 706.5,-600.5 764.5,-600.5 764.5,-576.5 706.5,-576.5"/><text text-anchor="start" x="710.5" y="-587.7" font-family="sans-serif" font-size="11.00">salary</text><polygon fill="#f5e2b8" stroke="transparent" points="764.5,-576.5 764.5,-600.5 832.5,-600.5 832.5,-576.5 764.5,-576.5"/><text text-anchor="start" x="768.5" y="-587.7" font-family="sans-serif" font-size="11.00">number1</text><polygon fill="#f5e2b8" stroke="transparent" points="832.5,-576.5 832.5,-600.5 867.5,-600.5 867.5,-576.5 832.5,-576.5"/><text text-anchor="start" x="836.47" y="-587.9" font-family="sans-serif" font-weight="bold" font-size="12.00" fill="#ff0000">①</text><text text-anchor="start" x="848.47" y="-587.9" font-family="sans-serif" font-size="11.00"> </text><text text-anchor="start" x="851.53" y="-587.9" font-family="sans-serif" font-weight="bold" font-size="12.00" fill="#ff7200">②</text><polygon fill="#f5e2b8" stroke="transparent" points="706.5,-552.5 706.5,-576.5 764.5,-576.5 764.5,-552.5 706.5,-552.5"/><text text-anchor="start" x="710.5" y="-563.7" font-family="sans-serif" font-size="11.00">role2</text><polygon fill="#f5e2b8" stroke="transparent" points="764.5,-552.5 764.5,-576.5 832.5,-576.5 832.5,-552.5 764.5,-552.5"/><text text-anchor="start" x="768.24" y="-563.7" font-family="sans-serif" font-size="11.00">array[object]</text><polygon fill="#f5e2b8" stroke="transparent" points="832.5,-552.5 832.5,-576.5 867.5,-576.5 867.5,-552.5 832.5,-552.5"/><text text-anchor="start" x="836.5" y="-563.9" font-family="sans-serif" font-weight="bold" font-size="12.00" fill="#ff7200">③</text><polyline fill="none" stroke="black" points="706.5,-531.5 764.5,-531.5 "/><text text-anchor="start" x="711.5" y="-538.7" font-family="sans-serif" font-size="11.00">gender</text><polyline fill="none" stroke="black" points="764.5,-531.5 832.5,-531.5 "/><text text-anchor="start" x="769.46" y="-538.7" font-family="sans-serif" font-size="11.00">array[string]</text><polyline fill="none" stroke="black" points="832.5,-531.5 867.5,-531.5 "/><text text-anchor="start" x="837.5" y="-538.7" font-family="sans-serif" font-size="11.00"> </text><polygon fill="none" stroke="black" points="705,-531 705,-680 868,-680 868,-531 705,-531"/></g><!-- node12575&#45;&gt;node12576 --><g id="edge1" class="edge"><title>node12575&#45;&gt;node12576</title><path fill="none" stroke="black" d="M786.5,-709.55C786.5,-701.34 786.5,-692.75 786.5,-684.17"/><polygon fill="black" stroke="black" points="783,-709.71 786.5,-719.71 790,-709.71 783,-709.71"/></g><!-- node12577 --><g id="node3" class="node"><title>node12577</title><polygon fill="#f5f0e4" stroke="transparent" points="8,-409 8,-472 213,-472 213,-409 8,-409"/><polyline fill="none" stroke="black" points="9.5,-449.5 72.5,-449.5 "/><text text-anchor="start" x="14.5" y="-457.7" font-family="sans-serif" font-weight="bold" font-size="11.00">firstName</text><polyline fill="none" stroke="black" points="72.5,-449.5 199.5,-449.5 "/><text text-anchor="start" x="77.5" y="-457.7" font-family="sans-serif" font-weight="bold" font-size="11.00">string</text><polyline fill="none" stroke="black" points="199.5,-449.5 212.5,-449.5 "/><text text-anchor="start" x="204.47" y="-456.7" font-family="sans-serif" font-size="11.00"> </text><text text-anchor="start" x="13.5" y="-436.7" font-family="sans-serif" font-size="11.00">maxLength</text><text text-anchor="start" x="76.5" y="-436.7" font-family="sans-serif" font-size="11.00">10</text><text text-anchor="start" x="203.5" y="-436.7" font-family="sans-serif" font-size="11.00"> </text><polyline fill="none" stroke="black" points="9.5,-409.5 72.5,-409.5 "/><text text-anchor="start" x="14.4" y="-416.7" font-family="sans-serif" font-size="11.00">description</text><polyline fill="none" stroke="black" points="72.5,-409.5 199.5,-409.5 "/><text text-anchor="start" x="77.18" y="-416.7" font-family="sans-serif" font-size="11.00">The person&#39;s first name.</text><polyline fill="none" stroke="black" points="199.5,-409.5 212.5,-409.5 "/><text text-anchor="start" x="204.47" y="-416.7" font-family="sans-serif" font-size="11.00"> </text><polygon fill="none" stroke="black" points="8,-409 8,-472 213,-472 213,-409 8,-409"/></g><!-- node12576&#45;&gt;node12577 --><g id="edge2" class="edge"><title>node12576&#45;&gt;node12577</title><path fill="none" stroke="black" d="M686.92,-590.17C574.35,-572.59 386.34,-539.11 229.5,-491 215.7,-486.77 201.3,-481.53 187.48,-476.05"/><polygon fill="black" stroke="black" points="686.49,-593.64 696.91,-591.71 687.56,-586.72 686.49,-593.64"/></g><!-- node12578 --><g id="node4" class="node"><title>node12578</title><polygon fill="#f5f0e4" stroke="transparent" points="247,-418.5 247,-462.5 452,-462.5 452,-418.5 247,-418.5"/><polyline fill="none" stroke="black" points="248.5,-440.5 311.5,-440.5 "/><text text-anchor="start" x="253.5" y="-448.7" font-family="sans-serif" font-weight="bold" font-size="11.00">lastName</text><polyline fill="none" stroke="black" points="311.5,-440.5 438.5,-440.5 "/><text text-anchor="start" x="316.5" y="-448.7" font-family="sans-serif" font-weight="bold" font-size="11.00">string</text><polyline fill="none" stroke="black" points="438.5,-440.5 451.5,-440.5 "/><text text-anchor="start" x="443.47" y="-447.7" font-family="sans-serif" font-size="11.00"> </text><polyline fill="none" stroke="black" points="248.5,-419.5 311.5,-419.5 "/><text text-anchor="start" x="253.4" y="-426.7" font-family="sans-serif" font-size="11.00">description</text><polyline fill="none" stroke="black" points="311.5,-419.5 438.5,-419.5 "/><text text-anchor="start" x="316.48" y="-426.7" font-family="sans-serif" font-size="11.00">The person&#39;s last name.</text><polyline fill="none" stroke="black" points="438.5,-419.5 451.5,-419.5 "/><text text-anchor="start" x="443.47" y="-426.7" font-family="sans-serif" font-size="11.00"> </text><polygon fill="none" stroke="black" points="247,-418.5 247,-462.5 452,-462.5 452,-418.5 247,-418.5"/></g><!-- node12576&#45;&gt;node12578 --><g id="edge3" class="edge"><title>node12576&#45;&gt;node12578</title><path fill="none" stroke="black" d="M687.41,-570.6C624.43,-548.7 541.32,-519.12 468.5,-491 448.67,-483.34 427.17,-474.55 407.97,-466.52"/><polygon fill="black" stroke="black" points="686.36,-573.94 696.95,-573.92 688.65,-567.33 686.36,-573.94"/></g><!-- node12579 --><g id="node5" class="node"><title>node12579</title><polygon fill="#f5f0e4" stroke="transparent" points="486,-394 486,-487 797,-487 797,-394 486,-394"/><polyline fill="none" stroke="black" points="487.5,-464.5 548.5,-464.5 "/><text text-anchor="start" x="492.5" y="-472.7" font-family="sans-serif" font-weight="bold" font-size="11.00">age</text><polyline fill="none" stroke="black" points="548.5,-464.5 783.5,-464.5 "/><text text-anchor="start" x="553.5" y="-472.7" font-family="sans-serif" font-weight="bold" font-size="11.00">integer</text><polyline fill="none" stroke="black" points="783.5,-464.5 796.5,-464.5 "/><text text-anchor="start" x="788.47" y="-471.7" font-family="sans-serif" font-size="11.00"> </text><text text-anchor="start" x="491.4" y="-451.7" font-family="sans-serif" font-size="11.00">description</text><text text-anchor="start" x="552.27" y="-451.7" font-family="sans-serif" font-size="11.00">Age in years which must be equal to or greater</text><text text-anchor="start" x="641.54" y="-440.7" font-family="sans-serif" font-size="11.00">than zero.</text><text text-anchor="start" x="787.5" y="-451.7" font-family="sans-serif" font-size="11.00"> </text><text text-anchor="start" x="491.5" y="-421.7" font-family="sans-serif" font-size="11.00">minimum</text><text text-anchor="start" x="552.5" y="-421.7" font-family="sans-serif" font-size="11.00">0</text><text text-anchor="start" x="787.5" y="-421.7" font-family="sans-serif" font-size="11.00"> </text><polyline fill="none" stroke="black" points="487.5,-394.5 548.5,-394.5 "/><text text-anchor="start" x="492.5" y="-401.7" font-family="sans-serif" font-size="11.00">maximum</text><polyline fill="none" stroke="black" points="548.5,-394.5 783.5,-394.5 "/><text text-anchor="start" x="553.5" y="-401.7" font-family="sans-serif" font-size="11.00">200</text><polyline fill="none" stroke="black" points="783.5,-394.5 796.5,-394.5 "/><text text-anchor="start" x="788.47" y="-401.7" font-family="sans-serif" font-size="11.00"> </text><polygon fill="none" stroke="black" points="486,-394 486,-487 797,-487 797,-394 486,-394"/></g><!-- node12576&#45;&gt;node12579 --><g id="edge4" class="edge"><title>node12576&#45;&gt;node12579</title><path fill="none" stroke="black" d="M710.56,-519.13C702.04,-509.56 693.59,-500.05 685.67,-491.15"/><polygon fill="black" stroke="black" points="708.14,-521.67 717.4,-526.82 713.37,-517.02 708.14,-521.67"/></g><!-- node12580 --><g id="node6" class="node"><title>node12580</title><polygon fill="#f5f0e4" stroke="transparent" points="831.5,-406.5 831.5,-474.5 1031.5,-474.5 1031.5,-406.5 831.5,-406.5"/><polygon fill="#f5e2b8" stroke="transparent" points="832.5,-447.5 832.5,-473.5 893.5,-473.5 893.5,-447.5 832.5,-447.5"/><polyline fill="none" stroke="black" points="832.5,-447.5 893.5,-447.5 "/><text text-anchor="start" x="837.5" y="-460.7" font-family="sans-serif" font-weight="bold" font-size="11.00">salary</text><polygon fill="#f5e2b8" stroke="transparent" points="893.5,-447.5 893.5,-473.5 993.5,-473.5 993.5,-447.5 893.5,-447.5"/><polyline fill="none" stroke="black" points="893.5,-447.5 993.5,-447.5 "/><text text-anchor="start" x="898.5" y="-460.7" font-family="sans-serif" font-weight="bold" font-size="11.00">number1</text><polygon fill="#f5e2b8" stroke="transparent" points="993.5,-447.5 993.5,-473.5 1030.5,-473.5 1030.5,-447.5 993.5,-447.5"/><polyline fill="none" stroke="black" points="993.5,-447.5 1030.5,-447.5 "/><text text-anchor="start" x="998.47" y="-459.9" font-family="sans-serif" font-weight="bold" font-size="12.00" fill="#ff0000">①</text><text text-anchor="start" x="1010.47" y="-459.9" font-family="sans-serif" font-size="11.00"> </text><text text-anchor="start" x="1013.53" y="-459.9" font-family="sans-serif" font-weight="bold" font-size="12.00" fill="#ff7200">②</text><text text-anchor="start" x="836.4" y="-434.7" font-family="sans-serif" font-size="11.00">description</text><text text-anchor="start" x="897.34" y="-434.7" font-family="sans-serif" font-size="11.00">Salary of a person.</text><text text-anchor="start" x="997.5" y="-434.7" font-family="sans-serif" font-size="11.00"> </text><polyline fill="none" stroke="black" points="832.5,-407.5 893.5,-407.5 "/><text text-anchor="start" x="837.5" y="-414.7" font-family="sans-serif" font-size="11.00">multipleOf</text><polyline fill="none" stroke="black" points="893.5,-407.5 993.5,-407.5 "/><text text-anchor="start" x="898.5" y="-414.7" font-family="sans-serif" font-size="11.00">2.0</text><polyline fill="none" stroke="black" points="993.5,-407.5 1030.5,-407.5 "/><text text-anchor="start" x="998.5" y="-414.7" font-family="sans-serif" font-size="11.00"> </text><polygon fill="none" stroke="black" points="831.5,-406.5 831.5,-474.5 1031.5,-474.5 1031.5,-406.5 831.5,-406.5"/></g><!-- node12576&#45;&gt;node12580 --><g id="edge5" class="edge"><title>node12576&#45;&gt;node12580</title><path fill="none" stroke="black" d="M862.58,-518.97C875.14,-504.86 887.55,-490.91 898.3,-478.82"/><polygon fill="black" stroke="black" points="859.63,-517.02 855.6,-526.82 864.86,-521.67 859.63,-517.02"/></g><!-- node12581 --><g id="node7" class="node"><title>node12581</title><polygon fill="#f5f0e4" stroke="transparent" points="1066,-397 1066,-484 1215,-484 1215,-397 1066,-397"/><polygon fill="#f5e2b8" stroke="transparent" points="1067.5,-456.5 1067.5,-482.5 1122.5,-482.5 1122.5,-456.5 1067.5,-456.5"/><polyline fill="none" stroke="black" points="1067.5,-456.5 1122.5,-456.5 "/><text text-anchor="start" x="1072.5" y="-469.7" font-family="sans-serif" font-weight="bold" font-size="11.00">role2</text><polygon fill="#f5e2b8" stroke="transparent" points="1122.5,-456.5 1122.5,-482.5 1192.5,-482.5 1192.5,-456.5 1122.5,-456.5"/><polyline fill="none" stroke="black" points="1122.5,-456.5 1192.5,-456.5 "/><text text-anchor="start" x="1127.24" y="-469.7" font-family="sans-serif" font-weight="bold" font-size="11.00">array[object]</text><polygon fill="#f5e2b8" stroke="transparent" points="1192.5,-456.5 1192.5,-482.5 1214.5,-482.5 1214.5,-456.5 1192.5,-456.5"/><polyline fill="none" stroke="black" points="1192.5,-456.5 1214.5,-456.5 "/><text text-anchor="start" x="1197.5" y="-468.9" font-family="sans-serif" font-weight="bold" font-size="12.00" fill="#ff7200">③</text><text text-anchor="start" x="1071.5" y="-443.7" font-family="sans-serif" font-size="11.00">minItems</text><text text-anchor="start" x="1126.5" y="-443.7" font-family="sans-serif" font-size="11.00">2</text><text text-anchor="start" x="1196.5" y="-443.7" font-family="sans-serif" font-size="11.00"> </text><text text-anchor="start" x="1071.16" y="-424.7" font-family="sans-serif" font-size="11.00">maxItems</text><text text-anchor="start" x="1126.5" y="-424.7" font-family="sans-serif" font-size="11.00">10</text><text text-anchor="start" x="1196.5" y="-424.7" font-family="sans-serif" font-size="11.00"> </text><polyline fill="none" stroke="black" points="1067.5,-397.5 1122.5,-397.5 "/><text text-anchor="start" x="1072.5" y="-404.7" font-family="sans-serif" font-size="11.00">items</text><polyline fill="none" stroke="black" points="1122.5,-397.5 1192.5,-397.5 "/><text text-anchor="start" x="1127.5" y="-404.7" font-family="sans-serif" font-size="11.00">object</text><polyline fill="none" stroke="black" points="1192.5,-397.5 1214.5,-397.5 "/><text text-anchor="start" x="1197.5" y="-404.7" font-family="sans-serif" font-size="11.00"> </text><polygon fill="none" stroke="black" points="1066,-397 1066,-484 1215,-484 1215,-397 1066,-397"/></g><!-- node12576&#45;&gt;node12581 --><g id="edge6" class="edge"><title>node12576&#45;&gt;node12581</title><path fill="none" stroke="black" d="M885.59,-563.91C934.99,-543.09 995.38,-516.74 1048.5,-491 1051.6,-489.5 1054.75,-487.95 1057.92,-486.36"/><polygon fill="black" stroke="black" points="884.04,-560.77 876.18,-567.87 886.75,-567.22 884.04,-560.77"/></g><!-- node12586 --><g id="node12" class="node"><title>node12586</title><polygon fill="#f5f0e4" stroke="transparent" points="1260,-418.5 1260,-462.5 1387,-462.5 1387,-418.5 1260,-418.5"/><polyline fill="none" stroke="black" points="1261.5,-440.5 1305.5,-440.5 "/><text text-anchor="start" x="1266.37" y="-448.7" font-family="sans-serif" font-weight="bold" font-size="11.00">gender</text><polyline fill="none" stroke="black" points="1305.5,-440.5 1373.5,-440.5 "/><text text-anchor="start" x="1310.46" y="-448.7" font-family="sans-serif" font-weight="bold" font-size="11.00">array[string]</text><polyline fill="none" stroke="black" points="1373.5,-440.5 1386.5,-440.5 "/><text text-anchor="start" x="1378.47" y="-447.7" font-family="sans-serif" font-size="11.00"> </text><polyline fill="none" stroke="black" points="1261.5,-419.5 1305.5,-419.5 "/><text text-anchor="start" x="1266.5" y="-426.7" font-family="sans-serif" font-size="11.00">items</text><polyline fill="none" stroke="black" points="1305.5,-419.5 1373.5,-419.5 "/><text text-anchor="start" x="1310.5" y="-426.7" font-family="sans-serif" font-size="11.00">string</text><polyline fill="none" stroke="black" points="1373.5,-419.5 1386.5,-419.5 "/><text text-anchor="start" x="1378.47" y="-426.7" font-family="sans-serif" font-size="11.00"> </text><polygon fill="none" stroke="black" points="1260,-418.5 1260,-462.5 1387,-462.5 1387,-418.5 1260,-418.5"/></g><!-- node12576&#45;&gt;node12586 --><g id="edge7" class="edge"><title>node12576&#45;&gt;node12586</title><path fill="none" stroke="black" d="M885.97,-586.59C977.85,-568.32 1117.13,-536.24 1232.5,-491 1249.41,-484.37 1267.14,-475.27 1282.42,-466.67"/><polygon fill="black" stroke="black" points="885.26,-583.16 876.12,-588.53 886.61,-590.03 885.26,-583.16"/></g><!-- node12582 --><g id="node8" class="node"><title>node12582</title><polygon fill="#f5f0e4" stroke="transparent" points="1075,-287 1075,-350 1194,-350 1194,-287 1075,-287"/><polyline fill="none" stroke="black" points="1076.5,-327.5 1137.5,-327.5 "/><text text-anchor="start" x="1081.5" y="-335.7" font-family="sans-serif" font-weight="bold" font-size="11.00">items</text><polyline fill="none" stroke="black" points="1137.5,-327.5 1180.5,-327.5 "/><text text-anchor="start" x="1142.5" y="-335.7" font-family="sans-serif" font-weight="bold" font-size="11.00">object</text><polyline fill="none" stroke="black" points="1180.5,-327.5 1193.5,-327.5 "/><text text-anchor="start" x="1185.47" y="-334.7" font-family="sans-serif" font-size="11.00"> </text><text text-anchor="start" x="1080.4" y="-314.7" font-family="sans-serif" font-size="11.00">description</text><text text-anchor="start" x="1141.27" y="-314.7" font-family="sans-serif" font-size="11.00">class B</text><text text-anchor="start" x="1184.5" y="-314.7" font-family="sans-serif" font-size="11.00"> </text><polyline fill="none" stroke="black" points="1076.5,-287.5 1137.5,-287.5 "/><text text-anchor="start" x="1081.5" y="-294.7" font-family="sans-serif" font-size="11.00">properties</text><polyline fill="none" stroke="black" points="1137.5,-287.5 1180.5,-287.5 "/><text text-anchor="start" x="1142.5" y="-294.7" font-family="sans-serif" font-size="11.00">object</text><polyline fill="none" stroke="black" points="1180.5,-287.5 1193.5,-287.5 "/><text text-anchor="start" x="1185.47" y="-294.7" font-family="sans-serif" font-size="11.00"> </text><polygon fill="none" stroke="black" points="1075,-287 1075,-350 1194,-350 1194,-287 1075,-287"/></g><!-- node12581&#45;&gt;node12582 --><g id="edge8" class="edge"><title>node12581&#45;&gt;node12582</title><path fill="none" stroke="black" d="M1137.66,-382.66C1137.17,-372.88 1136.67,-362.99 1136.23,-354.03"/><polygon fill="black" stroke="black" points="1134.17,-382.95 1138.16,-392.76 1141.16,-382.6 1134.17,-382.95"/></g><!-- node12583 --><g id="node9" class="node"><title>node12583</title><polygon fill="#f5f0e4" stroke="transparent" points="1073,-199 1073,-243 1196,-243 1196,-199 1073,-199"/><polyline fill="none" stroke="black" points="1074.5,-221 1132.5,-221 "/><text text-anchor="start" x="1079.04" y="-229.2" font-family="sans-serif" font-weight="bold" font-size="11.00">properties</text><polyline fill="none" stroke="black" points="1132.5,-221 1182.5,-221 "/><text text-anchor="start" x="1137.5" y="-229.2" font-family="sans-serif" font-weight="bold" font-size="11.00">object</text><polyline fill="none" stroke="black" points="1182.5,-221 1195.5,-221 "/><text text-anchor="start" x="1187.47" y="-228.2" font-family="sans-serif" font-size="11.00"> </text><polyline fill="none" stroke="black" points="1074.5,-200 1132.5,-200 "/><text text-anchor="start" x="1079.5" y="-207.2" font-family="sans-serif" font-size="11.00">b1</text><polyline fill="none" stroke="black" points="1132.5,-200 1182.5,-200 "/><text text-anchor="start" x="1137.09" y="-207.2" font-family="sans-serif" font-size="11.00">[&quot;string&quot;]</text><polyline fill="none" stroke="black" points="1182.5,-200 1195.5,-200 "/><text text-anchor="start" x="1187.47" y="-207.2" font-family="sans-serif" font-size="11.00"> </text><polygon fill="none" stroke="black" points="1073,-199 1073,-243 1196,-243 1196,-199 1073,-199"/></g><!-- node12582&#45;&gt;node12583 --><g id="edge9" class="edge"><title>node12582&#45;&gt;node12583</title><path fill="none" stroke="black" d="M1134.5,-272.65C1134.5,-263.94 1134.5,-255.1 1134.5,-247.29"/><polygon fill="black" stroke="black" points="1131,-272.75 1134.5,-282.75 1138,-272.75 1131,-272.75"/></g><!-- node12584 --><g id="node10" class="node"><title>node12584</title><polygon fill="#f5f0e4" stroke="transparent" points="1077,-111 1077,-155 1192,-155 1192,-111 1077,-111"/><polyline fill="none" stroke="black" points="1078.5,-133 1110.5,-133 "/><text text-anchor="start" x="1083.5" y="-141.2" font-family="sans-serif" font-weight="bold" font-size="11.00">b1</text><polyline fill="none" stroke="black" points="1110.5,-133 1178.5,-133 "/><text text-anchor="start" x="1115.5" y="-141.2" font-family="sans-serif" font-weight="bold" font-size="11.00">[&quot;string&quot;]</text><polyline fill="none" stroke="black" points="1178.5,-133 1191.5,-133 "/><text text-anchor="start" x="1183.47" y="-140.2" font-family="sans-serif" font-size="11.00"> </text><polyline fill="none" stroke="black" points="1078.5,-112 1110.5,-112 "/><text text-anchor="start" x="1083.19" y="-119.2" font-family="sans-serif" font-size="11.00">allOf</text><polyline fill="none" stroke="black" points="1110.5,-112 1178.5,-112 "/><text text-anchor="start" x="1115.46" y="-119.2" font-family="sans-serif" font-size="11.00">array[string]</text><polyline fill="none" stroke="black" points="1178.5,-112 1191.5,-112 "/><text text-anchor="start" x="1183.47" y="-119.2" font-family="sans-serif" font-size="11.00"> </text><polygon fill="none" stroke="black" points="1077,-111 1077,-155 1192,-155 1192,-111 1077,-111"/></g><!-- node12583&#45;&gt;node12584 --><g id="edge10" class="edge"><title>node12583&#45;&gt;node12584</title><path fill="none" stroke="black" d="M1134.5,-184.56C1134.5,-176.04 1134.5,-167.1 1134.5,-159.16"/><polygon fill="black" stroke="black" points="1131,-184.66 1134.5,-194.66 1138,-184.66 1131,-184.66"/></g><!-- node12585 --><g id="node11" class="node"><title>node12585</title><polygon fill="#f5f0e4" stroke="transparent" points="1070.5,-4 1070.5,-67 1198.5,-67 1198.5,-4 1070.5,-4"/><polyline fill="none" stroke="black" points="1071.5,-44.5 1116.5,-44.5 "/><text text-anchor="start" x="1076.5" y="-52.7" font-family="sans-serif" font-weight="bold" font-size="11.00">allOf</text><polyline fill="none" stroke="black" points="1116.5,-44.5 1184.5,-44.5 "/><text text-anchor="start" x="1121.46" y="-52.7" font-family="sans-serif" font-weight="bold" font-size="11.00">array[string]</text><polyline fill="none" stroke="black" points="1184.5,-44.5 1197.5,-44.5 "/><text text-anchor="start" x="1189.47" y="-51.7" font-family="sans-serif" font-size="11.00"> </text><text text-anchor="start" x="1075.5" y="-31.7" font-family="sans-serif" font-size="11.00">Jude</text><text text-anchor="start" x="1120.5" y="-31.7" font-family="sans-serif" font-size="11.00">string</text><text text-anchor="start" x="1188.5" y="-31.7" font-family="sans-serif" font-size="11.00"> </text><polyline fill="none" stroke="black" points="1071.5,-4.5 1116.5,-4.5 "/><text text-anchor="start" x="1076.26" y="-11.7" font-family="sans-serif" font-size="11.00">Gunjan</text><polyline fill="none" stroke="black" points="1116.5,-4.5 1184.5,-4.5 "/><text text-anchor="start" x="1121.5" y="-11.7" font-family="sans-serif" font-size="11.00">string</text><polyline fill="none" stroke="black" points="1184.5,-4.5 1197.5,-4.5 "/><text text-anchor="start" x="1189.47" y="-11.7" font-family="sans-serif" font-size="11.00"> </text><polygon fill="none" stroke="black" points="1070.5,-4 1070.5,-67 1198.5,-67 1198.5,-4 1070.5,-4"/></g><!-- node12584&#45;&gt;node12585 --><g id="edge11" class="edge"><title>node12584&#45;&gt;node12585</title><path fill="none" stroke="black" d="M1134.5,-96.7C1134.5,-88.35 1134.5,-79.44 1134.5,-71.12"/><polygon fill="black" stroke="black" points="1131,-96.91 1134.5,-106.91 1138,-96.91 1131,-96.91"/></g><!-- node12587 --><g id="node13" class="node"><title>node12587</title><polygon fill="#f5f0e4" stroke="transparent" points="1228,-296.5 1228,-340.5 1429,-340.5 1429,-296.5 1228,-296.5"/><polyline fill="none" stroke="black" points="1229.5,-318.5 1266.5,-318.5 "/><text text-anchor="start" x="1234.5" y="-326.7" font-family="sans-serif" font-weight="bold" font-size="11.00">items</text><polyline fill="none" stroke="black" points="1266.5,-318.5 1415.5,-318.5 "/><text text-anchor="start" x="1271.5" y="-326.7" font-family="sans-serif" font-weight="bold" font-size="11.00">string</text><polyline fill="none" stroke="black" points="1415.5,-318.5 1428.5,-318.5 "/><text text-anchor="start" x="1420.47" y="-325.7" font-family="sans-serif" font-size="11.00"> </text><polyline fill="none" stroke="black" points="1229.5,-297.5 1266.5,-297.5 "/><text text-anchor="start" x="1234.24" y="-304.7" font-family="sans-serif" font-size="11.00">enum</text><polyline fill="none" stroke="black" points="1266.5,-297.5 1415.5,-297.5 "/><text text-anchor="start" x="1271.28" y="-304.7" font-family="sans-serif" font-size="11.00">[&quot;male&quot; &quot;female&quot; &quot;others&quot; &quot;x&quot;]</text><polyline fill="none" stroke="black" points="1415.5,-297.5 1428.5,-297.5 "/><text text-anchor="start" x="1420.47" y="-304.7" font-family="sans-serif" font-size="11.00"> </text><polygon fill="none" stroke="black" points="1228,-296.5 1228,-340.5 1429,-340.5 1429,-296.5 1228,-296.5"/></g><!-- node12586&#45;&gt;node12587 --><g id="edge12" class="edge"><title>node12586&#45;&gt;node12587</title><path fill="none" stroke="black" d="M1324.97,-404.2C1325.77,-385.08 1326.73,-361.9 1327.45,-344.62"/><polygon fill="black" stroke="black" points="1321.47,-404.21 1324.55,-414.34 1328.46,-404.5 1321.47,-404.21"/></g></g></svg>