<svg width="2308pt" height="598pt" viewBox="0.00 0.00 2308.00 598.00" xmlns="http://www.w3.org/2000/svg" xmlns:xlink="http://www.w3.org/1999/xlink"><g id="graph0" class="graph" transform="scale(1 1) rotate(0) translate(4 594)"><title>%3</title><polygon fill="white" stroke="transparent" points="-4,4 -4,-594 2304,-594 2304,4 -4,4"/><!-- node8234 --><g id="node1" class="node"><title>node8234</title><path fill="#f5f0e4" stroke="black" d="M1072.5,-590C1072.5,-590 833.5,-590 833.5,-590 827.5,-590 821.5,-584 821.5,-578 821.5,-578 821.5,-546 821.5,-546 821.5,-540 827.5,-534 833.5,-534 833.5,-534 1072.5,-534 1072.5,-534 1078.5,-534 1084.5,-540 1084.5,-546 1084.5,-546 1084.5,-578 1084.5,-578 1084.5,-584 1078.5,-590 1072.5,-590"/><text text-anchor="start" x="846.39" y="-575" font-family="sans-serif" font-weight="bold" font-size="10.00">:$id</text><text text-anchor="start" x="862.52" y="-575" font-family="sans-serif" font-size="10.00">   https://example.com/person.schema.json</text><text text-anchor="start" x="833.89" y="-565" font-family="sans-serif" font-weight="bold" font-size="10.00">:$schema</text><text text-anchor="start" x="877.24" y="-565" font-family="sans-serif" font-size="10.00">   http://json&#45;schema.org/draft&#45;07/schema#</text><text text-anchor="start" x="920.32" y="-555" font-family="sans-serif" font-weight="bold" font-size="10.00">:title</text><text text-anchor="start" x="938.66" y="-555" font-family="sans-serif" font-size="10.00">   Person</text><text text-anchor="start" x="921.15" y="-545" font-family="sans-serif" font-weight="bold" font-size="10.00">:type</text><text text-anchor="start" x="942.83" y="-545" font-family="sans-serif" font-size="10.00">   object</text><text text-anchor="start" x="1070.61" y="-559" font-family="sans-serif" font-size="10.00"> </text></g><!-- node8235 --><g id="node2" class="node"><title>node8235</title><path fill="#dbdad6" stroke="black" d="M980.5,-498C980.5,-498 925.5,-498 925.5,-498 919.5,-498 913.5,-492 913.5,-486 913.5,-486 913.5,-474 913.5,-474 913.5,-468 919.5,-462 925.5,-462 925.5,-462 980.5,-462 980.5,-462 986.5,-462 992.5,-468 992.5,-474 992.5,-474 992.5,-486 992.5,-486 992.5,-492 986.5,-498 980.5,-498"/><text text-anchor="start" x="925.88" y="-478" font-family="sans-serif" font-weight="bold" font-size="10.00">:properties</text><text text-anchor="start" x="978.61" y="-477" font-family="sans-serif" font-size="10.00"> </text></g><!-- node8234&#45;&gt;node8235 --><g id="edge1" class="edge"><title>node8234&#45;&gt;node8235</title><path fill="none" stroke="black" d="M953,-533.92C953,-525.72 953,-516.72 953,-508.49"/><polygon fill="black" stroke="black" points="956.5,-508.27 953,-498.27 949.5,-508.27 956.5,-508.27"/></g><!-- node8236 --><g id="node3" class="node"><title>node8236</title><path fill="#dbdad6" stroke="black" d="M239.5,-426C239.5,-426 186.5,-426 186.5,-426 180.5,-426 174.5,-420 174.5,-414 174.5,-414 174.5,-402 174.5,-402 174.5,-396 180.5,-390 186.5,-390 186.5,-390 239.5,-390 239.5,-390 245.5,-390 251.5,-396 251.5,-402 251.5,-402 251.5,-414 251.5,-414 251.5,-420 245.5,-426 239.5,-426"/><text text-anchor="start" x="186.72" y="-406" font-family="sans-serif" font-weight="bold" font-size="10.00">:firstName</text><text text-anchor="start" x="237.61" y="-405" font-family="sans-serif" font-size="10.00"> </text></g><!-- node8235&#45;&gt;node8236 --><g id="edge2" class="edge"><title>node8235&#45;&gt;node8236</title><path fill="none" stroke="black" d="M913.48,-475.26C788.11,-463.4 399.52,-426.64 261.92,-413.63"/><polygon fill="black" stroke="black" points="261.97,-410.12 251.68,-412.66 261.31,-417.09 261.97,-410.12"/></g><!-- node8240 --><g id="node7" class="node"><title>node8240</title><path fill="#dbdad6" stroke="black" d="M508.5,-426C508.5,-426 455.5,-426 455.5,-426 449.5,-426 443.5,-420 443.5,-414 443.5,-414 443.5,-402 443.5,-402 443.5,-396 449.5,-390 455.5,-390 455.5,-390 508.5,-390 508.5,-390 514.5,-390 520.5,-396 520.5,-402 520.5,-402 520.5,-414 520.5,-414 520.5,-420 514.5,-426 508.5,-426"/><text text-anchor="start" x="455.99" y="-406" font-family="sans-serif" font-weight="bold" font-size="10.00">:lastName</text><text text-anchor="start" x="506.61" y="-405" font-family="sans-serif" font-size="10.00"> </text></g><!-- node8235&#45;&gt;node8240 --><g id="edge3" class="edge"><title>node8235&#45;&gt;node8240</title><path fill="none" stroke="black" d="M913.25,-473.09C827.31,-460.32 624.46,-430.17 530.87,-416.26"/><polygon fill="black" stroke="black" points="531.22,-412.78 520.82,-414.77 530.19,-419.7 531.22,-412.78"/></g><!-- node8243 --><g id="node10" class="node"><title>node8243</title><path fill="#dbdad6" stroke="black" d="M848,-426C848,-426 818,-426 818,-426 812,-426 806,-420 806,-414 806,-414 806,-402 806,-402 806,-396 812,-390 818,-390 818,-390 848,-390 848,-390 854,-390 860,-396 860,-402 860,-402 860,-414 860,-414 860,-420 854,-426 848,-426"/><text text-anchor="start" x="819.77" y="-406" font-family="sans-serif" font-weight="bold" font-size="10.00">:age</text><text text-anchor="start" x="844.61" y="-405" font-family="sans-serif" font-size="10.00"> </text></g><!-- node8235&#45;&gt;node8243 --><g id="edge4" class="edge"><title>node8235&#45;&gt;node8243</title><path fill="none" stroke="black" d="M923.64,-461.88C907.1,-452.23 886.31,-440.1 868.81,-429.89"/><polygon fill="black" stroke="black" points="870.4,-426.77 860,-424.75 866.87,-432.81 870.4,-426.77"/></g><!-- node8248 --><g id="node15" class="node"><title>node8248</title><path fill="#dbdad6" stroke="black" d="M1169.5,-426C1169.5,-426 1108.5,-426 1108.5,-426 1102.5,-426 1096.5,-420 1096.5,-414 1096.5,-414 1096.5,-402 1096.5,-402 1096.5,-396 1102.5,-390 1108.5,-390 1108.5,-390 1169.5,-390 1169.5,-390 1175.5,-390 1181.5,-396 1181.5,-402 1181.5,-402 1181.5,-414 1181.5,-414 1181.5,-420 1175.5,-426 1169.5,-426"/><text text-anchor="start" x="1108.77" y="-406" font-family="sans-serif" font-weight="bold" font-size="10.00">:salary</text><text text-anchor="start" x="1143.61" y="-407.4" font-family="sans-serif" font-weight="bold" font-size="12.00" fill="#ff0000">①</text><text text-anchor="start" x="1155.61" y="-407.4" font-family="sans-serif" font-size="10.00"> </text><text text-anchor="start" x="1158.39" y="-407.4" font-family="sans-serif" font-weight="bold" font-size="12.00" fill="#ff7200">②</text></g><!-- node8235&#45;&gt;node8248 --><g id="edge5" class="edge"><title>node8235&#45;&gt;node8248</title><path fill="none" stroke="black" d="M992.9,-463.98C1020.35,-453.65 1057.09,-439.83 1086.85,-428.63"/><polygon fill="black" stroke="black" points="1088.12,-431.89 1096.25,-425.09 1085.66,-425.34 1088.12,-431.89"/></g><!-- node8252 --><g id="node19" class="node"><title>node8252</title><path fill="#dbdad6" stroke="black" d="M1613.5,-426C1613.5,-426 1570.5,-426 1570.5,-426 1564.5,-426 1558.5,-420 1558.5,-414 1558.5,-414 1558.5,-402 1558.5,-402 1558.5,-396 1564.5,-390 1570.5,-390 1570.5,-390 1613.5,-390 1613.5,-390 1619.5,-390 1625.5,-396 1625.5,-402 1625.5,-402 1625.5,-414 1625.5,-414 1625.5,-420 1619.5,-426 1613.5,-426"/><text text-anchor="start" x="1570.99" y="-406" font-family="sans-serif" font-weight="bold" font-size="10.00">:role2</text><text text-anchor="start" x="1602" y="-407.4" font-family="sans-serif" font-weight="bold" font-size="12.00" fill="#ff7200">③</text></g><!-- node8235&#45;&gt;node8252 --><g id="edge6" class="edge"><title>node8235&#45;&gt;node8252</title><path fill="none" stroke="black" d="M992.97,-474.62C1106.49,-462.19 1430.21,-426.72 1548.25,-413.79"/><polygon fill="black" stroke="black" points="1548.8,-417.25 1558.36,-412.68 1548.04,-410.29 1548.8,-417.25"/></g><!-- node8267 --><g id="node34" class="node"><title>node8267</title><path fill="#dbdad6" stroke="black" d="M1971.5,-426C1971.5,-426 1930.5,-426 1930.5,-426 1924.5,-426 1918.5,-420 1918.5,-414 1918.5,-414 1918.5,-402 1918.5,-402 1918.5,-396 1924.5,-390 1930.5,-390 1930.5,-390 1971.5,-390 1971.5,-390 1977.5,-390 1983.5,-396 1983.5,-402 1983.5,-402 1983.5,-414 1983.5,-414 1983.5,-420 1977.5,-426 1971.5,-426"/><text text-anchor="start" x="1930.54" y="-406" font-family="sans-serif" font-weight="bold" font-size="10.00">:gender</text><text text-anchor="start" x="1969.61" y="-405" font-family="sans-serif" font-size="10.00"> </text></g><!-- node8235&#45;&gt;node8267 --><g id="edge7" class="edge"><title>node8235&#45;&gt;node8267</title><path fill="none" stroke="black" d="M992.74,-476.21C1152.02,-465.04 1743.56,-423.55 1908.22,-412"/><polygon fill="black" stroke="black" points="1908.71,-415.48 1918.44,-411.28 1908.22,-408.49 1908.71,-415.48"/></g><!-- node8237 --><g id="node4" class="node"><title>node8237</title><path fill="#f5f0e4" stroke="black" d="M74,-339C74,-339 12,-339 12,-339 6,-339 0,-333 0,-327 0,-327 0,-315 0,-315 0,-309 6,-303 12,-303 12,-303 74,-303 74,-303 80,-303 86,-309 86,-315 86,-315 86,-327 86,-327 86,-333 80,-339 74,-339"/><text text-anchor="start" x="11.77" y="-319" font-family="sans-serif" font-weight="bold" font-size="10.00">:type</text><text text-anchor="start" x="33.45" y="-319" font-family="sans-serif" font-size="10.00">   string</text><text text-anchor="start" x="71.61" y="-318" font-family="sans-serif" font-size="10.00"> </text></g><!-- node8236&#45;&gt;node8237 --><g id="edge8" class="edge"><title>node8236&#45;&gt;node8237</title><path fill="none" stroke="black" d="M174.4,-391.16C151.06,-381.22 120.9,-367.71 95,-354 89.41,-351.04 83.59,-347.72 77.96,-344.36"/><polygon fill="black" stroke="black" points="79.7,-341.32 69.33,-339.12 76.06,-347.3 79.7,-341.32"/></g><!-- node8238 --><g id="node5" class="node"><title>node8238</title><path fill="#f5f0e4" stroke="black" d="M195.5,-339C195.5,-339 116.5,-339 116.5,-339 110.5,-339 104.5,-333 104.5,-327 104.5,-327 104.5,-315 104.5,-315 104.5,-309 110.5,-303 116.5,-303 116.5,-303 195.5,-303 195.5,-303 201.5,-303 207.5,-309 207.5,-315 207.5,-315 207.5,-327 207.5,-327 207.5,-333 201.5,-339 195.5,-339"/><text text-anchor="start" x="116.64" y="-319" font-family="sans-serif" font-weight="bold" font-size="10.00">:maxLength</text><text text-anchor="start" x="168.9" y="-319" font-family="sans-serif" font-size="10.00">   10</text><text text-anchor="start" x="193.61" y="-318" font-family="sans-serif" font-size="10.00"> </text></g><!-- node8236&#45;&gt;node8238 --><g id="edge9" class="edge"><title>node8236&#45;&gt;node8238</title><path fill="none" stroke="black" d="M201.47,-389.8C193.35,-377.7 182.36,-361.3 173.21,-347.67"/><polygon fill="black" stroke="black" points="175.99,-345.53 167.52,-339.18 170.18,-349.43 175.99,-345.53"/></g><!-- node8239 --><g id="node6" class="node"><title>node8239</title><path fill="#f5f0e4" stroke="black" d="M302.5,-344C302.5,-344 237.5,-344 237.5,-344 231.5,-344 225.5,-338 225.5,-332 225.5,-332 225.5,-310 225.5,-310 225.5,-304 231.5,-298 237.5,-298 237.5,-298 302.5,-298 302.5,-298 308.5,-298 314.5,-304 314.5,-310 314.5,-310 314.5,-332 314.5,-332 314.5,-338 308.5,-344 302.5,-344"/><text text-anchor="start" x="240.93" y="-329" font-family="sans-serif" font-weight="bold" font-size="10.00">:description</text><text text-anchor="start" x="237.75" y="-319" font-family="sans-serif" font-size="10.00">The person&#39;s</text><text text-anchor="start" x="243.16" y="-309" font-family="sans-serif" font-size="10.00">first name.</text><text text-anchor="start" x="300.61" y="-318" font-family="sans-serif" font-size="10.00"> </text></g><!-- node8236&#45;&gt;node8239 --><g id="edge10" class="edge"><title>node8236&#45;&gt;node8239</title><path fill="none" stroke="black" d="M224.53,-389.8C231.72,-379.08 241.18,-364.98 249.6,-352.42"/><polygon fill="black" stroke="black" points="252.57,-354.28 255.23,-344.03 246.75,-350.38 252.57,-354.28"/></g><!-- node8241 --><g id="node8" class="node"><title>node8241</title><path fill="#f5f0e4" stroke="black" d="M407,-339C407,-339 345,-339 345,-339 339,-339 333,-333 333,-327 333,-327 333,-315 333,-315 333,-309 339,-303 345,-303 345,-303 407,-303 407,-303 413,-303 419,-309 419,-315 419,-315 419,-327 419,-327 419,-333 413,-339 407,-339"/><text text-anchor="start" x="344.77" y="-319" font-family="sans-serif" font-weight="bold" font-size="10.00">:type</text><text text-anchor="start" x="366.45" y="-319" font-family="sans-serif" font-size="10.00">   string</text><text text-anchor="start" x="404.61" y="-318" font-family="sans-serif" font-size="10.00"> </text></g><!-- node8240&#45;&gt;node8241 --><g id="edge11" class="edge"><title>node8240&#45;&gt;node8241</title><path fill="none" stroke="black" d="M460.55,-389.8C444.74,-377.13 423.06,-359.73 405.6,-345.74"/><polygon fill="black" stroke="black" points="407.41,-342.7 397.42,-339.18 403.03,-348.16 407.41,-342.7"/></g><!-- node8242 --><g id="node9" class="node"><title>node8242</title><path fill="#f5f0e4" stroke="black" d="M514.5,-344C514.5,-344 449.5,-344 449.5,-344 443.5,-344 437.5,-338 437.5,-332 437.5,-332 437.5,-310 437.5,-310 437.5,-304 443.5,-298 449.5,-298 449.5,-298 514.5,-298 514.5,-298 520.5,-298 526.5,-304 526.5,-310 526.5,-310 526.5,-332 526.5,-332 526.5,-338 520.5,-344 514.5,-344"/><text text-anchor="start" x="452.93" y="-329" font-family="sans-serif" font-weight="bold" font-size="10.00">:description</text><text text-anchor="start" x="449.75" y="-319" font-family="sans-serif" font-size="10.00">The person&#39;s</text><text text-anchor="start" x="455.43" y="-309" font-family="sans-serif" font-size="10.00">last name.</text><text text-anchor="start" x="512.61" y="-318" font-family="sans-serif" font-size="10.00"> </text></g><!-- node8240&#45;&gt;node8242 --><g id="edge12" class="edge"><title>node8240&#45;&gt;node8242</title><path fill="none" stroke="black" d="M482,-389.8C482,-379.59 482,-366.33 482,-354.24"/><polygon fill="black" stroke="black" points="485.5,-354.03 482,-344.03 478.5,-354.03 485.5,-354.03"/></g><!-- node8244 --><g id="node11" class="node"><title>node8244</title><path fill="#f5f0e4" stroke="black" d="M647.5,-354C647.5,-354 556.5,-354 556.5,-354 550.5,-354 544.5,-348 544.5,-342 544.5,-342 544.5,-300 544.5,-300 544.5,-294 550.5,-288 556.5,-288 556.5,-288 647.5,-288 647.5,-288 653.5,-288 659.5,-294 659.5,-300 659.5,-300 659.5,-342 659.5,-342 659.5,-348 653.5,-354 647.5,-354"/><text text-anchor="start" x="572.93" y="-339" font-family="sans-serif" font-weight="bold" font-size="10.00">:description</text><text text-anchor="start" x="556.53" y="-329" font-family="sans-serif" font-size="10.00">Age in years which</text><text text-anchor="start" x="567.09" y="-319" font-family="sans-serif" font-size="10.00">must be equal</text><text text-anchor="start" x="571.26" y="-309" font-family="sans-serif" font-size="10.00">to or greater</text><text text-anchor="start" x="576.26" y="-299" font-family="sans-serif" font-size="10.00">than zero.</text><text text-anchor="start" x="645.61" y="-318" font-family="sans-serif" font-size="10.00"> </text></g><!-- node8243&#45;&gt;node8244 --><g id="edge13" class="edge"><title>node8243&#45;&gt;node8244</title><path fill="none" stroke="black" d="M805.91,-399.45C773.07,-390.02 716.26,-372.82 669,-354 668.9,-353.96 668.81,-353.92 668.71,-353.88"/><polygon fill="black" stroke="black" points="670.11,-350.67 659.53,-350.07 667.42,-357.14 670.11,-350.67"/></g><!-- node8245 --><g id="node12" class="node"><title>node8245</title><path fill="#f5f0e4" stroke="black" d="M758,-339C758,-339 690,-339 690,-339 684,-339 678,-333 678,-327 678,-327 678,-315 678,-315 678,-309 684,-303 690,-303 690,-303 758,-303 758,-303 764,-303 770,-309 770,-315 770,-315 770,-327 770,-327 770,-333 764,-339 758,-339"/><text text-anchor="start" x="689.7" y="-319" font-family="sans-serif" font-weight="bold" font-size="10.00">:type</text><text text-anchor="start" x="711.38" y="-319" font-family="sans-serif" font-size="10.00">   integer</text><text text-anchor="start" x="755.61" y="-318" font-family="sans-serif" font-size="10.00"> </text></g><!-- node8243&#45;&gt;node8245 --><g id="edge14" class="edge"><title>node8243&#45;&gt;node8245</title><path fill="none" stroke="black" d="M810.94,-389.8C794.54,-377.01 771.98,-359.42 753.95,-345.36"/><polygon fill="black" stroke="black" points="756.06,-342.56 746.02,-339.18 751.76,-348.08 756.06,-342.56"/></g><!-- node8246 --><g id="node13" class="node"><title>node8246</title><path fill="#f5f0e4" stroke="black" d="M865.5,-339C865.5,-339 800.5,-339 800.5,-339 794.5,-339 788.5,-333 788.5,-327 788.5,-327 788.5,-315 788.5,-315 788.5,-309 794.5,-303 800.5,-303 800.5,-303 865.5,-303 865.5,-303 871.5,-303 877.5,-309 877.5,-315 877.5,-315 877.5,-327 877.5,-327 877.5,-333 871.5,-339 865.5,-339"/><text text-anchor="start" x="800.88" y="-319" font-family="sans-serif" font-weight="bold" font-size="10.00">:minimum</text><text text-anchor="start" x="844.22" y="-319" font-family="sans-serif" font-size="10.00">   0</text><text text-anchor="start" x="863.61" y="-318" font-family="sans-serif" font-size="10.00"> </text></g><!-- node8243&#45;&gt;node8246 --><g id="edge15" class="edge"><title>node8243&#45;&gt;node8246</title><path fill="none" stroke="black" d="M833,-389.8C833,-378.16 833,-362.55 833,-349.24"/><polygon fill="black" stroke="black" points="836.5,-349.18 833,-339.18 829.5,-349.18 836.5,-349.18"/></g><!-- node8247 --><g id="node14" class="node"><title>node8247</title><path fill="#f5f0e4" stroke="black" d="M986.5,-339C986.5,-339 907.5,-339 907.5,-339 901.5,-339 895.5,-333 895.5,-327 895.5,-327 895.5,-315 895.5,-315 895.5,-309 901.5,-303 907.5,-303 907.5,-303 986.5,-303 986.5,-303 992.5,-303 998.5,-309 998.5,-315 998.5,-315 998.5,-327 998.5,-327 998.5,-333 992.5,-339 986.5,-339"/><text text-anchor="start" x="907.93" y="-319" font-family="sans-serif" font-weight="bold" font-size="10.00">:maximum</text><text text-anchor="start" x="954.05" y="-319" font-family="sans-serif" font-size="10.00">   200</text><text text-anchor="start" x="984.61" y="-318" font-family="sans-serif" font-size="10.00"> </text></g><!-- node8243&#45;&gt;node8247 --><g id="edge16" class="edge"><title>node8243&#45;&gt;node8247</title><path fill="none" stroke="black" d="M856.07,-389.8C873.3,-376.95 897.03,-359.26 915.93,-345.17"/><polygon fill="black" stroke="black" points="918.04,-347.96 923.96,-339.18 913.86,-342.35 918.04,-347.96"/></g><!-- node8249 --><g id="node16" class="node"><title>node8249</title><path fill="#f5f0e4" stroke="black" d="M1119.5,-339C1119.5,-339 1028.5,-339 1028.5,-339 1022.5,-339 1016.5,-333 1016.5,-327 1016.5,-327 1016.5,-315 1016.5,-315 1016.5,-309 1022.5,-303 1028.5,-303 1028.5,-303 1119.5,-303 1119.5,-303 1125.5,-303 1131.5,-309 1131.5,-315 1131.5,-315 1131.5,-327 1131.5,-327 1131.5,-333 1125.5,-339 1119.5,-339"/><text text-anchor="start" x="1044.93" y="-324" font-family="sans-serif" font-weight="bold" font-size="10.00">:description</text><text text-anchor="start" x="1028.53" y="-314" font-family="sans-serif" font-size="10.00">Salary of a person.</text><text text-anchor="start" x="1117.61" y="-318" font-family="sans-serif" font-size="10.00"> </text></g><!-- node8248&#45;&gt;node8249 --><g id="edge17" class="edge"><title>node8248&#45;&gt;node8249</title><path fill="none" stroke="black" d="M1125.85,-389.8C1116.51,-377.59 1103.82,-360.99 1093.33,-347.28"/><polygon fill="black" stroke="black" points="1095.99,-344.99 1087.13,-339.18 1090.43,-349.25 1095.99,-344.99"/></g><!-- node8250 --><g id="node17" class="node"><title>node8250</title><path fill="#f5f0e4" stroke="black" d="M1248.5,-339C1248.5,-339 1161.5,-339 1161.5,-339 1155.5,-339 1149.5,-333 1149.5,-327 1149.5,-327 1149.5,-315 1149.5,-315 1149.5,-309 1155.5,-303 1161.5,-303 1161.5,-303 1248.5,-303 1248.5,-303 1254.5,-303 1260.5,-309 1260.5,-315 1260.5,-315 1260.5,-327 1260.5,-327 1260.5,-333 1254.5,-339 1248.5,-339"/><text text-anchor="start" x="1161.76" y="-319" font-family="sans-serif" font-weight="bold" font-size="10.00">:type</text><text text-anchor="start" x="1183.44" y="-319" font-family="sans-serif" font-size="10.00">   number1</text><text text-anchor="start" x="1237" y="-320.4" font-family="sans-serif" font-weight="bold" font-size="12.00" fill="#ff0000">④</text></g><!-- node8248&#45;&gt;node8250 --><g id="edge18" class="edge"><title>node8248&#45;&gt;node8250</title><path fill="none" stroke="black" d="M1152.36,-389.8C1161.84,-377.59 1174.72,-360.99 1185.37,-347.28"/><polygon fill="black" stroke="black" points="1188.3,-349.22 1191.66,-339.18 1182.77,-344.93 1188.3,-349.22"/></g><!-- node8251 --><g id="node18" class="node"><title>node8251</title><path fill="#f5f0e4" stroke="black" d="M1369,-339C1369,-339 1291,-339 1291,-339 1285,-339 1279,-333 1279,-327 1279,-327 1279,-315 1279,-315 1279,-309 1285,-303 1291,-303 1291,-303 1369,-303 1369,-303 1375,-303 1381,-309 1381,-315 1381,-315 1381,-327 1381,-327 1381,-333 1375,-339 1369,-339"/><text text-anchor="start" x="1290.99" y="-319" font-family="sans-serif" font-weight="bold" font-size="10.00">:multipleOf</text><text text-anchor="start" x="1338.78" y="-319" font-family="sans-serif" font-size="10.00">   2.0</text><text text-anchor="start" x="1366.61" y="-318" font-family="sans-serif" font-size="10.00"> </text></g><!-- node8248&#45;&gt;node8251 --><g id="edge19" class="edge"><title>node8248&#45;&gt;node8251</title><path fill="none" stroke="black" d="M1181.6,-390.83C1207.19,-380.81 1240.27,-367.36 1269,-354 1275.78,-350.85 1282.9,-347.32 1289.77,-343.8"/><polygon fill="black" stroke="black" points="1291.69,-346.75 1298.94,-339.03 1288.46,-340.54 1291.69,-346.75"/></g><!-- node8253 --><g id="node20" class="node"><title>node8253</title><path fill="#f5f0e4" stroke="black" d="M1471,-339C1471,-339 1411,-339 1411,-339 1405,-339 1399,-333 1399,-327 1399,-327 1399,-315 1399,-315 1399,-309 1405,-303 1411,-303 1411,-303 1471,-303 1471,-303 1477,-303 1483,-309 1483,-315 1483,-315 1483,-327 1483,-327 1483,-333 1477,-339 1471,-339"/><text text-anchor="start" x="1410.6" y="-319" font-family="sans-serif" font-weight="bold" font-size="10.00">:type</text><text text-anchor="start" x="1432.28" y="-319" font-family="sans-serif" font-size="10.00">   array</text><text text-anchor="start" x="1468.61" y="-318" font-family="sans-serif" font-size="10.00"> </text></g><!-- node8252&#45;&gt;node8253 --><g id="edge20" class="edge"><title>node8252&#45;&gt;node8253</title><path fill="none" stroke="black" d="M1558.33,-389.94C1538.78,-379.83 1513.78,-366.58 1492,-354 1486.84,-351.02 1481.45,-347.78 1476.18,-344.54"/><polygon fill="black" stroke="black" points="1477.85,-341.46 1467.51,-339.15 1474.15,-347.4 1477.85,-341.46"/></g><!-- node8254 --><g id="node21" class="node"><title>node8254</title><path fill="#f5f0e4" stroke="black" d="M1569,-339C1569,-339 1513,-339 1513,-339 1507,-339 1501,-333 1501,-327 1501,-327 1501,-315 1501,-315 1501,-309 1507,-303 1513,-303 1513,-303 1569,-303 1569,-303 1575,-303 1581,-309 1581,-315 1581,-315 1581,-327 1581,-327 1581,-333 1575,-339 1569,-339"/><text text-anchor="start" x="1512.54" y="-319" font-family="sans-serif" font-weight="bold" font-size="10.00">:title</text><text text-anchor="start" x="1530.88" y="-319" font-family="sans-serif" font-size="10.00">   role2</text><text text-anchor="start" x="1566.61" y="-318" font-family="sans-serif" font-size="10.00"> </text></g><!-- node8252&#45;&gt;node8254 --><g id="edge21" class="edge"><title>node8252&#45;&gt;node8254</title><path fill="none" stroke="black" d="M1581.68,-389.8C1574.49,-377.82 1564.77,-361.62 1556.63,-348.06"/><polygon fill="black" stroke="black" points="1559.45,-345.95 1551.31,-339.18 1553.45,-349.55 1559.45,-345.95"/></g><!-- node8255 --><g id="node22" class="node"><title>node8255</title><path fill="#f5f0e4" stroke="black" d="M1676.5,-339C1676.5,-339 1611.5,-339 1611.5,-339 1605.5,-339 1599.5,-333 1599.5,-327 1599.5,-327 1599.5,-315 1599.5,-315 1599.5,-309 1605.5,-303 1611.5,-303 1611.5,-303 1676.5,-303 1676.5,-303 1682.5,-303 1688.5,-309 1688.5,-315 1688.5,-315 1688.5,-327 1688.5,-327 1688.5,-333 1682.5,-339 1676.5,-339"/><text text-anchor="start" x="1611.88" y="-319" font-family="sans-serif" font-weight="bold" font-size="10.00">:minItems</text><text text-anchor="start" x="1655.22" y="-319" font-family="sans-serif" font-size="10.00">   2</text><text text-anchor="start" x="1674.61" y="-318" font-family="sans-serif" font-size="10.00"> </text></g><!-- node8252&#45;&gt;node8255 --><g id="edge22" class="edge"><title>node8252&#45;&gt;node8255</title><path fill="none" stroke="black" d="M1602.52,-389.8C1609.85,-377.82 1619.76,-361.62 1628.06,-348.06"/><polygon fill="black" stroke="black" points="1631.26,-349.53 1633.49,-339.18 1625.29,-345.88 1631.26,-349.53"/></g><!-- node8256 --><g id="node23" class="node"><title>node8256</title><path fill="#f5f0e4" stroke="black" d="M1791.5,-339C1791.5,-339 1718.5,-339 1718.5,-339 1712.5,-339 1706.5,-333 1706.5,-327 1706.5,-327 1706.5,-315 1706.5,-315 1706.5,-309 1712.5,-303 1718.5,-303 1718.5,-303 1791.5,-303 1791.5,-303 1797.5,-303 1803.5,-309 1803.5,-315 1803.5,-315 1803.5,-327 1803.5,-327 1803.5,-333 1797.5,-339 1791.5,-339"/><text text-anchor="start" x="1718.71" y="-319" font-family="sans-serif" font-weight="bold" font-size="10.00">:maxItems</text><text text-anchor="start" x="1764.83" y="-319" font-family="sans-serif" font-size="10.00">   10</text><text text-anchor="start" x="1789.61" y="-318" font-family="sans-serif" font-size="10.00"> </text></g><!-- node8252&#45;&gt;node8256 --><g id="edge23" class="edge"><title>node8252&#45;&gt;node8256</title><path fill="none" stroke="black" d="M1625.74,-390.37C1646.4,-380.08 1673.35,-366.49 1697,-354 1703.01,-350.83 1709.34,-347.41 1715.52,-344.03"/><polygon fill="black" stroke="black" points="1717.33,-347.03 1724.41,-339.15 1713.96,-340.9 1717.33,-347.03"/></g><!-- node8257 --><g id="node24" class="node"><title>node8257</title><path fill="#dbdad6" stroke="black" d="M1868,-339C1868,-339 1834,-339 1834,-339 1828,-339 1822,-333 1822,-327 1822,-327 1822,-315 1822,-315 1822,-309 1828,-303 1834,-303 1834,-303 1868,-303 1868,-303 1874,-303 1880,-309 1880,-315 1880,-315 1880,-327 1880,-327 1880,-333 1874,-339 1868,-339"/><text text-anchor="start" x="1833.67" y="-319" font-family="sans-serif" font-weight="bold" font-size="10.00">:items</text><text text-anchor="start" x="1865.61" y="-318" font-family="sans-serif" font-size="10.00"> </text></g><!-- node8252&#45;&gt;node8257 --><g id="edge24" class="edge"><title>node8252&#45;&gt;node8257</title><path fill="none" stroke="black" d="M1625.65,-403.64C1670.24,-398.15 1750.45,-384.63 1812,-354 1816.68,-351.67 1821.3,-348.69 1825.63,-345.48"/><polygon fill="black" stroke="black" points="1827.92,-348.13 1833.55,-339.15 1823.55,-342.66 1827.92,-348.13"/></g><!-- node8258 --><g id="node25" class="node"><title>node8258</title><path fill="#f5f0e4" stroke="black" d="M1773,-252C1773,-252 1709,-252 1709,-252 1703,-252 1697,-246 1697,-240 1697,-240 1697,-228 1697,-228 1697,-222 1703,-216 1709,-216 1709,-216 1773,-216 1773,-216 1779,-216 1785,-222 1785,-228 1785,-228 1785,-240 1785,-240 1785,-246 1779,-252 1773,-252"/><text text-anchor="start" x="1708.65" y="-232" font-family="sans-serif" font-weight="bold" font-size="10.00">:type</text><text text-anchor="start" x="1730.33" y="-232" font-family="sans-serif" font-size="10.00">   object</text><text text-anchor="start" x="1770.61" y="-231" font-family="sans-serif" font-size="10.00"> </text></g><!-- node8257&#45;&gt;node8258 --><g id="edge25" class="edge"><title>node8257&#45;&gt;node8258</title><path fill="none" stroke="black" d="M1830.5,-302.88C1824.57,-298.02 1818.07,-292.75 1812,-288 1799.31,-278.06 1785.1,-267.38 1772.76,-258.22"/><polygon fill="black" stroke="black" points="1774.67,-255.29 1764.55,-252.16 1770.51,-260.92 1774.67,-255.29"/></g><!-- node8259 --><g id="node26" class="node"><title>node8259</title><path fill="#f5f0e4" stroke="black" d="M1874.5,-252C1874.5,-252 1815.5,-252 1815.5,-252 1809.5,-252 1803.5,-246 1803.5,-240 1803.5,-240 1803.5,-228 1803.5,-228 1803.5,-222 1809.5,-216 1815.5,-216 1815.5,-216 1874.5,-216 1874.5,-216 1880.5,-216 1886.5,-222 1886.5,-228 1886.5,-228 1886.5,-240 1886.5,-240 1886.5,-246 1880.5,-252 1874.5,-252"/><text text-anchor="start" x="1815.93" y="-237" font-family="sans-serif" font-weight="bold" font-size="10.00">:description</text><text text-anchor="start" x="1825.38" y="-227" font-family="sans-serif" font-size="10.00">class B</text><text text-anchor="start" x="1872.61" y="-231" font-family="sans-serif" font-size="10.00"> </text></g><!-- node8257&#45;&gt;node8259 --><g id="edge26" class="edge"><title>node8257&#45;&gt;node8259</title><path fill="none" stroke="black" d="M1849.79,-302.8C1848.96,-291.16 1847.86,-275.55 1846.92,-262.24"/><polygon fill="black" stroke="black" points="1850.41,-261.9 1846.21,-252.18 1843.43,-262.4 1850.41,-261.9"/></g><!-- node8260 --><g id="node27" class="node"><title>node8260</title><path fill="#dbdad6" stroke="black" d="M1971.5,-252C1971.5,-252 1916.5,-252 1916.5,-252 1910.5,-252 1904.5,-246 1904.5,-240 1904.5,-240 1904.5,-228 1904.5,-228 1904.5,-222 1910.5,-216 1916.5,-216 1916.5,-216 1971.5,-216 1971.5,-216 1977.5,-216 1983.5,-222 1983.5,-228 1983.5,-228 1983.5,-240 1983.5,-240 1983.5,-246 1977.5,-252 1971.5,-252"/><text text-anchor="start" x="1916.88" y="-232" font-family="sans-serif" font-weight="bold" font-size="10.00">:properties</text><text text-anchor="start" x="1969.61" y="-231" font-family="sans-serif" font-size="10.00"> </text></g><!-- node8257&#45;&gt;node8260 --><g id="edge27" class="edge"><title>node8257&#45;&gt;node8260</title><path fill="none" stroke="black" d="M1869.82,-302.8C1883.56,-290.24 1902.37,-273.05 1917.61,-259.12"/><polygon fill="black" stroke="black" points="1920.19,-261.51 1925.21,-252.18 1915.47,-256.34 1920.19,-261.51"/></g><!-- node8261 --><g id="node28" class="node"><title>node8261</title><path fill="#dbdad6" stroke="black" d="M1959,-180C1959,-180 1929,-180 1929,-180 1923,-180 1917,-174 1917,-168 1917,-168 1917,-156 1917,-156 1917,-150 1923,-144 1929,-144 1929,-144 1959,-144 1959,-144 1965,-144 1971,-150 1971,-156 1971,-156 1971,-168 1971,-168 1971,-174 1965,-180 1959,-180"/><text text-anchor="start" x="1933.55" y="-160" font-family="sans-serif" font-weight="bold" font-size="10.00">:b1</text><text text-anchor="start" x="1952.61" y="-159" font-family="sans-serif" font-size="10.00"> </text></g><!-- node8260&#45;&gt;node8261 --><g id="edge28" class="edge"><title>node8260&#45;&gt;node8261</title><path fill="none" stroke="black" d="M1944,-215.7C1944,-207.98 1944,-198.71 1944,-190.11"/><polygon fill="black" stroke="black" points="1947.5,-190.1 1944,-180.1 1940.5,-190.1 1947.5,-190.1"/></g><!-- node8262 --><g id="node29" class="node"><title>node8262</title><path fill="#f5f0e4" stroke="black" d="M1886.5,-108C1886.5,-108 1811.5,-108 1811.5,-108 1805.5,-108 1799.5,-102 1799.5,-96 1799.5,-96 1799.5,-84 1799.5,-84 1799.5,-78 1805.5,-72 1811.5,-72 1811.5,-72 1886.5,-72 1886.5,-72 1892.5,-72 1898.5,-78 1898.5,-84 1898.5,-84 1898.5,-96 1898.5,-96 1898.5,-102 1892.5,-108 1886.5,-108"/><text text-anchor="start" x="1811.94" y="-88" font-family="sans-serif" font-weight="bold" font-size="10.00">:type</text><text text-anchor="start" x="1833.62" y="-88" font-family="sans-serif" font-size="10.00">   [&quot;string&quot;]</text><text text-anchor="start" x="1884.61" y="-87" font-family="sans-serif" font-size="10.00"> </text></g><!-- node8261&#45;&gt;node8262 --><g id="edge29" class="edge"><title>node8261&#45;&gt;node8262</title><path fill="none" stroke="black" d="M1920.52,-143.7C1908.44,-134.8 1893.55,-123.82 1880.48,-114.2"/><polygon fill="black" stroke="black" points="1882.34,-111.22 1872.21,-108.1 1878.19,-116.85 1882.34,-111.22"/></g><!-- node8263 --><g id="node30" class="node"><title>node8263</title><path fill="#dbdad6" stroke="black" d="M1959.5,-108C1959.5,-108 1928.5,-108 1928.5,-108 1922.5,-108 1916.5,-102 1916.5,-96 1916.5,-96 1916.5,-84 1916.5,-84 1916.5,-78 1922.5,-72 1928.5,-72 1928.5,-72 1959.5,-72 1959.5,-72 1965.5,-72 1971.5,-78 1971.5,-84 1971.5,-84 1971.5,-96 1971.5,-96 1971.5,-102 1965.5,-108 1959.5,-108"/><text text-anchor="start" x="1928.83" y="-88" font-family="sans-serif" font-weight="bold" font-size="10.00">:allOf</text><text text-anchor="start" x="1957.61" y="-87" font-family="sans-serif" font-size="10.00"> </text></g><!-- node8261&#45;&gt;node8263 --><g id="edge30" class="edge"><title>node8261&#45;&gt;node8263</title><path fill="none" stroke="black" d="M1944,-143.7C1944,-135.98 1944,-126.71 1944,-118.11"/><polygon fill="black" stroke="black" points="1947.5,-118.1 1944,-108.1 1940.5,-118.1 1947.5,-118.1"/></g><!-- node8266 --><g id="node33" class="node"><title>node8266</title><path fill="#f5f0e4" stroke="black" d="M2046.5,-108C2046.5,-108 2001.5,-108 2001.5,-108 1995.5,-108 1989.5,-102 1989.5,-96 1989.5,-96 1989.5,-84 1989.5,-84 1989.5,-78 1995.5,-72 2001.5,-72 2001.5,-72 2046.5,-72 2046.5,-72 2052.5,-72 2058.5,-78 2058.5,-84 2058.5,-84 2058.5,-96 2058.5,-96 2058.5,-102 2052.5,-108 2046.5,-108"/><text text-anchor="start" x="2001.6" y="-88" font-family="sans-serif" font-weight="bold" font-size="10.00">:title</text><text text-anchor="start" x="2019.94" y="-88" font-family="sans-serif" font-size="10.00">   b1</text><text text-anchor="start" x="2044.61" y="-87" font-family="sans-serif" font-size="10.00"> </text></g><!-- node8261&#45;&gt;node8266 --><g id="edge31" class="edge"><title>node8261&#45;&gt;node8266</title><path fill="none" stroke="black" d="M1963.78,-143.7C1973.75,-134.97 1986.01,-124.24 1996.86,-114.75"/><polygon fill="black" stroke="black" points="1999.23,-117.32 2004.45,-108.1 1994.62,-112.06 1999.23,-117.32"/></g><!-- node8264 --><g id="node31" class="node"><title>node8264</title><path fill="#f5f0e4" stroke="black" d="M1921,-36C1921,-36 1891,-36 1891,-36 1885,-36 1879,-30 1879,-24 1879,-24 1879,-12 1879,-12 1879,-6 1885,0 1891,0 1891,0 1921,0 1921,0 1927,0 1933,-6 1933,-12 1933,-12 1933,-24 1933,-24 1933,-30 1927,-36 1921,-36"/><text text-anchor="start" x="1891.66" y="-15" font-family="sans-serif" font-size="10.00">Jude</text><text text-anchor="start" x="1918.61" y="-15" font-family="sans-serif" font-size="10.00"> </text></g><!-- node8263&#45;&gt;node8264 --><g id="edge32" class="edge"><title>node8263&#45;&gt;node8264</title><path fill="none" stroke="black" d="M1934.61,-71.7C1930.24,-63.64 1924.94,-53.89 1920.1,-44.98"/><polygon fill="black" stroke="black" points="1923.13,-43.22 1915.29,-36.1 1916.98,-46.56 1923.13,-43.22"/></g><!-- node8265 --><g id="node32" class="node"><title>node8265</title><path fill="#f5f0e4" stroke="black" d="M2003,-36C2003,-36 1963,-36 1963,-36 1957,-36 1951,-30 1951,-24 1951,-24 1951,-12 1951,-12 1951,-6 1957,0 1963,0 1963,0 2003,0 2003,0 2009,0 2015,-6 2015,-12 2015,-12 2015,-24 2015,-24 2015,-30 2009,-36 2003,-36"/><text text-anchor="start" x="1962.88" y="-15" font-family="sans-serif" font-size="10.00">Gunjan</text><text text-anchor="start" x="2000.61" y="-15" font-family="sans-serif" font-size="10.00"> </text></g><!-- node8263&#45;&gt;node8265 --><g id="edge33" class="edge"><title>node8263&#45;&gt;node8265</title><path fill="none" stroke="black" d="M1953.64,-71.7C1958.13,-63.64 1963.56,-53.89 1968.52,-44.98"/><polygon fill="black" stroke="black" points="1971.66,-46.54 1973.47,-36.1 1965.55,-43.14 1971.66,-46.54"/></g><!-- node8268 --><g id="node35" class="node"><title>node8268</title><path fill="#f5f0e4" stroke="black" d="M1981,-339C1981,-339 1921,-339 1921,-339 1915,-339 1909,-333 1909,-327 1909,-327 1909,-315 1909,-315 1909,-309 1915,-303 1921,-303 1921,-303 1981,-303 1981,-303 1987,-303 1993,-309 1993,-315 1993,-315 1993,-327 1993,-327 1993,-333 1987,-339 1981,-339"/><text text-anchor="start" x="1920.6" y="-319" font-family="sans-serif" font-weight="bold" font-size="10.00">:type</text><text text-anchor="start" x="1942.28" y="-319" font-family="sans-serif" font-size="10.00">   array</text><text text-anchor="start" x="1978.61" y="-318" font-family="sans-serif" font-size="10.00"> </text></g><!-- node8267&#45;&gt;node8268 --><g id="edge34" class="edge"><title>node8267&#45;&gt;node8268</title><path fill="none" stroke="black" d="M1951,-389.8C1951,-378.16 1951,-362.55 1951,-349.24"/><polygon fill="black" stroke="black" points="1954.5,-349.18 1951,-339.18 1947.5,-349.18 1954.5,-349.18"/></g><!-- node8269 --><g id="node36" class="node"><title>node8269</title><path fill="#dbdad6" stroke="black" d="M2062,-339C2062,-339 2028,-339 2028,-339 2022,-339 2016,-333 2016,-327 2016,-327 2016,-315 2016,-315 2016,-309 2022,-303 2028,-303 2028,-303 2062,-303 2062,-303 2068,-303 2074,-309 2074,-315 2074,-315 2074,-327 2074,-327 2074,-333 2068,-339 2062,-339"/><text text-anchor="start" x="2027.67" y="-319" font-family="sans-serif" font-weight="bold" font-size="10.00">:items</text><text text-anchor="start" x="2059.61" y="-318" font-family="sans-serif" font-size="10.00"> </text></g><!-- node8267&#45;&gt;node8269 --><g id="edge35" class="edge"><title>node8267&#45;&gt;node8269</title><path fill="none" stroke="black" d="M1970.02,-389.8C1983.91,-377.24 2002.92,-360.05 2018.33,-346.12"/><polygon fill="black" stroke="black" points="2020.94,-348.48 2026.01,-339.18 2016.24,-343.29 2020.94,-348.48"/></g><!-- node8270 --><g id="node37" class="node"><title>node8270</title><path fill="#f5f0e4" stroke="black" d="M2076,-252C2076,-252 2014,-252 2014,-252 2008,-252 2002,-246 2002,-240 2002,-240 2002,-228 2002,-228 2002,-222 2008,-216 2014,-216 2014,-216 2076,-216 2076,-216 2082,-216 2088,-222 2088,-228 2088,-228 2088,-240 2088,-240 2088,-246 2082,-252 2076,-252"/><text text-anchor="start" x="2013.77" y="-232" font-family="sans-serif" font-weight="bold" font-size="10.00">:type</text><text text-anchor="start" x="2035.45" y="-232" font-family="sans-serif" font-size="10.00">   string</text><text text-anchor="start" x="2073.61" y="-231" font-family="sans-serif" font-size="10.00"> </text></g><!-- node8269&#45;&gt;node8270 --><g id="edge36" class="edge"><title>node8269&#45;&gt;node8270</title><path fill="none" stroke="black" d="M2045,-302.8C2045,-291.16 2045,-275.55 2045,-262.24"/><polygon fill="black" stroke="black" points="2048.5,-262.18 2045,-252.18 2041.5,-262.18 2048.5,-262.18"/></g><!-- node8271 --><g id="node38" class="node"><title>node8271</title><path fill="#f5f0e4" stroke="black" d="M2288,-252C2288,-252 2118,-252 2118,-252 2112,-252 2106,-246 2106,-240 2106,-240 2106,-228 2106,-228 2106,-222 2112,-216 2118,-216 2118,-216 2288,-216 2288,-216 2294,-216 2300,-222 2300,-228 2300,-228 2300,-240 2300,-240 2300,-246 2294,-252 2288,-252"/><text text-anchor="start" x="2117.55" y="-232" font-family="sans-serif" font-weight="bold" font-size="10.00">:enum</text><text text-anchor="start" x="2145.34" y="-232" font-family="sans-serif" font-size="10.00">   [&quot;male&quot; &quot;female&quot; &quot;others&quot; &quot;x&quot;]</text><text text-anchor="start" x="2285.61" y="-231" font-family="sans-serif" font-size="10.00"> </text></g><!-- node8269&#45;&gt;node8271 --><g id="edge37" class="edge"><title>node8269&#45;&gt;node8271</title><path fill="none" stroke="black" d="M2074.35,-304.21C2099.12,-290.88 2134.86,-271.66 2162.38,-256.85"/><polygon fill="black" stroke="black" points="2164.22,-259.84 2171.37,-252.02 2160.91,-253.67 2164.22,-259.84"/></g></g></svg>