<svg width="1504pt" height="812pt" viewBox="0.00 0.00 1504.00 812.00" xmlns="http://www.w3.org/2000/svg" xmlns:xlink="http://www.w3.org/1999/xlink"><g id="graph0" class="graph" transform="scale(1 1) rotate(0) translate(4 808)"><title>%3</title><polygon fill="white" stroke="transparent" points="-4,4 -4,-808 1500,-808 1500,4 -4,4"/><!-- node10591 --><g id="node1" class="node"><title>node10591</title><polygon fill="#f5f0e4" stroke="transparent" points="696.5,-718 696.5,-800 973.5,-800 973.5,-718 696.5,-718"/><polyline fill="none" stroke="black" points="698,-778 960,-778 "/><text text-anchor="start" x="790.78" y="-785.2" font-family="sans-serif" font-size="11.00">object :  Person</text><polyline fill="none" stroke="black" points="960,-778 973,-778 "/><text text-anchor="start" x="964.97" y="-785.2" font-family="sans-serif" font-size="11.00"> </text><text text-anchor="start" x="702" y="-765.2" font-family="sans-serif" font-size="11.00">$id :  https://example.com/person.schema.json</text><text text-anchor="start" x="964" y="-765.2" font-family="sans-serif" font-size="11.00"> </text><text text-anchor="start" x="701.83" y="-746.2" font-family="sans-serif" font-size="11.00">$schema :  http://json&#45;schema.org/draft&#45;07/schema#</text><text text-anchor="start" x="964" y="-746.2" font-family="sans-serif" font-size="11.00"> </text><polyline fill="none" stroke="black" points="698,-719 960,-719 "/><text text-anchor="start" x="703" y="-726.2" font-family="sans-serif" font-size="11.00">properties :  object</text><polyline fill="none" stroke="black" points="960,-719 973,-719 "/><text text-anchor="start" x="964.97" y="-726.2" font-family="sans-serif" font-size="11.00"> </text><polygon fill="none" stroke="black" points="696.5,-718 696.5,-800 973.5,-800 973.5,-718 696.5,-718"/></g><!-- node10592 --><g id="node2" class="node"><title>node10592</title><polygon fill="#f5f0e4" stroke="transparent" points="759.5,-525 759.5,-674 910.5,-674 910.5,-525 759.5,-525"/><polyline fill="none" stroke="black" points="761,-651.5 875,-651.5 "/><text text-anchor="start" x="772.75" y="-658.7" font-family="sans-serif" font-size="11.00">object :  properties</text><polyline fill="none" stroke="black" points="875,-651.5 910,-651.5 "/><text text-anchor="start" x="890.97" y="-658.7" font-family="sans-serif" font-size="11.00"> </text><text text-anchor="start" x="765" y="-638.7" font-family="sans-serif" font-size="11.00">firstName :  string</text><text text-anchor="start" x="879" y="-638.7" font-family="sans-serif" font-size="11.00"> </text><text text-anchor="start" x="765" y="-619.7" font-family="sans-serif" font-size="11.00">lastName :  string</text><text text-anchor="start" x="879" y="-619.7" font-family="sans-serif" font-size="11.00"> </text><text text-anchor="start" x="765" y="-600.7" font-family="sans-serif" font-size="11.00">age :  integer</text><text text-anchor="start" x="879" y="-600.7" font-family="sans-serif" font-size="11.00"> </text><polygon fill="#f5e2b8" stroke="transparent" points="761,-570.5 761,-594.5 875,-594.5 875,-570.5 761,-570.5"/><text text-anchor="start" x="765" y="-579.2" font-family="sans-serif" font-size="11.00">salary :  number1</text><polygon fill="#f5e2b8" stroke="transparent" points="875,-570.5 875,-594.5 910,-594.5 910,-570.5 875,-570.5"/><text text-anchor="start" x="878.97" y="-581.9" font-family="sans-serif" font-weight="bold" font-size="12.00" fill="#ff0000">①</text><text text-anchor="start" x="890.97" y="-581.9" font-family="sans-serif" font-size="11.00"> </text><text text-anchor="start" x="894.03" y="-581.9" font-family="sans-serif" font-weight="bold" font-size="12.00" fill="#ff7200">②</text><polygon fill="#f5e2b8" stroke="transparent" points="761,-546.5 761,-570.5 875,-570.5 875,-546.5 761,-546.5"/><text text-anchor="start" x="765" y="-555.2" font-family="sans-serif" font-size="11.00">role2 :  array[object]</text><polygon fill="#f5e2b8" stroke="transparent" points="875,-546.5 875,-570.5 910,-570.5 910,-546.5 875,-546.5"/><text text-anchor="start" x="879" y="-557.9" font-family="sans-serif" font-weight="bold" font-size="12.00" fill="#ff7200">③</text><polyline fill="none" stroke="black" points="761,-525.5 875,-525.5 "/><text text-anchor="start" x="765.73" y="-532.7" font-family="sans-serif" font-size="11.00">gender :  array[string]</text><polyline fill="none" stroke="black" points="875,-525.5 910,-525.5 "/><text text-anchor="start" x="880" y="-532.7" font-family="sans-serif" font-size="11.00"> </text><polygon fill="none" stroke="black" points="759.5,-525 759.5,-674 910.5,-674 910.5,-525 759.5,-525"/></g><!-- node10591&#45;&gt;node10592 --><g id="edge1" class="edge"><title>node10591&#45;&gt;node10592</title><path fill="none" stroke="black" d="M835,-703.55C835,-695.34 835,-686.75 835,-678.17"/><polygon fill="black" stroke="black" points="831.5,-703.71 835,-713.71 838.5,-703.71 831.5,-703.71"/></g><!-- node10593 --><g id="node3" class="node"><title>node10593</title><polygon fill="#f5f0e4" stroke="transparent" points="8,-406 8,-469 216,-469 216,-406 8,-406"/><polyline fill="none" stroke="black" points="9,-446.5 202,-446.5 "/><text text-anchor="start" x="62.41" y="-453.7" font-family="sans-serif" font-size="11.00">string :  firstName</text><polyline fill="none" stroke="black" points="202,-446.5 215,-446.5 "/><text text-anchor="start" x="206.97" y="-453.7" font-family="sans-serif" font-size="11.00"> </text><text text-anchor="start" x="13" y="-433.7" font-family="sans-serif" font-size="11.00">maxLength :  10</text><text text-anchor="start" x="206" y="-433.7" font-family="sans-serif" font-size="11.00"> </text><polyline fill="none" stroke="black" points="9,-406.5 202,-406.5 "/><text text-anchor="start" x="13.97" y="-413.7" font-family="sans-serif" font-size="11.00">description :  The person&#39;s first name.</text><polyline fill="none" stroke="black" points="202,-406.5 215,-406.5 "/><text text-anchor="start" x="206.97" y="-413.7" font-family="sans-serif" font-size="11.00"> </text><polygon fill="none" stroke="black" points="8,-406 8,-469 216,-469 216,-406 8,-406"/></g><!-- node10592&#45;&gt;node10593 --><g id="edge2" class="edge"><title>node10592&#45;&gt;node10593</title><path fill="none" stroke="black" d="M740.92,-586.14C621.4,-569.21 409.46,-535.1 233,-485 220.98,-481.59 208.49,-477.47 196.29,-473.11"/><polygon fill="black" stroke="black" points="740.74,-589.65 751.13,-587.57 741.71,-582.71 740.74,-589.65"/></g><!-- node10594 --><g id="node4" class="node"><title>node10594</title><polygon fill="#f5f0e4" stroke="transparent" points="250.5,-415.5 250.5,-459.5 457.5,-459.5 457.5,-415.5 250.5,-415.5"/><polyline fill="none" stroke="black" points="252,-437.5 444,-437.5 "/><text text-anchor="start" x="305.21" y="-444.7" font-family="sans-serif" font-size="11.00">string :  lastName</text><polyline fill="none" stroke="black" points="444,-437.5 457,-437.5 "/><text text-anchor="start" x="448.97" y="-444.7" font-family="sans-serif" font-size="11.00"> </text><polyline fill="none" stroke="black" points="252,-416.5 444,-416.5 "/><text text-anchor="start" x="256.77" y="-423.7" font-family="sans-serif" font-size="11.00">description :  The person&#39;s last name.</text><polyline fill="none" stroke="black" points="444,-416.5 457,-416.5 "/><text text-anchor="start" x="448.97" y="-423.7" font-family="sans-serif" font-size="11.00"> </text><polygon fill="none" stroke="black" points="250.5,-415.5 250.5,-459.5 457.5,-459.5 457.5,-415.5 250.5,-415.5"/></g><!-- node10592&#45;&gt;node10594 --><g id="edge3" class="edge"><title>node10592&#45;&gt;node10594</title><path fill="none" stroke="black" d="M741.66,-570.98C668.45,-548.95 564.19,-516.61 474,-485 455.13,-478.39 434.79,-470.71 416.31,-463.53"/><polygon fill="black" stroke="black" points="740.75,-574.36 751.33,-573.88 742.76,-567.65 740.75,-574.36"/></g><!-- node10595 --><g id="node5" class="node"><title>node10595</title><polygon fill="#f5f0e4" stroke="transparent" points="491.5,-396.5 491.5,-478.5 858.5,-478.5 858.5,-396.5 491.5,-396.5"/><polyline fill="none" stroke="black" points="493,-456.5 845,-456.5 "/><text text-anchor="start" x="636.89" y="-463.7" font-family="sans-serif" font-size="11.00">integer :  age</text><polyline fill="none" stroke="black" points="845,-456.5 858,-456.5 "/><text text-anchor="start" x="849.97" y="-463.7" font-family="sans-serif" font-size="11.00"> </text><text text-anchor="start" x="496.57" y="-443.7" font-family="sans-serif" font-size="11.00">description :  Age in years which must be equal to or greater than zero.</text><text text-anchor="start" x="849" y="-443.7" font-family="sans-serif" font-size="11.00"> </text><text text-anchor="start" x="497" y="-424.7" font-family="sans-serif" font-size="11.00">minimum :  0</text><text text-anchor="start" x="849" y="-424.7" font-family="sans-serif" font-size="11.00"> </text><polyline fill="none" stroke="black" points="493,-397.5 845,-397.5 "/><text text-anchor="start" x="498" y="-404.7" font-family="sans-serif" font-size="11.00">maximum :  200</text><polyline fill="none" stroke="black" points="845,-397.5 858,-397.5 "/><text text-anchor="start" x="849.97" y="-404.7" font-family="sans-serif" font-size="11.00"> </text><polygon fill="none" stroke="black" points="491.5,-396.5 491.5,-478.5 858.5,-478.5 858.5,-396.5 491.5,-396.5"/></g><!-- node10592&#45;&gt;node10595 --><g id="edge4" class="edge"><title>node10592&#45;&gt;node10595</title><path fill="none" stroke="black" d="M750,-513.5C739.4,-502.9 728.93,-492.43 719.31,-482.81"/><polygon fill="black" stroke="black" points="747.8,-516.25 757.34,-520.84 752.75,-511.3 747.8,-516.25"/></g><!-- node10596 --><g id="node6" class="node"><title>node10596</title><polygon fill="#f5f0e4" stroke="transparent" points="893,-403.5 893,-471.5 1097,-471.5 1097,-403.5 893,-403.5"/><polygon fill="#f5e2b8" stroke="transparent" points="894,-444.5 894,-470.5 1059,-470.5 1059,-444.5 894,-444.5"/><polyline fill="none" stroke="black" points="894,-444.5 1059,-444.5 "/><text text-anchor="start" x="934.01" y="-454.2" font-family="sans-serif" font-size="11.00">number1 :  salary</text><polygon fill="#f5e2b8" stroke="transparent" points="1059,-444.5 1059,-470.5 1096,-470.5 1096,-444.5 1059,-444.5"/><polyline fill="none" stroke="black" points="1059,-444.5 1096,-444.5 "/><text text-anchor="start" x="1063.97" y="-456.9" font-family="sans-serif" font-weight="bold" font-size="12.00" fill="#ff0000">①</text><text text-anchor="start" x="1075.97" y="-456.9" font-family="sans-serif" font-size="11.00"> </text><text text-anchor="start" x="1079.03" y="-456.9" font-family="sans-serif" font-weight="bold" font-size="12.00" fill="#ff7200">②</text><text text-anchor="start" x="897.63" y="-431.7" font-family="sans-serif" font-size="11.00">description :  Salary of a person.</text><text text-anchor="start" x="1063" y="-431.7" font-family="sans-serif" font-size="11.00"> </text><polyline fill="none" stroke="black" points="894,-404.5 1059,-404.5 "/><text text-anchor="start" x="899" y="-411.7" font-family="sans-serif" font-size="11.00">multipleOf :  2.0</text><polyline fill="none" stroke="black" points="1059,-404.5 1096,-404.5 "/><text text-anchor="start" x="1064" y="-411.7" font-family="sans-serif" font-size="11.00"> </text><polygon fill="none" stroke="black" points="893,-403.5 893,-471.5 1097,-471.5 1097,-403.5 893,-403.5"/></g><!-- node10592&#45;&gt;node10596 --><g id="edge5" class="edge"><title>node10592&#45;&gt;node10596</title><path fill="none" stroke="black" d="M920.05,-513.45C933.33,-500.17 946.43,-487.07 957.86,-475.64"/><polygon fill="black" stroke="black" points="917.25,-511.3 912.66,-520.84 922.2,-516.25 917.25,-511.3"/></g><!-- node10597 --><g id="node7" class="node"><title>node10597</title><polygon fill="#f5f0e4" stroke="transparent" points="1131.5,-394 1131.5,-481 1262.5,-481 1262.5,-394 1131.5,-394"/><polygon fill="#f5e2b8" stroke="transparent" points="1133,-453.5 1133,-479.5 1240,-479.5 1240,-453.5 1133,-453.5"/><polyline fill="none" stroke="black" points="1133,-453.5 1240,-453.5 "/><text text-anchor="start" x="1137.89" y="-463.2" font-family="sans-serif" font-size="11.00">array[object] :  role2</text><polygon fill="#f5e2b8" stroke="transparent" points="1240,-453.5 1240,-479.5 1262,-479.5 1262,-453.5 1240,-453.5"/><polyline fill="none" stroke="black" points="1240,-453.5 1262,-453.5 "/><text text-anchor="start" x="1245" y="-465.9" font-family="sans-serif" font-weight="bold" font-size="12.00" fill="#ff7200">③</text><text text-anchor="start" x="1137" y="-440.7" font-family="sans-serif" font-size="11.00">minItems :  2</text><text text-anchor="start" x="1244" y="-440.7" font-family="sans-serif" font-size="11.00"> </text><text text-anchor="start" x="1137" y="-421.7" font-family="sans-serif" font-size="11.00">maxItems :  10</text><text text-anchor="start" x="1244" y="-421.7" font-family="sans-serif" font-size="11.00"> </text><polyline fill="none" stroke="black" points="1133,-394.5 1240,-394.5 "/><text text-anchor="start" x="1138" y="-401.7" font-family="sans-serif" font-size="11.00">items :  object</text><polyline fill="none" stroke="black" points="1240,-394.5 1262,-394.5 "/><text text-anchor="start" x="1245" y="-401.7" font-family="sans-serif" font-size="11.00"> </text><polygon fill="none" stroke="black" points="1131.5,-394 1131.5,-481 1262.5,-481 1262.5,-394 1131.5,-394"/></g><!-- node10592&#45;&gt;node10597 --><g id="edge6" class="edge"><title>node10592&#45;&gt;node10597</title><path fill="none" stroke="black" d="M927.94,-564.03C982.81,-542.86 1053.2,-514.26 1114,-485 1117.13,-483.5 1120.3,-481.93 1123.49,-480.31"/><polygon fill="black" stroke="black" points="926.66,-560.77 918.58,-567.63 929.17,-567.31 926.66,-560.77"/></g><!-- node10602 --><g id="node12" class="node"><title>node10602</title><polygon fill="#f5f0e4" stroke="transparent" points="1313.5,-415.5 1313.5,-459.5 1442.5,-459.5 1442.5,-415.5 1313.5,-415.5"/><polyline fill="none" stroke="black" points="1315,-437.5 1429,-437.5 "/><text text-anchor="start" x="1319.73" y="-444.7" font-family="sans-serif" font-size="11.00">array[string] :  gender</text><polyline fill="none" stroke="black" points="1429,-437.5 1442,-437.5 "/><text text-anchor="start" x="1433.97" y="-444.7" font-family="sans-serif" font-size="11.00"> </text><polyline fill="none" stroke="black" points="1315,-416.5 1429,-416.5 "/><text text-anchor="start" x="1320" y="-423.7" font-family="sans-serif" font-size="11.00">items :  string</text><polyline fill="none" stroke="black" points="1429,-416.5 1442,-416.5 "/><text text-anchor="start" x="1433.97" y="-423.7" font-family="sans-serif" font-size="11.00"> </text><polygon fill="none" stroke="black" points="1313.5,-415.5 1313.5,-459.5 1442.5,-459.5 1442.5,-415.5 1313.5,-415.5"/></g><!-- node10592&#45;&gt;node10602 --><g id="edge7" class="edge"><title>node10592&#45;&gt;node10602</title><path fill="none" stroke="black" d="M928.91,-580.08C1020.07,-560.91 1161.63,-527.72 1280,-485 1296.65,-478.99 1314.29,-471.12 1329.94,-463.58"/><polygon fill="black" stroke="black" points="927.94,-576.7 918.87,-582.17 929.37,-583.56 927.94,-576.7"/></g><!-- node10598 --><g id="node8" class="node"><title>node10598</title><polygon fill="#f5f0e4" stroke="transparent" points="1126.5,-287 1126.5,-350 1249.5,-350 1249.5,-287 1126.5,-287"/><polyline fill="none" stroke="black" points="1128,-327.5 1236,-327.5 "/><text text-anchor="start" x="1148.07" y="-334.7" font-family="sans-serif" font-size="11.00">object :  items</text><polyline fill="none" stroke="black" points="1236,-327.5 1249,-327.5 "/><text text-anchor="start" x="1240.97" y="-334.7" font-family="sans-serif" font-size="11.00"> </text><text text-anchor="start" x="1131.56" y="-314.7" font-family="sans-serif" font-size="11.00">description :  class B</text><text text-anchor="start" x="1240" y="-314.7" font-family="sans-serif" font-size="11.00"> </text><polyline fill="none" stroke="black" points="1128,-287.5 1236,-287.5 "/><text text-anchor="start" x="1133" y="-294.7" font-family="sans-serif" font-size="11.00">properties :  object</text><polyline fill="none" stroke="black" points="1236,-287.5 1249,-287.5 "/><text text-anchor="start" x="1240.97" y="-294.7" font-family="sans-serif" font-size="11.00"> </text><polygon fill="none" stroke="black" points="1126.5,-287 1126.5,-350 1249.5,-350 1249.5,-287 1126.5,-287"/></g><!-- node10597&#45;&gt;node10598 --><g id="edge8" class="edge"><title>node10597&#45;&gt;node10598</title><path fill="none" stroke="black" d="M1192.63,-379.7C1191.96,-370.92 1191.28,-362.1 1190.66,-354.02"/><polygon fill="black" stroke="black" points="1189.16,-380.22 1193.42,-389.92 1196.14,-379.68 1189.16,-380.22"/></g><!-- node10599 --><g id="node9" class="node"><title>node10599</title><polygon fill="#f5f0e4" stroke="transparent" points="1130.5,-199 1130.5,-243 1245.5,-243 1245.5,-199 1130.5,-199"/><polyline fill="none" stroke="black" points="1132,-221 1232,-221 "/><text text-anchor="start" x="1136.75" y="-228.2" font-family="sans-serif" font-size="11.00">object :  properties</text><polyline fill="none" stroke="black" points="1232,-221 1245,-221 "/><text text-anchor="start" x="1236.97" y="-228.2" font-family="sans-serif" font-size="11.00"> </text><polyline fill="none" stroke="black" points="1132,-200 1232,-200 "/><text text-anchor="start" x="1137" y="-207.2" font-family="sans-serif" font-size="11.00">b1 :  [&quot;string&quot;]</text><polyline fill="none" stroke="black" points="1232,-200 1245,-200 "/><text text-anchor="start" x="1236.97" y="-207.2" font-family="sans-serif" font-size="11.00"> </text><polygon fill="none" stroke="black" points="1130.5,-199 1130.5,-243 1245.5,-243 1245.5,-199 1130.5,-199"/></g><!-- node10598&#45;&gt;node10599 --><g id="edge9" class="edge"><title>node10598&#45;&gt;node10599</title><path fill="none" stroke="black" d="M1188,-272.65C1188,-263.94 1188,-255.1 1188,-247.29"/><polygon fill="black" stroke="black" points="1184.5,-272.75 1188,-282.75 1191.5,-272.75 1184.5,-272.75"/></g><!-- node10600 --><g id="node10" class="node"><title>node10600</title><polygon fill="#f5f0e4" stroke="transparent" points="1129.5,-111 1129.5,-155 1246.5,-155 1246.5,-111 1129.5,-111"/><polyline fill="none" stroke="black" points="1131,-133 1233,-133 "/><text text-anchor="start" x="1149.36" y="-140.2" font-family="sans-serif" font-size="11.00">[&quot;string&quot;] :  b1</text><polyline fill="none" stroke="black" points="1233,-133 1246,-133 "/><text text-anchor="start" x="1237.97" y="-140.2" font-family="sans-serif" font-size="11.00"> </text><polyline fill="none" stroke="black" points="1131,-112 1233,-112 "/><text text-anchor="start" x="1135.54" y="-119.2" font-family="sans-serif" font-size="11.00">allOf :  array[string]</text><polyline fill="none" stroke="black" points="1233,-112 1246,-112 "/><text text-anchor="start" x="1237.97" y="-119.2" font-family="sans-serif" font-size="11.00"> </text><polygon fill="none" stroke="black" points="1129.5,-111 1129.5,-155 1246.5,-155 1246.5,-111 1129.5,-111"/></g><!-- node10599&#45;&gt;node10600 --><g id="edge10" class="edge"><title>node10599&#45;&gt;node10600</title><path fill="none" stroke="black" d="M1188,-184.56C1188,-176.04 1188,-167.1 1188,-159.16"/><polygon fill="black" stroke="black" points="1184.5,-184.66 1188,-194.66 1191.5,-184.66 1184.5,-184.66"/></g><!-- node10601 --><g id="node11" class="node"><title>node10601</title><polygon fill="#f5f0e4" stroke="transparent" points="1129.5,-4 1129.5,-67 1246.5,-67 1246.5,-4 1129.5,-4"/><polyline fill="none" stroke="black" points="1131,-44.5 1233,-44.5 "/><text text-anchor="start" x="1135.54" y="-51.7" font-family="sans-serif" font-size="11.00">array[string] :  allOf</text><polyline fill="none" stroke="black" points="1233,-44.5 1246,-44.5 "/><text text-anchor="start" x="1237.97" y="-51.7" font-family="sans-serif" font-size="11.00"> </text><text text-anchor="start" x="1135" y="-31.7" font-family="sans-serif" font-size="11.00">Jude :  string</text><text text-anchor="start" x="1237" y="-31.7" font-family="sans-serif" font-size="11.00"> </text><polyline fill="none" stroke="black" points="1131,-4.5 1233,-4.5 "/><text text-anchor="start" x="1136" y="-11.7" font-family="sans-serif" font-size="11.00">Gunjan :  string</text><polyline fill="none" stroke="black" points="1233,-4.5 1246,-4.5 "/><text text-anchor="start" x="1237.97" y="-11.7" font-family="sans-serif" font-size="11.00"> </text><polygon fill="none" stroke="black" points="1129.5,-4 1129.5,-67 1246.5,-67 1246.5,-4 1129.5,-4"/></g><!-- node10600&#45;&gt;node10601 --><g id="edge11" class="edge"><title>node10600&#45;&gt;node10601</title><path fill="none" stroke="black" d="M1188,-96.7C1188,-88.35 1188,-79.44 1188,-71.12"/><polygon fill="black" stroke="black" points="1184.5,-96.91 1188,-106.91 1191.5,-96.91 1184.5,-96.91"/></g><!-- node10603 --><g id="node13" class="node"><title>node10603</title><polygon fill="#f5f0e4" stroke="transparent" points="1284,-296.5 1284,-340.5 1488,-340.5 1488,-296.5 1284,-296.5"/><polyline fill="none" stroke="black" points="1285,-318.5 1474,-318.5 "/><text text-anchor="start" x="1346.8" y="-325.7" font-family="sans-serif" font-size="11.00">string :  items</text><polyline fill="none" stroke="black" points="1474,-318.5 1487,-318.5 "/><text text-anchor="start" x="1478.97" y="-325.7" font-family="sans-serif" font-size="11.00"> </text><polyline fill="none" stroke="black" points="1285,-297.5 1474,-297.5 "/><text text-anchor="start" x="1289.9" y="-304.7" font-family="sans-serif" font-size="11.00">enum :  [&quot;male&quot; &quot;female&quot; &quot;others&quot; &quot;x&quot;]</text><polyline fill="none" stroke="black" points="1474,-297.5 1487,-297.5 "/><text text-anchor="start" x="1478.97" y="-304.7" font-family="sans-serif" font-size="11.00"> </text><polygon fill="none" stroke="black" points="1284,-296.5 1284,-340.5 1488,-340.5 1488,-296.5 1284,-296.5"/></g><!-- node10602&#45;&gt;node10603 --><g id="edge12" class="edge"><title>node10602&#45;&gt;node10603</title><path fill="none" stroke="black" d="M1380.4,-401.39C1381.65,-383.09 1383.15,-361.13 1384.29,-344.56"/><polygon fill="black" stroke="black" points="1376.91,-401.19 1379.72,-411.4 1383.89,-401.66 1376.91,-401.19"/></g></g></svg>